<svg width="72" height="73" viewBox="0 0 72 73" fill="none" xmlns="http://www.w3.org/2000/svg">
<path d="M35.8821 0.65625L41.2723 9.44001L49.6135 3.38761L51.232 13.5655L61.2545 11.1659L58.8549 21.1884L69.0328 22.8068L62.9804 31.1481L71.7641 36.5383L62.9804 41.9285L69.0328 50.2698L58.8549 51.8883L61.2545 61.9108L51.232 59.5112L49.6135 69.689L41.2723 63.6366L35.8821 72.4204L30.4919 63.6366L22.1506 69.689L20.5321 59.5112L10.5096 61.9108L12.9092 51.8883L2.73136 50.2698L8.78376 41.9285L0 36.5383L8.78376 31.1481L2.73136 22.8068L12.9092 21.1884L10.5096 11.1659L20.5321 13.5655L22.1506 3.38761L30.4919 9.44001L35.8821 0.65625Z" fill="#EB990F"/>
<path d="M38.7129 39.2141C37.9107 39.8608 36.9113 40.2135 35.8809 40.2135C34.8504 40.2135 33.851 39.8608 33.0489 39.2141C32.8038 39.0104 32.4879 38.9124 32.1706 38.9417C31.8532 38.9709 31.5606 39.125 31.3569 39.3701C31.1532 39.6151 31.0552 39.9311 31.0844 40.2484C31.1137 40.5657 31.2678 40.8584 31.5129 41.0621C32.7385 42.0852 34.2843 42.6456 35.8809 42.6456C37.4774 42.6456 39.0233 42.0852 40.2489 41.0621C40.4939 40.8584 40.648 40.5657 40.6773 40.2484C40.7065 39.9311 40.6085 39.6151 40.4049 39.3701C40.304 39.2487 40.1802 39.1485 40.0406 39.0749C39.901 39.0014 39.7483 38.9561 39.5912 38.9417C39.2739 38.9124 38.9579 39.0104 38.7129 39.2141V39.2141ZM32.2809 35.3381C32.5182 35.3381 32.7502 35.2677 32.9475 35.1358C33.1449 35.004 33.2987 34.8166 33.3895 34.5973C33.4803 34.378 33.5041 34.1368 33.4578 33.904C33.4115 33.6712 33.2972 33.4574 33.1294 33.2896C32.9616 33.1217 32.7477 33.0074 32.515 32.9611C32.2822 32.9148 32.0409 32.9386 31.8216 33.0294C31.6024 33.1203 31.415 33.2741 31.2831 33.4714C31.1512 33.6687 31.0809 33.9007 31.0809 34.1381C31.0809 34.4563 31.2073 34.7616 31.4323 34.9866C31.6574 35.2117 31.9626 35.3381 32.2809 35.3381ZM39.4809 32.9381C39.2435 32.9381 39.0115 33.0085 38.8142 33.1403C38.6168 33.2722 38.463 33.4596 38.3722 33.6789C38.2814 33.8981 38.2576 34.1394 38.3039 34.3722C38.3502 34.605 38.4645 34.8188 38.6323 34.9866C38.8002 35.1544 39.014 35.2687 39.2468 35.315C39.4795 35.3613 39.7208 35.3376 39.9401 35.2467C40.1594 35.1559 40.3468 35.0021 40.4786 34.8048C40.6105 34.6074 40.6809 34.3754 40.6809 34.1381C40.6809 33.8198 40.5544 33.5146 40.3294 33.2896C40.1043 33.0645 39.7991 32.9381 39.4809 32.9381ZM35.8809 24.5381C33.5075 24.5381 31.1874 25.2419 29.214 26.5605C27.2406 27.879 25.7026 29.7532 24.7943 31.9459C23.8861 34.1386 23.6484 36.5514 24.1114 38.8792C24.5745 41.2069 25.7174 43.3451 27.3956 45.0234C29.0738 46.7016 31.212 47.8445 33.5398 48.3075C35.8676 48.7705 38.2804 48.5329 40.4731 47.6246C42.6658 46.7164 44.5399 45.1783 45.8585 43.2049C47.1771 41.2315 47.8809 38.9115 47.8809 36.5381C47.8809 34.9622 47.5705 33.4018 46.9674 31.9459C46.3644 30.49 45.4804 29.1671 44.3661 28.0528C43.2518 26.9385 41.929 26.0546 40.4731 25.4515C39.0172 24.8485 37.4567 24.5381 35.8809 24.5381V24.5381ZM35.8809 46.1381C33.9822 46.1381 32.1261 45.575 30.5474 44.5202C28.9687 43.4653 27.7382 41.966 27.0116 40.2118C26.285 38.4577 26.0949 36.5274 26.4653 34.6652C26.8357 32.803 27.7501 31.0924 29.0926 29.7499C30.4352 28.4073 32.1458 27.493 34.008 27.1225C35.8702 26.7521 37.8005 26.9422 39.5546 27.6688C41.3088 28.3954 42.8081 29.6259 43.863 31.2046C44.9178 32.7833 45.4809 34.6394 45.4809 36.5381C45.4809 39.0842 44.4694 41.526 42.6691 43.3263C40.8687 45.1267 38.4269 46.1381 35.8809 46.1381V46.1381Z" fill="white"/>
</svg>
