<svg width="977" height="378" viewBox="0 0 977 378" fill="none" xmlns="http://www.w3.org/2000/svg">
<path d="M148.227 54.4546C160.503 54.4546 170.455 44.5031 170.455 32.2273C170.455 19.9515 160.503 10 148.227 10C135.951 10 126 19.9515 126 32.2273C126 44.5031 135.951 54.4546 148.227 54.4546Z" fill="#5EBB99"/>
<path d="M879.227 377.455C891.503 377.455 901.455 367.503 901.455 355.227C901.455 342.951 891.503 333 879.227 333C866.951 333 857 342.951 857 355.227C857 367.503 866.951 377.455 879.227 377.455Z" fill="#5EBB99"/>
<path d="M101.112 266.223C108.905 266.223 115.223 259.905 115.223 252.112C115.223 244.318 108.905 238 101.112 238C93.318 238 87 244.318 87 252.112C87 259.905 93.318 266.223 101.112 266.223Z" fill="#F0848C"/>
<path d="M680.112 51.2232C687.905 51.2232 694.223 44.9052 694.223 37.1116C694.223 29.318 687.905 23 680.112 23C672.318 23 666 29.318 666 37.1116C666 44.9052 672.318 51.2232 680.112 51.2232Z" fill="#F0848C"/>
<path d="M5.87479 52.7496C9.11934 52.7496 11.7496 50.1194 11.7496 46.8748C11.7496 43.6302 9.11934 41 5.87479 41C2.63023 41 0 43.6302 0 46.8748C0 50.1194 2.63023 52.7496 5.87479 52.7496Z" fill="#3A6AB2"/>
<path d="M936.875 156.75C940.119 156.75 942.75 154.119 942.75 150.875C942.75 147.63 940.119 145 936.875 145C933.63 145 931 147.63 931 150.875C931 154.119 933.63 156.75 936.875 156.75Z" fill="#3A6AB2"/>
<path d="M478.875 203.75C482.119 203.75 484.75 201.119 484.75 197.875C484.75 194.63 482.119 192 478.875 192C475.63 192 473 194.63 473 197.875C473 201.119 475.63 203.75 478.875 203.75Z" fill="#3A6AB2"/>
<path d="M739.875 325.75C743.119 325.75 745.75 323.119 745.75 319.875C745.75 316.63 743.119 314 739.875 314C736.63 314 734 316.63 734 319.875C734 323.119 736.63 325.75 739.875 325.75Z" fill="#3A6AB2"/>
<path opacity="0.7" d="M947.574 93.1487C973.297 93.1487 994.149 72.2967 994.149 46.5744C994.149 20.852 973.297 0 947.574 0C921.852 0 901 20.852 901 46.5744C901 72.2967 921.852 93.1487 947.574 93.1487Z" fill="#EB990F"/>
<path opacity="0.7" d="M647.574 262.149C673.297 262.149 694.149 241.297 694.149 215.574C694.149 189.852 673.297 169 647.574 169C621.852 169 601 189.852 601 215.574C601 241.297 621.852 262.149 647.574 262.149Z" fill="#EB990F"/>
</svg>
