<svg width="1021" height="378" viewBox="0 0 1021 378" fill="none" xmlns="http://www.w3.org/2000/svg">
<path d="M635.086 105.848C635.521 110.146 633.84 114.608 630.129 119.189C626.415 123.771 620.7 128.432 613.16 133.099C598.082 142.432 575.806 151.732 547.959 160.473C492.273 177.954 414.416 193.168 327.59 201.967C240.764 210.765 161.438 211.477 103.377 205.523C74.3429 202.545 50.6535 197.903 34.0099 191.784C25.6869 188.724 19.1532 185.305 14.5963 181.561C10.041 177.818 7.49888 173.783 7.06338 169.485C6.62787 165.187 8.30898 160.725 12.0208 156.144C15.734 151.562 21.449 146.901 28.989 142.234C44.0669 132.901 66.3435 123.601 94.1903 114.86C149.876 97.3795 227.733 82.1646 314.559 73.3666C401.385 64.5685 480.712 63.8559 538.772 69.8103C567.806 72.788 591.496 77.4304 608.14 83.549C616.462 86.6088 622.996 90.028 627.553 93.7722C632.108 97.5152 634.65 101.55 635.086 105.848Z" stroke="#AED8C8"/>
<path d="M192.227 54.4546C204.503 54.4546 214.455 44.5031 214.455 32.2273C214.455 19.9515 204.503 10 192.227 10C179.951 10 170 19.9515 170 32.2273C170 44.5031 179.951 54.4546 192.227 54.4546Z" fill="#5EBB99"/>
<path d="M923.227 377.455C935.503 377.455 945.455 367.503 945.455 355.227C945.455 342.951 935.503 333 923.227 333C910.951 333 901 342.951 901 355.227C901 367.503 910.951 377.455 923.227 377.455Z" fill="#5EBB99"/>
<path d="M145.112 266.223C152.905 266.223 159.223 259.905 159.223 252.112C159.223 244.318 152.905 238 145.112 238C137.318 238 131 244.318 131 252.112C131 259.905 137.318 266.223 145.112 266.223Z" fill="#F0848C"/>
<path d="M724.112 51.2232C731.905 51.2232 738.223 44.9052 738.223 37.1116C738.223 29.318 731.905 23 724.112 23C716.318 23 710 29.318 710 37.1116C710 44.9052 716.318 51.2232 724.112 51.2232Z" fill="#F0848C"/>
<path d="M49.8748 52.7496C53.1193 52.7496 55.7496 50.1194 55.7496 46.8748C55.7496 43.6302 53.1193 41 49.8748 41C46.6302 41 44 43.6302 44 46.8748C44 50.1194 46.6302 52.7496 49.8748 52.7496Z" fill="#3A6AB2"/>
<path d="M980.875 156.75C984.119 156.75 986.75 154.119 986.75 150.875C986.75 147.63 984.119 145 980.875 145C977.63 145 975 147.63 975 150.875C975 154.119 977.63 156.75 980.875 156.75Z" fill="#3A6AB2"/>
<path d="M522.875 203.75C526.119 203.75 528.75 201.119 528.75 197.875C528.75 194.63 526.119 192 522.875 192C519.63 192 517 194.63 517 197.875C517 201.119 519.63 203.75 522.875 203.75Z" fill="#3A6AB2"/>
<path d="M783.875 325.75C787.119 325.75 789.75 323.119 789.75 319.875C789.75 316.63 787.119 314 783.875 314C780.63 314 778 316.63 778 319.875C778 323.119 780.63 325.75 783.875 325.75Z" fill="#3A6AB2"/>
<path opacity="0.7" d="M991.574 93.1487C1017.3 93.1487 1038.15 72.2967 1038.15 46.5744C1038.15 20.852 1017.3 0 991.574 0C965.852 0 945 20.852 945 46.5744C945 72.2967 965.852 93.1487 991.574 93.1487Z" fill="#EB990F"/>
<path opacity="0.7" d="M691.574 262.149C717.297 262.149 738.149 241.297 738.149 215.574C738.149 189.852 717.297 169 691.574 169C665.852 169 645 189.852 645 215.574C645 241.297 665.852 262.149 691.574 262.149Z" fill="#EB990F"/>
</svg>
