<svg width="72" height="73" viewBox="0 0 72 73" fill="none" xmlns="http://www.w3.org/2000/svg">
<path d="M35.927 0.65625L41.3172 9.44001L49.6585 3.38761L51.2769 13.5655L61.2994 11.1659L58.8998 21.1884L69.0777 22.8068L63.0253 31.1481L71.8091 36.5383L63.0253 41.9285L69.0777 50.2698L58.8998 51.8883L61.2994 61.9108L51.2769 59.5112L49.6585 69.689L41.3172 63.6366L35.927 72.4204L30.5368 63.6366L22.1955 69.689L20.577 59.5112L10.5545 61.9108L12.9542 51.8883L2.77628 50.2698L8.82869 41.9285L0.0449219 36.5383L8.82869 31.1481L2.77628 22.8068L12.9542 21.1884L10.5545 11.1659L20.577 13.5655L22.1955 3.38761L30.5368 9.44001L35.927 0.65625Z" fill="#EB990F"/>
<path d="M34.8008 33.0382H39.3008C39.5992 33.0382 39.8853 32.9153 40.0963 32.6965C40.3073 32.4777 40.4258 32.1809 40.4258 31.8715C40.4258 31.5621 40.3073 31.2653 40.0963 31.0465C39.8853 30.8278 39.5992 30.7048 39.3008 30.7048H37.0508V29.5382C37.0508 29.2287 36.9323 28.932 36.7213 28.7132C36.5103 28.4944 36.2242 28.3715 35.9258 28.3715C35.6274 28.3715 35.3413 28.4944 35.1303 28.7132C34.9193 28.932 34.8008 29.2287 34.8008 29.5382V30.7048C33.9057 30.7048 33.0472 31.0736 32.4143 31.73C31.7814 32.3863 31.4258 33.2766 31.4258 34.2048C31.4258 35.1331 31.7814 36.0233 32.4143 36.6797C33.0472 37.3361 33.9057 37.7048 34.8008 37.7048H37.0508C37.3492 37.7048 37.6353 37.8278 37.8463 38.0465C38.0573 38.2653 38.1758 38.5621 38.1758 38.8715C38.1758 39.1809 38.0573 39.4777 37.8463 39.6965C37.6353 39.9153 37.3492 40.0382 37.0508 40.0382H32.5508C32.2524 40.0382 31.9663 40.1611 31.7553 40.3799C31.5443 40.5987 31.4258 40.8954 31.4258 41.2048C31.4258 41.5143 31.5443 41.811 31.7553 42.0298C31.9663 42.2486 32.2524 42.3715 32.5508 42.3715H34.8008V43.5382C34.8008 43.8476 34.9193 44.1443 35.1303 44.3631C35.3413 44.5819 35.6274 44.7048 35.9258 44.7048C36.2242 44.7048 36.5103 44.5819 36.7213 44.3631C36.9323 44.1443 37.0508 43.8476 37.0508 43.5382V42.3715C37.9459 42.3715 38.8043 42.0028 39.4373 41.3464C40.0702 40.69 40.4258 39.7998 40.4258 38.8715C40.4258 37.9432 40.0702 37.053 39.4373 36.3966C38.8043 35.7402 37.9459 35.3715 37.0508 35.3715H34.8008C34.5024 35.3715 34.2163 35.2486 34.0053 35.0298C33.7943 34.811 33.6758 34.5143 33.6758 34.2048C33.6758 33.8954 33.7943 33.5987 34.0053 33.3799C34.2163 33.1611 34.5024 33.0382 34.8008 33.0382V33.0382ZM35.9258 23.7048C33.4782 23.7048 31.0857 24.4575 29.0506 25.8676C27.0155 27.2778 25.4294 29.2821 24.4928 31.6271C23.5561 33.972 23.3111 36.5524 23.7886 39.0418C24.2661 41.5313 25.4447 43.8179 27.1753 45.6127C28.906 47.4075 31.111 48.6297 33.5115 49.1249C35.9121 49.6201 38.4003 49.3659 40.6615 48.3946C42.9227 47.4233 44.8554 45.7784 46.2152 43.668C47.575 41.5576 48.3008 39.0764 48.3008 36.5382C48.3008 33.1346 46.997 29.8703 44.6762 27.4636C42.3555 25.0569 39.2078 23.7048 35.9258 23.7048V23.7048ZM35.9258 47.0382C33.9233 47.0382 31.9657 46.4224 30.3006 45.2686C28.6356 44.1148 27.3378 42.475 26.5715 40.5563C25.8052 38.6377 25.6047 36.5265 25.9953 34.4897C26.386 32.4529 27.3503 30.582 28.7663 29.1135C30.1823 27.6451 31.9864 26.6451 33.9505 26.2399C35.9146 25.8348 37.9504 26.0427 39.8005 26.8374C41.6506 27.6322 43.2319 28.978 44.3444 30.7047C45.457 32.4314 46.0508 34.4615 46.0508 36.5382C46.0508 39.3229 44.984 41.9937 43.0852 43.9628C41.1864 45.9319 38.6111 47.0382 35.9258 47.0382V47.0382Z" fill="white"/>
</svg>
