<svg width="72" height="73" viewBox="0 0 72 73" fill="none" xmlns="http://www.w3.org/2000/svg">
<path d="M35.9036 0.65625L41.2937 9.44001L49.635 3.38761L51.2535 13.5655L61.276 11.1659L58.8764 21.1884L69.0543 22.8068L63.0019 31.1481L71.7856 36.5383L63.0019 41.9285L69.0543 50.2698L58.8764 51.8883L61.276 61.9108L51.2535 59.5112L49.635 69.689L41.2937 63.6366L35.9036 72.4204L30.5134 63.6366L22.1721 69.689L20.5536 59.5112L10.5311 61.9108L12.9307 51.8883L2.75285 50.2698L8.80525 41.9285L0.0214844 36.5383L8.80525 31.1481L2.75285 22.8068L12.9307 21.1884L10.5311 11.1659L20.5536 13.5655L22.1721 3.38761L30.5134 9.44001L35.9036 0.65625Z" fill="#EB990F"/>
<path d="M34.696 24.4548C32.3062 24.4548 29.97 25.1635 27.9829 26.4912C25.9958 27.819 24.447 29.7061 23.5325 31.9141C22.6179 34.122 22.3786 36.5516 22.8449 38.8955C23.3111 41.2394 24.4619 43.3925 26.1518 45.0824C27.8417 46.7723 29.9947 47.9231 32.3387 48.3893C34.6826 48.8556 37.1122 48.6163 39.3201 47.7017C41.528 46.7872 43.4152 45.2384 44.7429 43.2513C46.0707 41.2642 46.7793 38.928 46.7793 36.5382C46.7793 34.9514 46.4668 33.3801 45.8596 31.9141C45.2523 30.4481 44.3623 29.116 43.2402 27.994C42.1182 26.8719 40.7861 25.9819 39.3201 25.3746C37.8541 24.7674 36.2828 24.4548 34.696 24.4548V24.4548ZM34.696 46.2048C32.7841 46.2048 30.9152 45.6379 29.3255 44.5757C27.7358 43.5135 26.4968 42.0038 25.7652 40.2374C25.0335 38.4711 24.8421 36.5274 25.2151 34.6523C25.5881 32.7771 26.5087 31.0547 27.8606 29.7028C29.2126 28.3509 30.935 27.4302 32.8101 27.0572C34.6853 26.6843 36.6289 26.8757 38.3953 27.6073C40.1616 28.339 41.6714 29.578 42.7335 31.1677C43.7957 32.7573 44.3627 34.6263 44.3627 36.5382C44.3627 39.1019 43.3442 41.5607 41.5314 43.3735C39.7185 45.1864 37.2598 46.2048 34.696 46.2048V46.2048ZM34.696 29.2882C34.3755 29.2882 34.0682 29.4155 33.8416 29.6421C33.615 29.8687 33.4877 30.176 33.4877 30.4965V34.4478L32.1585 33.6744C31.8797 33.5142 31.5487 33.4713 31.2382 33.5551C30.9278 33.639 30.6633 33.8427 30.5031 34.1215C30.3429 34.4003 30.2999 34.7314 30.3838 35.0418C30.4676 35.3523 30.6714 35.6167 30.9502 35.7769L34.0918 37.5894H34.1764H34.2852C34.4114 37.6665 34.5506 37.7197 34.696 37.7465C34.8368 37.7425 34.9759 37.7138 35.1068 37.6619H35.2035C35.3295 37.607 35.4442 37.5291 35.5418 37.4323V37.4323C35.6081 37.3606 35.6687 37.2838 35.7231 37.2028C35.7231 37.2028 35.7231 37.2028 35.7231 37.1303C35.7527 37.0597 35.7769 36.987 35.7956 36.9128C35.8013 36.8323 35.8013 36.7515 35.7956 36.6711C35.7956 36.6711 35.7956 36.6711 35.7956 36.5986V30.4965C35.7968 30.194 35.6845 29.9021 35.481 29.6783C35.2774 29.4546 34.9973 29.3154 34.696 29.2882Z" fill="white"/>
</svg>
