<svg width="525" height="556" viewBox="0 0 525 556" fill="none" xmlns="http://www.w3.org/2000/svg">
<path d="M465.137 554.818L455.096 89.393L454.104 85.0255L427.601 56.7366L396.632 61.8981L38.7949 554.818L465.137 554.818Z" fill="#FEFFB8" fill-opacity="0.5"/>
<path d="M168.782 383.688H159.883V553.818H168.782V383.688Z" fill="#999999"/>
<path d="M287.041 383.688H278.143V553.818H287.041V383.688Z" fill="#999999"/>
<path d="M287.016 555.33V546.431H159.857V555.33H287.016Z" fill="#999999"/>
<path d="M278.148 454.783V445.885H168.788V454.783H278.148Z" fill="#3A6AB2"/>
<path d="M287.031 433.225V424.326H159.873V433.225H287.031Z" fill="#999999"/>
<path d="M287 392.62V383.721H159.842V392.62H287Z" fill="#999999"/>
<path d="M287.045 424.338V392.607H159.887V424.338H287.045Z" fill="#1A1A1A"/>
<path d="M295.908 383.731V287.485H151.011L151.011 383.731H295.908Z" fill="#1A1A1A"/>
<path d="M159.881 303.365H150.982V455.288H159.881V303.365Z" fill="#1A1A1A"/>
<path d="M295.94 303.365H287.041V455.288H295.94V303.365Z" fill="#1A1A1A"/>
<path d="M160.176 392.587C160.176 403.183 160.176 413.721 160.176 424.318" stroke="white" stroke-width="0.584799" stroke-miterlimit="10"/>
<path d="M172.879 392.587C172.879 403.183 172.879 413.721 172.879 424.318" stroke="white" stroke-width="0.584799" stroke-miterlimit="10"/>
<path d="M185.523 392.587C185.523 403.183 185.523 413.721 185.523 424.318" stroke="white" stroke-width="0.584799" stroke-miterlimit="10"/>
<path d="M198.17 392.587C198.17 403.183 198.17 413.721 198.17 424.318" stroke="white" stroke-width="0.584799" stroke-miterlimit="10"/>
<path d="M210.816 392.587C210.816 403.183 210.816 413.721 210.816 424.318" stroke="white" stroke-width="0.584799" stroke-miterlimit="10"/>
<path d="M223.461 392.587C223.461 403.183 223.461 413.721 223.461 424.318" stroke="white" stroke-width="0.584799" stroke-miterlimit="10"/>
<path d="M236.107 392.587C236.107 403.183 236.107 413.721 236.107 424.318" stroke="white" stroke-width="0.584799" stroke-miterlimit="10"/>
<path d="M248.811 392.587C248.811 403.183 248.811 413.721 248.811 424.318" stroke="white" stroke-width="0.584799" stroke-miterlimit="10"/>
<path d="M261.457 392.587C261.457 403.183 261.457 413.721 261.457 424.318" stroke="white" stroke-width="0.584799" stroke-miterlimit="10"/>
<path d="M274.102 392.587C274.102 403.183 274.102 413.721 274.102 424.318" stroke="white" stroke-width="0.584799" stroke-miterlimit="10"/>
<path d="M286.748 392.587C286.748 403.183 286.748 413.721 286.748 424.318" stroke="white" stroke-width="0.584799" stroke-miterlimit="10"/>
<path d="M150.982 287.5C150.982 287.5 170.887 265.37 223.46 265.37C275.916 265.37 295.938 287.5 295.938 287.5H150.982Z" fill="#999999"/>
<path d="M150.986 419.693C150.986 419.693 145.541 414.775 145.541 401.778C145.541 388.84 150.986 383.864 150.986 383.864V419.693Z" fill="#B62937"/>
<path d="M295.939 383.922C295.939 383.922 301.384 388.84 301.384 401.837C301.384 414.775 295.939 419.751 295.939 419.751V383.922Z" fill="#B62937"/>
<path d="M204.537 332.207C206.036 332.207 207.195 332.523 208.014 333.156C208.834 333.776 209.244 334.707 209.244 335.948C209.244 337.271 208.816 338.255 207.962 338.899C207.107 339.543 205.971 339.865 204.554 339.865H203.026V344.308H201.358V332.207H204.537ZM204.484 338.548C205.456 338.548 206.194 338.36 206.697 337.986C207.212 337.611 207.47 336.938 207.47 335.966C207.47 335.099 207.212 334.473 206.697 334.087C206.194 333.7 205.468 333.507 204.519 333.507H203.026V338.548H204.484ZM215.111 339.18H213.232V344.308H211.563V332.207H214.742C216.253 332.207 217.394 332.494 218.167 333.068C218.951 333.642 219.344 334.496 219.344 335.632C219.344 336.475 219.127 337.16 218.694 337.687C218.261 338.214 217.605 338.612 216.727 338.881L219.993 344.308H218.009L215.111 339.18ZM214.918 337.898C215.796 337.898 216.457 337.722 216.902 337.371C217.347 337.008 217.57 336.428 217.57 335.632C217.57 334.883 217.341 334.344 216.885 334.016C216.44 333.677 215.72 333.507 214.725 333.507H213.232V337.898H214.918ZM223.866 332.207V344.308H222.197V332.207H223.866ZM235.86 344.308H233.629L228.712 334.034C228.782 334.842 228.835 335.591 228.87 336.282C228.917 336.961 228.94 337.787 228.94 338.758V344.308H227.377V332.207H229.555L234.525 342.499C234.49 342.195 234.443 341.662 234.385 340.901C234.326 340.14 234.297 339.443 234.297 338.811V332.207H235.86V344.308ZM246.514 332.207L246.339 333.63H242.984V344.308H241.315V333.63H237.873V332.207H246.514Z" fill="white"/>
<path d="M441.167 39.3038C454.343 -15.911 526.315 -8.85491 524.553 43.5957V555.34H39.0454L26.0449 446.014L94.4177 446.029L81.5795 555.376" stroke="black" stroke-width="0.585443" stroke-miterlimit="10"/>
<path d="M387.327 540.118C363.324 536.02 365.841 554.578 365.841 554.578H408.813V523.257L382.468 516.291V539.591" fill="#B37014"/>
<path d="M387.327 540.118C363.324 536.02 365.841 554.578 365.841 554.578H408.813V523.257L382.468 516.291V539.591" stroke="#FEE9C2" stroke-width="0.622443" stroke-miterlimit="10"/>
<path d="M413.497 541.758C389.494 538.128 392.011 554.521 392.011 554.521H426.669H434.983V526.829H408.638V541.29" fill="#B37014"/>
<path d="M413.497 541.758C389.494 538.128 392.011 554.521 392.011 554.521H426.669H434.983V526.829H408.638V541.29" stroke="#FEE9C2" stroke-width="0.585443" stroke-miterlimit="10"/>
<path d="M429.83 347.508L444.29 526.946C444.29 526.946 419.292 535.2 401.729 526.946L401.494 522.965C401.494 522.965 384.868 525.541 378.662 519.452L383.346 347.508H429.83Z" fill="#FEE9C2"/>
<path d="M401.495 522.965L395.289 362.202" stroke="black" stroke-width="0.585443" stroke-miterlimit="10" stroke-linecap="round" stroke-linejoin="round"/>
<path d="M51.9258 389.191L59.0682 445.862" stroke="black" stroke-width="0.59" stroke-miterlimit="10"/>
<path d="M67.9667 397.622L65.5078 445.862" stroke="black" stroke-width="0.59" stroke-miterlimit="10"/>
<path d="M59.0703 402.071L61.939 445.862" stroke="black" stroke-width="0.59" stroke-miterlimit="10"/>
<path d="M85.649 412.433C84.5952 413.78 74.7598 445.862 74.7598 445.862L85.649 412.433Z" fill="#AED8C8"/>
<path d="M85.649 412.433C84.5952 413.78 74.7598 445.862 74.7598 445.862" stroke="black" stroke-width="0.59" stroke-miterlimit="10"/>
<path d="M25.0547 393.758L36.4123 445.862" stroke="black" stroke-width="0.59" stroke-miterlimit="10"/>
<path d="M426.494 83.5148C432.117 82.4489 435.811 77.0265 434.745 71.4037C433.679 65.7809 428.257 62.0869 422.634 63.1529C417.011 64.2189 413.317 69.6412 414.383 75.264C415.449 80.8868 420.872 84.5808 426.494 83.5148Z" fill="white" stroke="black" stroke-width="0.585443" stroke-miterlimit="10"/>
<path d="M85.6478 412.433C85.6478 412.433 71.1874 386.439 124.638 393.992C124.638 393.992 97.2396 427.538 85.6478 412.433Z" fill="#5EBB99"/>
<path d="M56.7848 387.318C56.7848 387.318 15.1598 410.443 27.2785 324.909C27.2785 324.909 80.9636 368.759 56.7848 387.318Z" fill="#5EBB99"/>
<path d="M73.5884 399.144C73.5884 399.144 26.1675 391.884 83.2482 342.414C83.2482 342.414 103.914 400.022 73.5884 399.144Z" fill="#AED8C8" stroke="black" stroke-width="0.585443" stroke-miterlimit="10"/>
<path d="M53.4494 401.31C53.4494 401.31 85.8243 400.373 53.9177 440.183C53.9177 440.183 33.1931 404.471 53.4494 401.31Z" fill="#AED8C8" stroke="black" stroke-width="0.59" stroke-miterlimit="10"/>
<path d="M1.57899 436.612C1.81317 438.193 29.7973 426.835 34.0711 408.276C38.3448 389.718 -6.90993 376.37 1.57899 436.612Z" fill="#AED8C8"/>
<path d="M100.401 410.033L82.3691 421.742" stroke="black" stroke-width="0.59" stroke-miterlimit="10"/>
<path d="M130.433 452.36C132.19 452.477 130.433 413.78 108.83 408.686C87.2276 403.593 88.3985 448.848 130.433 452.36Z" fill="#AED8C8"/>
<path d="M395.836 62.9301C396.261 61.7173 422.404 10.4023 451.339 31.016C480.284 51.6871 455.082 89.4168 455.082 89.4168L395.836 62.9301Z" fill="#5EBB99"/>
<path d="M419.701 245.29L420.404 264.258C420.404 264.258 413.32 269.176 400.967 266.951C400.967 266.951 402.196 251.788 401.494 251.671C400.791 251.554 394.059 250.851 393.707 244.177C393.356 237.562 398.274 233.991 398.274 233.991L397.923 231.18L400.557 231.005C400.557 231.005 403.66 225.326 407.7 224.799C411.739 224.272 424.268 237.854 424.268 237.854C424.268 237.854 428.834 241.601 425.731 244.646C422.687 247.573 420.111 245.699 419.701 245.29Z" fill="#EB990F"/>
<path d="M407.409 224.858C407.409 224.858 408.053 217.774 411.097 217.774C414.142 217.774 414.903 220.935 414.786 222.34C414.786 222.34 423.157 220.701 425.851 227.609C428.544 234.518 426.143 237.269 424.621 237.972C424.621 237.972 421.226 235.806 418.415 239.143C418.415 239.143 415.137 237.328 414.903 234.166C414.669 231.005 412.385 230.595 411.332 230.302C410.219 230.068 407.351 227.492 407.409 224.858Z" fill="#1A1A1A"/>
<path d="M424.093 242.128C424.093 242.128 422.161 240.489 420.521 241.777" stroke="#1A1A1A" stroke-width="0.585443" stroke-miterlimit="10" stroke-linecap="round" stroke-linejoin="round"/>
<path d="M408.871 249.154C408.871 249.154 405.241 252.315 401.787 251.788" stroke="#1A1A1A" stroke-width="0.585443" stroke-miterlimit="10" stroke-linecap="round" stroke-linejoin="round"/>
<path d="M402.724 232.761C403.08 232.761 403.368 232.473 403.368 232.117C403.368 231.761 403.08 231.473 402.724 231.473C402.368 231.473 402.08 231.761 402.08 232.117C402.08 232.473 402.368 232.761 402.724 232.761Z" fill="#1A1A1A"/>
<path d="M405.067 228.487C405.067 228.487 407.175 230.127 406.414 231.532C405.653 232.937 405.36 231.005 404.833 230.361C404.306 229.717 404.365 227.785 405.067 228.487Z" fill="#1A1A1A"/>
<path d="M406.294 234.752C406.294 234.752 403.308 238.03 400.322 235.63" stroke="#1A1A1A" stroke-width="0.585443" stroke-miterlimit="10"/>
<path opacity="0.5" d="M410.158 242.479C411.355 242.479 412.324 241.51 412.324 240.313C412.324 239.117 411.355 238.147 410.158 238.147C408.962 238.147 407.992 239.117 407.992 240.313C407.992 241.51 408.962 242.479 410.158 242.479Z" fill="#FEDFAB"/>
<path d="M358.407 347.039C358.407 347.039 351.908 349.44 342.541 341.829C342.541 341.829 339.731 339.136 336.277 340.541C336.277 340.541 332.062 335.155 330.13 338.433C330.13 338.433 326.149 337.204 326.324 341.478C326.324 341.478 323.514 342.121 324.451 345.224C325.388 348.327 329.486 351.898 329.486 351.898C329.486 351.898 323.983 357.577 334.872 358.514C345.82 359.451 356.475 360.856 356.475 360.856C356.475 360.856 360.046 358.514 358.407 347.039Z" fill="#EB990F"/>
<path d="M351.732 230.361C351.498 230.127 344.122 223.16 344.122 223.16C344.122 223.16 343.77 205.597 340.141 206.826C336.511 208.056 338.677 218.242 335.984 216.662C335.808 216.544 327.554 207.412 324.568 205.655C321.524 203.899 318.421 204.601 319.357 207.529C320.294 210.514 324.685 215.081 327.027 217.54C327.027 217.54 324.275 217.657 324.1 220.701C324.1 220.701 320.997 221.404 321.992 225.15C321.992 225.15 319.299 228.897 322.168 231.532C325.036 234.166 326.149 230.771 326.149 230.771C326.149 230.771 329.72 238.206 336.16 238.206L339.848 243.299L349.625 240.079C349.625 240.079 352.435 233.288 352.376 232.995C352.318 232.703 351.732 230.361 351.732 230.361Z" fill="#EB990F"/>
<path d="M401.554 336.618C401.554 336.618 358.348 345.693 358.407 347.039C358.992 355.704 356.475 360.739 356.475 360.739C425.088 370.984 427.255 347.976 427.255 347.976C436.329 346.22 443.881 338.492 443.881 338.492C440.017 310.508 420.873 269.702 420.873 269.702C420.873 269.702 407.818 279.069 398.1 280.826C398.1 280.826 380.653 322.861 382.468 341.302" fill="#87B4E1"/>
<path d="M398.743 276.904L388.439 303.483L339.848 243.299C339.848 243.299 351.322 237.269 351.732 230.419L398.743 276.904Z" fill="#87B4E1"/>
<path d="M427.254 348.034C427.254 348.034 430.064 323.387 422.336 295.754" stroke="white" stroke-width="0.585443" stroke-miterlimit="10"/>
<path d="M382.408 340.248L407.055 333.633" stroke="white" stroke-width="0.585443" stroke-miterlimit="10"/>
<path d="M399.33 298.33C399.33 298.33 401.145 317.884 401.555 335.33" stroke="white" stroke-width="0.585443" stroke-miterlimit="10"/>
<path d="M366.369 352.894C366.369 352.894 366.603 358.045 365.725 362.026" stroke="white" stroke-width="0.585443" stroke-miterlimit="10"/>
<path d="M357.761 236.333C357.761 236.333 353.722 242.245 350.268 244.177" stroke="white" stroke-width="0.585443" stroke-miterlimit="10"/>
<path d="M347.225 351.137C347.225 351.137 341.195 349.381 339.614 352.894C339.614 352.894 335.048 350.493 329.486 351.84" stroke="white" stroke-width="0.585443" stroke-miterlimit="10" stroke-linecap="round" stroke-linejoin="round"/>
<path d="M343.946 345.4C343.946 345.4 334.637 345.107 332.646 349.674" stroke="white" stroke-width="0.585443" stroke-miterlimit="10" stroke-linecap="round" stroke-linejoin="round"/>
<path d="M341.135 345.4C341.135 345.4 339.027 343.819 336.275 340.541" stroke="white" stroke-width="0.585443" stroke-miterlimit="10" stroke-linecap="round" stroke-linejoin="round"/>
<path d="M336.862 346.395C336.862 346.395 332.002 341.126 330.188 338.433" stroke="white" stroke-width="0.585443" stroke-miterlimit="10" stroke-linecap="round" stroke-linejoin="round"/>
<path d="M333.467 348.386C333.467 348.386 329.603 342.824 326.324 341.478" stroke="white" stroke-width="0.585443" stroke-miterlimit="10" stroke-linecap="round" stroke-linejoin="round"/>
<path d="M336.161 216.662C336.161 216.662 335.751 218.067 334.287 219.413" stroke="white" stroke-width="0.585443" stroke-miterlimit="10" stroke-linecap="round" stroke-linejoin="round"/>
<path d="M327.027 217.481C327.027 217.481 333.408 220.291 334.638 223.277C335.867 226.263 334.345 229.424 330.481 227.2C326.617 225.033 324.158 220.643 324.158 220.643" stroke="white" stroke-width="0.585443" stroke-miterlimit="10" stroke-linecap="round" stroke-linejoin="round"/>
<path d="M321.992 225.092C322.168 225.209 324.393 228.487 326.442 229.366C328.491 230.244 331.125 230.302 330.423 227.199" stroke="white" stroke-width="0.585443" stroke-miterlimit="10" stroke-linecap="round" stroke-linejoin="round"/>
<path d="M336.158 238.147C336.158 238.147 340.315 237.093 342.364 234.459" stroke="white" stroke-width="0.585443" stroke-miterlimit="10" stroke-linecap="round" stroke-linejoin="round"/>
<path d="M78.5746 358.892C76.2069 368.464 71.4711 387.608 71.4711 387.608M33.2825 343.795L47.4921 375.766M19.9619 402.705L9.30469 425.204M56.6687 408.626L54.5965 428.46M92.7847 406.554L110.547 398.561M106.402 420.763L120.612 441.486" stroke="#3A6AB2" stroke-width="0.59"/>
</svg>
