<svg width="316" height="336" viewBox="0 0 316 336" fill="none" xmlns="http://www.w3.org/2000/svg">
<g opacity="0.8">
<path d="M198.7 85.6574C191.359 90.9204 192.055 103.128 193.32 108.573C195.117 122.097 201.884 123.924 207.377 125.716C212.871 127.508 215.909 133.374 230.721 128.402C241.135 124.606 249.538 113.676 248.373 105.289C247.441 98.5793 247.14 95.3129 247.105 94.5184C247.201 83.7648 243.149 81.1846 239.519 78.485C235.889 75.7854 232.703 76.5389 226.33 73.2915C219.957 70.0442 214.753 73.0278 211.047 74.5552C207.341 76.0825 207.877 79.0785 198.7 85.6574Z" stroke="#EAEAEA" stroke-width="2" stroke-linejoin="round"/>
<circle cx="221.106" cy="100.387" r="20.6074" transform="rotate(-22.3978 221.106 100.387)" stroke="#EAEAEA"/>
<circle cx="221.107" cy="100.387" r="19.394" transform="rotate(-22.3978 221.107 100.387)" stroke="#EAEAEA"/>
<path d="M209.174 122.883C206.225 122.376 199.886 120.52 198.122 117.151C196.357 113.782 195.993 110.998 196.031 110.027C196.611 112.231 198.06 116.5 199.222 115.946C200.675 115.253 194.435 104.672 194.692 102.217C194.948 99.7627 195.992 96.937 196.358 96.4573C196.724 95.9777 195.374 101.936 197.337 107.61C199.299 113.283 200.466 119.191 209.174 122.883ZM198.74 107.595C198.85 110.368 200.311 116.605 205.283 119.367C203.132 117.074 198.813 111.511 198.74 107.595ZM214.481 125.159C214.691 125.213 224.395 129.153 233.181 124.029L232.9 123.346C230.43 124.724 223.288 127.016 214.481 125.159ZM235.561 121.826L236.036 122.523C238.428 120.88 243.561 116.547 244.956 112.365C246.7 107.136 247.63 105.86 247.178 102.711C246.824 104.094 246.05 107.132 245.784 108.218C245.451 109.577 245.196 109.87 244.896 109.712C244.596 109.553 245.626 103.163 245.484 101.906C245.342 100.65 245.104 95.6274 244.201 94.1205C243.298 92.6136 245.187 101.982 244.347 105.757C243.507 109.533 242.707 114.09 239.363 117.488C236.688 120.206 235.714 121.513 235.561 121.826ZM210.258 79.4621C210.497 79.4152 218.683 74.9565 226.479 77.3238C234.275 79.6911 239.364 82.7609 242.411 90.0302C241.547 86.5114 237.43 78.8457 227.88 76.3334C218.329 73.8211 212.153 77.3724 210.258 79.4621ZM211.966 76.6141C212.112 76.5235 217.614 72.9128 220.339 73.896C218.955 74.271 217.785 75.0301 217.373 75.3628C221.097 73.8524 226.726 74.9982 229.074 75.7599C228.176 75.184 225.323 73.8567 221.102 73.1543C215.826 72.2763 212.112 76.5234 211.966 76.6141Z" stroke="#EAEAEA" stroke-width="0.5" stroke-linejoin="round"/>
<path fill-rule="evenodd" clip-rule="evenodd" d="M208.451 91.8302C207.943 92.0395 207.699 92.6191 207.904 93.1285L208.56 94.7571L208.56 94.7571L208.563 94.7644L216.836 114.838C217.047 115.349 217.631 115.592 218.142 115.382L223.636 113.118C224.01 112.964 224.254 112.599 224.255 112.195C224.255 111.791 224.012 111.425 223.639 111.27L222.604 110.839L216.546 96.1403L218.947 95.151L221.35 94.1604L227.408 108.859L226.977 109.894C226.822 110.268 226.907 110.698 227.192 110.984C227.478 111.271 227.908 111.357 228.281 111.203L233.775 108.939C234.286 108.728 234.529 108.144 234.319 107.633L226.046 87.5593L226.043 87.552L226.043 87.552L225.361 85.934C225.148 85.4279 224.566 85.1886 224.058 85.3978L216.256 88.6134L208.451 91.8302ZM217.015 90.4637L210.13 93.3013L210.414 94.006L218.304 113.152L220.949 112.062C220.936 112.037 220.924 112.011 220.913 111.984L214.316 95.9778C214.106 95.4672 214.349 94.8827 214.86 94.6723L218.188 93.3007L221.513 91.9303C222.023 91.7198 222.608 91.9632 222.818 92.4738L229.415 108.48C229.426 108.507 229.436 108.534 229.444 108.561L232.089 107.471L224.198 88.3251L223.903 87.625L217.015 90.4637Z" fill="#EAEAEA"/>
</g>
<g opacity="0.8">
<path d="M48.8815 299.058C41.8069 304.674 43.0988 316.832 44.6291 322.209C47.0865 335.63 53.9343 337.123 59.5089 338.644C65.0834 340.164 68.4048 345.875 82.9564 340.184C93.1715 335.883 101.03 324.555 99.456 316.235C98.1967 309.579 97.7355 306.331 97.6623 305.539C97.2313 294.794 93.0578 292.415 89.3 289.896C85.5423 287.378 82.3972 288.286 75.8728 285.355C69.3485 282.423 64.2971 285.658 60.6702 287.365C57.0434 289.072 57.7248 292.038 48.8815 299.058Z" stroke="#EAEAEA" stroke-width="2" stroke-linejoin="round"/>
<circle cx="71.982" cy="312.673" r="20.6074" transform="rotate(-25.203 71.982 312.673)" stroke="#EAEAEA"/>
<circle cx="71.9821" cy="312.673" r="19.394" transform="rotate(-25.203 71.9821 312.673)" stroke="#EAEAEA"/>
<path d="M61.1651 335.726C58.1947 335.364 51.7721 333.821 49.845 330.542C47.918 327.263 47.4177 324.5 47.4084 323.529C48.095 325.701 49.7517 329.895 50.8853 329.284C52.3022 328.521 45.552 318.258 45.6883 315.794C45.8246 313.33 46.7284 310.456 47.0705 309.959C47.4126 309.462 46.3564 315.48 48.5942 321.05C50.832 326.621 52.2861 332.465 61.1651 335.726ZM49.995 320.967C50.2401 323.732 52.0055 329.89 57.1059 332.405C54.8458 330.22 50.2596 324.875 49.995 320.967ZM66.5766 337.74C66.7893 337.783 76.6738 341.244 85.1988 335.696L84.8844 335.027C82.485 336.525 75.4643 339.163 66.5766 337.74ZM87.4687 333.379L87.9773 334.052C90.2857 332.293 95.1999 327.715 96.3888 323.469C97.875 318.162 98.7418 316.842 98.136 313.719C97.8502 315.117 97.2254 318.189 97.0128 319.287C96.747 320.661 96.5066 320.966 96.1992 320.822C95.8917 320.679 96.6081 314.246 96.4046 312.998C96.2012 311.749 95.7179 306.745 94.7423 305.284C93.7668 303.823 96.1111 313.088 95.457 316.9C94.803 320.711 94.2275 325.302 91.0538 328.86C88.5149 331.706 87.6058 333.059 87.4687 333.379ZM60.1225 292.304C60.359 292.246 68.3171 287.392 76.2195 289.375C84.1218 291.358 89.3545 294.175 92.7542 301.286C91.7184 297.814 87.2314 290.359 77.5695 288.317C67.9077 286.275 61.9124 290.124 60.1225 292.304ZM61.6893 289.376C61.8305 289.278 67.1493 285.403 69.9192 286.251C68.5553 286.694 67.4232 287.509 67.0277 287.862C70.6735 286.171 76.3516 287.04 78.735 287.686C77.8092 287.154 74.895 285.968 70.6446 285.473C65.3317 284.855 61.8305 289.278 61.6893 289.376Z" stroke="#EAEAEA" stroke-width="0.5" stroke-linejoin="round"/>
<path fill-rule="evenodd" clip-rule="evenodd" d="M74.1968 297.558C74.6937 297.324 75.2862 297.534 75.524 298.029L76.2843 299.612L76.2843 299.612L76.2877 299.619L85.5332 319.264C85.7684 319.764 85.5539 320.36 85.0542 320.595L79.6777 323.125C79.3117 323.297 78.8781 323.232 78.5789 322.96C78.2797 322.688 78.174 322.262 78.311 321.882L78.6907 320.827L71.9208 306.442L69.5715 307.548L69.5715 307.548L67.2194 308.655L73.9892 323.04L75.044 323.419C75.4246 323.556 75.6851 323.909 75.7042 324.313C75.7233 324.717 75.4971 325.093 75.1312 325.265L69.7546 327.795C69.2549 328.03 68.6592 327.816 68.424 327.316L59.1785 307.671L59.1751 307.664L59.1751 307.664L58.4401 306.07C58.2102 305.571 58.4255 304.98 58.9224 304.746L66.5582 301.152L66.5582 301.152L74.1968 297.558ZM67.4127 302.961L67.4127 302.961L60.6717 306.133L60.9898 306.823L69.8078 325.56L72.3958 324.342C72.3815 324.317 72.3682 324.292 72.356 324.266L64.9839 308.602C64.7487 308.102 64.9632 307.506 65.4629 307.271L68.717 305.74L68.717 305.74L71.9739 304.207C72.4737 303.972 73.0694 304.186 73.3046 304.686L80.6767 320.35C80.6889 320.376 80.6999 320.402 80.7098 320.429L83.2978 319.211L74.4798 300.474L74.1508 299.79L67.4127 302.961Z" fill="#EAEAEA"/>
</g>
<g opacity="0.8">
<path d="M53.4559 196.212C44.6562 198.251 40.6084 209.788 39.6844 215.302C36.1483 228.479 41.6937 232.765 46.0772 236.53C50.4607 240.295 51.0114 246.878 66.5975 247.979C77.6704 248.474 89.628 241.612 91.7746 233.421C93.492 226.868 94.4683 223.736 94.7419 222.99C98.9613 213.098 96.2114 209.159 93.8972 205.272C91.583 201.385 88.3522 200.857 83.7158 195.41C79.0795 189.964 73.1289 190.719 69.1205 190.705C65.1121 190.692 64.4554 193.663 53.4559 196.212Z" stroke="#EAEAEA" stroke-width="2" stroke-linejoin="round"/>
<circle cx="68.4835" cy="218.42" r="20.6074" transform="rotate(0.19557 68.4835 218.42)" stroke="#EAEAEA"/>
<circle cx="68.4837" cy="218.42" r="19.394" transform="rotate(0.19557 68.4837 218.42)" stroke="#EAEAEA"/>
<path d="M48.8246 234.605C46.2965 233.004 41.1569 228.855 40.8223 225.066C40.4878 221.278 41.2209 218.567 41.6293 217.686C41.3176 219.943 41.0156 224.441 42.3014 224.376C43.9086 224.295 42.2129 212.128 43.3929 209.961C44.573 207.793 46.6218 205.585 47.144 205.283C47.6662 204.981 44.1313 209.964 43.7634 215.956C43.3955 221.948 42.2026 227.851 48.8246 234.605ZM45.0645 216.481C44.1001 219.084 43.0536 225.404 46.5823 229.863C45.4777 226.921 43.6275 220.125 45.0645 216.481ZM52.8496 238.745C53.0228 238.876 60.4678 246.241 70.5485 244.885L70.551 244.147C67.7414 244.471 60.2676 243.843 52.8496 238.745ZM73.5925 243.767L73.7634 244.592C76.603 243.994 83.0058 241.966 85.901 238.64C89.52 234.483 90.8692 233.663 91.6614 230.582C90.8034 231.723 88.9215 234.229 88.2583 235.13C87.4293 236.257 87.0812 236.429 86.865 236.168C86.6487 235.907 90.0551 230.403 90.4067 229.188C90.7583 227.973 92.4683 223.245 92.2136 221.507C91.9589 219.768 90.1028 229.143 87.8771 232.306C85.6513 235.469 83.1624 239.369 78.7695 241.222C75.2552 242.704 73.8539 243.536 73.5925 243.767ZM66.5071 194.933C66.7457 194.981 76.0166 194.01 82.3047 199.19C88.5927 204.371 92.1114 209.16 92.1323 217.042C92.6859 213.462 91.8301 204.803 83.9779 198.814C76.1257 192.825 69.0589 193.731 66.5071 194.933ZM69.1783 192.959C69.3477 192.932 75.8147 191.712 77.9529 193.667C76.5312 193.481 75.1587 193.732 74.6502 193.881C78.6689 193.918 83.4255 197.138 85.3015 198.744C84.693 197.867 82.5693 195.545 78.942 193.275C74.408 190.437 69.3477 192.932 69.1783 192.959Z" stroke="#EAEAEA" stroke-width="0.5" stroke-linejoin="round"/>
<path fill-rule="evenodd" clip-rule="evenodd" d="M60.0863 205.657C59.5371 205.655 59.0892 206.097 59.083 206.646L59.063 208.401L59.063 208.401L59.063 208.409L58.9889 230.121C58.987 230.673 59.4332 231.123 59.9855 231.125L65.9276 231.145C66.3321 231.146 66.6975 230.904 66.8536 230.531C67.0097 230.158 66.9256 229.727 66.6405 229.44L65.8506 228.645L65.9048 212.747L68.5044 212.756L71.1009 212.764L71.0467 228.663L70.2513 229.453C69.9643 229.738 69.8773 230.167 70.0308 230.542C70.1843 230.916 70.5481 231.161 70.9525 231.162L76.8947 231.182C77.447 231.184 77.8962 230.738 77.8981 230.186L77.9722 208.474L77.9722 208.466L77.9722 208.466L77.9643 206.71C77.9618 206.161 77.5169 205.717 76.9677 205.715L68.5285 205.686L68.5255 205.686L60.0863 205.657ZM68.5217 207.686L61.0716 207.66L61.063 208.42L60.9923 229.128L63.8525 229.138C63.8502 229.109 63.8491 229.081 63.8492 229.052L63.9082 211.74C63.9101 211.188 64.3594 210.741 64.9117 210.743L68.5082 210.756L72.1077 210.768C72.66 210.77 73.1062 211.219 73.1043 211.771L73.0452 229.084C73.0451 229.112 73.0438 229.141 73.0413 229.169L75.9015 229.179L75.9722 208.471L75.9688 207.711L68.5217 207.686Z" fill="#EAEAEA"/>
</g>
<g opacity="0.8">
<path d="M172.792 234.446C163.851 233.165 155.906 242.459 153.051 247.266C144.99 258.273 148.611 264.274 151.337 269.369C154.063 274.464 152.196 280.801 166.33 287.462C176.475 291.927 190.104 289.852 195.067 282.991C199.037 277.502 201.08 274.935 201.605 274.338C209.115 266.641 207.975 261.974 207.223 257.513C206.47 253.053 203.649 251.392 201.295 244.638C198.942 237.883 193.12 236.437 189.388 234.975C185.656 233.513 183.969 236.046 172.792 234.446Z" stroke="#EAEAEA" stroke-width="2" stroke-linejoin="round"/>
<circle cx="178.775" cy="260.584" r="20.6074" transform="rotate(21.3897 178.775 260.584)" stroke="#EAEAEA"/>
<circle cx="178.775" cy="260.584" r="19.394" transform="rotate(21.3897 178.775 260.584)" stroke="#EAEAEA"/>
<path d="M154.594 268.567C152.816 266.161 149.524 260.434 150.582 256.781C151.639 253.128 153.303 250.866 154.002 250.191C152.895 252.183 150.988 256.268 152.21 256.672C153.738 257.177 156.555 245.221 158.439 243.627C160.323 242.032 163.032 240.714 163.628 240.621C164.224 240.528 159.127 243.896 156.617 249.35C154.108 254.804 150.862 259.876 154.594 268.567ZM157.64 250.31C155.8 252.388 152.54 257.902 154.218 263.336C154.252 260.193 154.984 253.188 157.64 250.31ZM156.85 273.882C156.964 274.067 161.243 283.626 171.132 286.006L171.401 285.319C168.665 284.605 161.923 281.317 156.85 273.882ZM174.374 286.064L174.235 286.895C177.099 287.364 183.802 287.788 187.704 285.734C192.581 283.166 194.135 282.889 195.988 280.303C194.775 281.056 192.115 282.713 191.17 283.314C189.99 284.064 189.603 284.099 189.496 283.777C189.389 283.456 194.555 279.555 195.322 278.55C196.089 277.544 199.393 273.754 199.784 272.041C200.175 270.329 195.055 278.398 191.836 280.543C188.617 282.687 184.887 285.424 180.121 285.563C176.309 285.674 174.702 285.943 174.374 286.064ZM185.423 237.971C185.628 238.103 194.623 240.549 198.613 247.652C202.603 254.756 204.152 260.493 201.322 267.85C203.133 264.711 205.465 256.328 200.309 247.906C195.153 239.484 188.237 237.773 185.423 237.971ZM188.627 237.097C188.795 237.133 195.266 238.333 196.552 240.929C195.294 240.242 193.924 239.98 193.396 239.935C197.129 241.422 200.4 246.144 201.569 248.319C201.318 247.281 200.177 244.349 197.616 240.921C194.415 236.636 188.795 237.133 188.627 237.097Z" stroke="#EAEAEA" stroke-width="0.5" stroke-linejoin="round"/>
<path fill-rule="evenodd" clip-rule="evenodd" d="M175.56 245.649C175.048 245.449 174.471 245.698 174.267 246.208L173.613 247.838L173.613 247.838L173.61 247.845L165.692 268.062C165.49 268.576 165.744 269.156 166.258 269.357L171.791 271.525C172.168 271.672 172.596 271.578 172.877 271.287C173.157 270.995 173.234 270.564 173.072 270.193L172.623 269.166L178.421 254.363L180.839 255.31L180.839 255.31L183.26 256.258L177.461 271.061L176.434 271.51C176.064 271.672 175.827 272.041 175.835 272.445C175.843 272.85 176.093 273.21 176.47 273.357L182.003 275.524C182.517 275.726 183.097 275.472 183.299 274.958L191.217 254.742L191.22 254.734L191.22 254.734L191.848 253.094C192.044 252.581 191.79 252.006 191.278 251.806L183.42 248.728L175.56 245.649ZM182.688 250.589L175.754 247.873L175.471 248.578L167.919 267.86L170.582 268.903C170.59 268.876 170.599 268.849 170.61 268.822L176.924 252.702C177.125 252.188 177.705 251.934 178.22 252.136L181.571 253.448L181.571 253.448L184.92 254.76C185.434 254.962 185.688 255.542 185.487 256.056L179.173 272.176C179.162 272.203 179.151 272.229 179.138 272.254L181.801 273.297L189.354 254.016L189.625 253.306L182.688 250.589L182.688 250.589Z" fill="#EAEAEA"/>
</g>
<g opacity="0.8">
<path d="M230.923 291.715C223.582 296.978 224.277 309.185 225.543 314.631C227.34 328.155 234.107 329.981 239.6 331.773C245.094 333.565 248.132 339.432 262.944 334.46C273.358 330.663 281.761 319.734 280.596 311.346C279.664 304.637 279.363 301.37 279.328 300.576C279.424 289.822 275.372 287.242 271.742 284.542C268.112 281.843 264.926 282.596 258.553 279.349C252.18 276.102 246.976 279.085 243.27 280.613C239.564 282.14 240.099 285.136 230.923 291.715Z" stroke="#EAEAEA" stroke-width="2" stroke-linejoin="round"/>
<circle cx="253.329" cy="306.445" r="20.6074" transform="rotate(-22.3978 253.329 306.445)" stroke="#EAEAEA"/>
<circle cx="253.329" cy="306.445" r="19.394" transform="rotate(-22.3978 253.329 306.445)" stroke="#EAEAEA"/>
<path d="M241.397 328.941C238.448 328.434 232.109 326.577 230.345 323.208C228.58 319.839 228.216 317.055 228.254 316.084C228.834 318.288 230.283 322.557 231.445 322.003C232.898 321.31 226.658 310.729 226.915 308.275C227.171 305.82 228.215 302.994 228.581 302.515C228.947 302.035 227.597 307.993 229.56 313.667C231.522 319.341 232.689 325.249 241.397 328.941ZM230.963 313.652C231.073 316.426 232.534 322.663 237.506 325.424C235.355 323.132 231.036 317.568 230.963 313.652ZM246.704 331.216C246.914 331.27 256.617 335.21 265.404 330.086L265.122 329.403C262.653 330.781 255.511 333.073 246.704 331.216ZM267.784 327.884L268.259 328.58C270.651 326.937 275.783 322.605 277.179 318.422C278.923 313.194 279.853 311.918 279.401 308.769C279.047 310.152 278.273 313.189 278.007 314.276C277.674 315.634 277.419 315.927 277.119 315.769C276.819 315.611 277.849 309.22 277.707 307.964C277.565 306.707 277.327 301.685 276.424 300.178C275.521 298.671 277.409 308.039 276.57 311.815C275.73 315.59 274.93 320.147 271.586 323.545C268.911 326.264 267.937 327.57 267.784 327.884ZM242.481 285.519C242.72 285.473 250.906 281.014 258.702 283.381C266.498 285.749 271.587 288.818 274.634 296.088C273.77 292.569 269.653 284.903 260.102 282.391C250.552 279.879 244.376 283.43 242.481 285.519ZM244.189 282.671C244.335 282.581 249.837 278.97 252.562 279.953C251.178 280.328 250.008 281.088 249.595 281.42C253.32 279.91 258.948 281.056 261.297 281.817C260.399 281.241 257.546 279.914 253.325 279.212C248.049 278.334 244.335 282.581 244.189 282.671Z" stroke="#EAEAEA" stroke-width="0.5" stroke-linejoin="round"/>
<path fill-rule="evenodd" clip-rule="evenodd" d="M240.673 297.888C240.166 298.097 239.922 298.676 240.127 299.186L240.783 300.814L240.783 300.814L240.786 300.822L249.059 320.896C249.269 321.406 249.854 321.65 250.365 321.439L255.858 319.175C256.232 319.021 256.477 318.657 256.477 318.252C256.478 317.848 256.235 317.483 255.862 317.327L254.827 316.897L248.769 302.198L251.17 301.208L253.573 300.218L259.631 314.917L259.2 315.952C259.045 316.325 259.13 316.755 259.415 317.042C259.7 317.328 260.13 317.415 260.504 317.26L265.998 314.996C266.509 314.786 266.752 314.201 266.542 313.691L258.269 293.617L258.266 293.609L258.266 293.609L257.584 291.991C257.371 291.485 256.789 291.246 256.281 291.455L248.479 294.671L240.673 297.888ZM249.238 296.521L242.353 299.359L242.637 300.063L250.527 319.209L253.172 318.119C253.159 318.094 253.146 318.068 253.136 318.042L246.539 302.035C246.329 301.525 246.572 300.94 247.082 300.73L250.411 299.358L253.736 297.988C254.246 297.777 254.831 298.021 255.041 298.531L261.638 314.538C261.649 314.564 261.659 314.591 261.667 314.618L264.312 313.528L256.421 294.382L256.126 293.682L249.238 296.521Z" fill="#EAEAEA"/>
</g>
<g opacity="0.8">
<path d="M312.615 228.084C303.624 227.21 296.108 236.854 293.474 241.785C285.92 253.147 289.809 258.977 292.763 263.943C295.717 268.91 294.139 275.325 308.561 281.339C318.897 285.34 332.419 282.65 337.066 275.571C340.783 269.908 342.707 267.251 343.205 266.631C350.359 258.601 349.009 253.991 348.055 249.569C347.101 245.147 344.207 243.616 341.55 236.975C338.893 230.334 333.012 229.152 329.217 227.861C325.423 226.57 323.853 229.177 312.615 228.084Z" stroke="#EAEAEA" stroke-width="2" stroke-linejoin="round"/>
<circle cx="319.775" cy="253.925" r="20.6074" transform="rotate(18.7932 319.775 253.925)" stroke="#EAEAEA"/>
<circle cx="319.775" cy="253.925" r="19.394" transform="rotate(18.7932 319.775 253.925)" stroke="#EAEAEA"/>
<path d="M295.981 262.995C294.096 260.672 290.548 255.1 291.439 251.403C292.33 247.705 293.889 245.37 294.557 244.665C293.542 246.705 291.821 250.872 293.06 251.221C294.61 251.656 296.883 239.584 298.692 237.906C300.502 236.228 303.148 234.789 303.739 234.669C304.331 234.549 299.391 238.144 297.132 243.706C294.872 249.268 291.859 254.482 295.981 262.995ZM298.197 244.619C296.453 246.778 293.446 252.434 295.368 257.786C295.259 254.645 295.673 247.614 298.197 244.619ZM298.475 268.203C298.598 268.382 303.305 277.737 313.292 279.667L313.53 278.968C310.764 278.379 303.88 275.4 298.475 268.203ZM316.534 279.578L316.432 280.415C319.314 280.753 326.03 280.873 329.834 278.644C334.59 275.859 336.131 275.511 337.864 272.844C336.687 273.651 334.104 275.427 333.188 276.07C332.043 276.873 331.658 276.925 331.536 276.609C331.415 276.292 336.399 272.162 337.119 271.122C337.84 270.083 340.969 266.147 341.282 264.419C341.595 262.69 336.846 270.983 333.727 273.271C330.609 275.559 327.006 278.462 322.252 278.817C318.448 279.101 316.855 279.442 316.534 279.578ZM325.392 231.034C325.603 231.156 334.7 233.192 339.007 240.108C343.315 247.023 345.122 252.684 342.628 260.162C344.295 256.944 346.245 248.465 340.713 240.284C335.181 232.104 328.194 230.709 325.392 231.034ZM328.553 230.016C328.723 230.044 335.241 230.95 336.644 233.485C335.356 232.855 333.975 232.656 333.446 232.635C337.243 233.951 340.724 238.52 341.99 240.64C341.693 239.615 340.421 236.737 337.707 233.429C334.314 229.293 328.723 230.044 328.553 230.016Z" stroke="#EAEAEA" stroke-width="0.5" stroke-linejoin="round"/>
<path fill-rule="evenodd" clip-rule="evenodd" d="M331.868 244.589C332.388 244.766 332.668 245.329 332.495 245.851L331.943 247.517L331.943 247.517L331.94 247.525L324.946 268.079C324.768 268.602 324.2 268.882 323.677 268.704L318.052 266.789C317.669 266.659 317.402 266.311 317.376 265.907C317.35 265.504 317.569 265.124 317.932 264.945L318.938 264.45L324.06 249.4L321.601 248.563L319.14 247.726L314.019 262.776L314.514 263.782C314.692 264.145 314.635 264.58 314.368 264.884C314.101 265.188 313.677 265.301 313.294 265.17L307.669 263.256C307.146 263.078 306.867 262.51 307.045 261.987L314.039 241.433L314.042 241.425L314.042 241.425L314.621 239.768C314.802 239.249 315.367 238.974 315.887 239.151L323.876 241.869L331.868 244.589ZM323.235 243.764L316.182 241.364L315.931 242.081L309.26 261.685L311.968 262.606C311.975 262.579 311.983 262.551 311.992 262.524L317.569 246.135C317.747 245.612 318.315 245.332 318.838 245.51L322.243 246.669L325.651 247.829C326.173 248.006 326.453 248.575 326.275 249.097L320.698 265.487C320.689 265.514 320.678 265.541 320.667 265.567L323.375 266.488L330.046 246.884L330.285 246.163L323.235 243.764Z" fill="#EAEAEA"/>
</g>
<g opacity="0.8">
<path d="M16.6586 93.0004C9.58398 98.6165 10.8759 110.775 12.4062 116.152C14.8636 129.572 21.7114 131.065 27.286 132.586C32.8605 134.107 36.1819 139.818 50.7335 134.127C60.9486 129.825 68.8072 118.498 67.2331 110.178C65.9738 103.521 65.5126 100.274 65.4394 99.4818C65.0084 88.7364 60.8349 86.3577 57.0771 83.8389C53.3194 81.3202 50.1743 82.2288 43.6499 79.2972C37.1256 76.3656 32.0742 79.6004 28.4473 81.3073C24.8205 83.0142 25.5019 85.9804 16.6586 93.0004Z" stroke="#EAEAEA" stroke-width="2" stroke-linejoin="round"/>
<circle cx="39.7591" cy="106.616" r="20.6074" transform="rotate(-25.203 39.7591 106.616)" stroke="#EAEAEA"/>
<circle cx="39.7592" cy="106.616" r="19.394" transform="rotate(-25.203 39.7592 106.616)" stroke="#EAEAEA"/>
<path d="M28.9422 129.669C25.9718 129.307 19.5492 127.763 17.6221 124.484C15.6951 121.206 15.1948 118.443 15.1855 117.471C15.8721 119.644 17.5288 123.837 18.6624 123.227C20.0793 122.464 13.3291 112.201 13.4654 109.737C13.6017 107.272 14.5055 104.399 14.8476 103.902C15.1897 103.405 14.1335 109.422 16.3713 114.993C18.6091 120.564 20.0632 126.408 28.9422 129.669ZM17.7721 114.91C18.0172 117.674 19.7826 123.833 24.883 126.347C22.6229 124.163 18.0367 118.817 17.7721 114.91ZM34.3537 131.682C34.5664 131.726 44.4509 135.186 52.9759 129.638L52.6615 128.97C50.2621 130.467 43.2414 133.106 34.3537 131.682ZM55.2458 127.322L55.7544 127.995C58.0628 126.236 62.977 121.658 64.1659 117.412C65.6521 112.104 66.5189 110.784 65.9131 107.661C65.6273 109.06 65.0025 112.132 64.7899 113.23C64.5241 114.603 64.2837 114.908 63.9763 114.765C63.6688 114.622 64.3852 108.188 64.1817 106.94C63.9783 105.692 63.495 100.687 62.5194 99.2265C61.5439 97.7656 63.8882 107.03 63.2341 110.842C62.5801 114.654 62.0046 119.245 58.8309 122.803C56.292 125.649 55.3829 127.001 55.2458 127.322ZM27.8996 86.2469C28.1361 86.1884 36.0942 81.3344 43.9966 83.3173C51.8989 85.3003 57.1316 88.1173 60.5313 95.2287C59.4955 91.7565 55.0085 84.3014 45.3466 82.2596C35.6848 80.2177 29.6895 84.067 27.8996 86.2469ZM29.4664 83.3187C29.6076 83.2211 34.9264 79.3455 37.6963 80.1941C36.3324 80.6364 35.2003 81.4519 34.8048 81.8044C38.4506 80.1135 44.1287 80.9824 46.5121 81.6283C45.5863 81.0971 42.6721 79.9109 38.4217 79.416C33.1088 78.7973 29.6076 83.221 29.4664 83.3187Z" stroke="#EAEAEA" stroke-width="0.5" stroke-linejoin="round"/>
<path fill-rule="evenodd" clip-rule="evenodd" d="M41.9738 91.5001C42.4707 91.2663 43.0632 91.4769 43.301 91.9719L44.0613 93.5546L44.0613 93.5546L44.0647 93.5618L53.3102 113.207C53.5454 113.707 53.3309 114.302 52.8312 114.537L47.4547 117.068C47.0887 117.24 46.655 117.175 46.3559 116.903C46.0567 116.63 45.951 116.205 46.088 115.824L46.4676 114.77L39.6978 100.385L37.3485 101.49L37.3485 101.49L34.9963 102.597L41.7662 116.982L42.821 117.362C43.2016 117.499 43.4621 117.852 43.4812 118.256C43.5003 118.66 43.2741 119.035 42.9081 119.208L37.5316 121.738C37.0319 121.973 36.4362 121.759 36.201 121.259L26.9555 101.614L26.9521 101.607L26.9521 101.607L26.2171 100.012C25.9872 99.5134 26.2025 98.9226 26.6994 98.6887L34.3352 95.0951L34.3352 95.0951L41.9738 91.5001ZM35.1897 96.9034L35.1897 96.9034L28.4487 100.076L28.7668 100.766L37.5848 119.502L40.1728 118.284C40.1585 118.26 40.1452 118.235 40.133 118.209L32.7609 102.544C32.5257 102.045 32.7402 101.449 33.2399 101.214L36.494 99.6822L36.494 99.6821L39.7509 98.1493C40.2506 97.9142 40.8464 98.1286 41.0816 98.6283L48.4536 114.293C48.4658 114.319 48.4769 114.345 48.4868 114.372L51.0747 113.154L42.2567 94.417L41.9278 93.7322L35.1897 96.9034Z" fill="#EAEAEA"/>
</g>
<g opacity="0.8">
<path d="M21.233 -9.84536C12.4333 -7.80653 8.3855 3.73085 7.46154 9.24469C3.92536 22.4217 9.47079 26.7076 13.8543 30.4724C18.2378 34.2372 18.7885 40.821 34.3746 41.9213C45.4475 42.4167 57.4051 35.5546 59.5517 27.3635C61.2691 20.8107 62.2454 17.679 62.519 16.9323C66.7384 7.04061 63.9885 3.10171 61.6743 -0.785326C59.3601 -4.67236 56.1293 -5.2006 51.4929 -10.6472C46.8566 -16.0938 40.906 -15.3383 36.8976 -15.352C32.8892 -15.3657 32.2325 -12.3939 21.233 -9.84536Z" stroke="#EAEAEA" stroke-width="2" stroke-linejoin="round"/>
<circle cx="36.2606" cy="12.3623" r="20.6074" transform="rotate(0.19557 36.2606 12.3623)" stroke="#EAEAEA"/>
<circle cx="36.2608" cy="12.3624" r="19.394" transform="rotate(0.19557 36.2608 12.3624)" stroke="#EAEAEA"/>
<path d="M16.6017 28.5476C14.0736 26.9465 8.93395 22.7972 8.59944 19.0089C8.26494 15.2205 8.99804 12.51 9.40641 11.6283C9.09469 13.8857 8.7927 18.3841 10.0785 18.319C11.6857 18.2376 9.99 6.07112 11.17 3.90359C12.3501 1.73606 14.3989 -0.471927 14.9211 -0.774163C15.4433 -1.0764 11.9084 3.90613 11.5405 9.89838C11.1726 15.8906 9.97972 21.7931 16.6017 28.5476ZM12.8416 10.424C11.8772 13.0266 10.8307 19.3466 14.3594 23.806C13.2548 20.8634 11.4046 14.0673 12.8416 10.424ZM20.6267 32.6873C20.7999 32.8182 28.2449 40.1835 38.3256 38.8281L38.3281 38.0898C35.5185 38.4132 28.0447 37.7854 20.6267 32.6873ZM41.3696 37.7093L41.5405 38.5351C44.3801 37.9367 50.7829 35.9086 53.6781 32.583C57.2971 28.426 58.6463 27.6054 59.4385 24.5245C58.5805 25.6652 56.6986 28.172 56.0354 29.0731C55.2064 30.1995 54.8583 30.372 54.6421 30.1107C54.4258 29.8494 57.8322 24.3452 58.1838 23.1304C58.5354 21.9155 60.2454 17.1873 59.9907 15.4492C59.736 13.7111 57.8799 23.0859 55.6542 26.2488C53.4284 29.4117 50.9395 33.312 46.5466 35.1645C43.0323 36.6466 41.631 37.4785 41.3696 37.7093ZM34.2842 -11.1247C34.5228 -11.0761 43.7937 -12.0477 50.0818 -6.86698C56.3698 -1.68626 59.8885 3.10284 59.9094 10.9851C60.463 7.40418 59.6072 -1.25483 51.755 -7.24343C43.9028 -13.232 36.836 -12.3262 34.2842 -11.1247ZM36.9554 -13.0979C37.1248 -13.1255 43.5918 -14.3452 45.73 -12.3906C44.3083 -12.5761 42.9358 -12.3249 42.4273 -12.1761C46.446 -12.1399 51.2026 -8.91949 53.0786 -7.31384C52.4701 -8.1908 50.3464 -10.5122 46.7191 -12.7824C42.1851 -15.62 37.1248 -13.1256 36.9554 -13.0979Z" stroke="#EAEAEA" stroke-width="0.5" stroke-linejoin="round"/>
<path fill-rule="evenodd" clip-rule="evenodd" d="M27.8633 -0.400256C27.3141 -0.402131 26.8662 0.0392366 26.8599 0.588389L26.84 2.34408L26.84 2.34408L26.84 2.35202L26.7658 24.0638C26.764 24.6161 27.2101 25.0653 27.7624 25.0672L33.7046 25.0875C34.1091 25.0889 34.4745 24.8465 34.6306 24.4733C34.7866 24.1002 34.7025 23.6698 34.4175 23.3828L33.6275 22.5874L33.6818 6.68933L36.2814 6.6982L38.8779 6.70707L38.8236 22.6051L38.0282 23.3951C37.7413 23.6802 37.6542 24.11 37.8077 24.4842C37.9613 24.8584 38.3251 25.1033 38.7295 25.1046L44.6717 25.1249C45.224 25.1268 45.6732 24.6806 45.6751 24.1283L45.7492 2.41656L45.7492 2.40863L45.7492 2.40863L45.7412 0.652837C45.7388 0.103655 45.2939 -0.340759 44.7447 -0.342634L36.3055 -0.37144L36.3024 -0.37145L27.8633 -0.400256ZM36.2987 1.62855L28.8486 1.60312L28.8399 2.36282L28.7693 23.0706L31.6295 23.0804C31.6272 23.052 31.626 23.0235 31.6261 22.9948L31.6852 5.68251C31.6871 5.13023 32.1363 4.68404 32.6886 4.68593L36.2851 4.69821L39.8847 4.71049C40.437 4.71238 40.8832 5.16162 40.8813 5.7139L40.8222 23.0262C40.8221 23.0549 40.8208 23.0834 40.8183 23.1118L43.6785 23.1215L43.7492 2.41371L43.7458 1.65397L36.2987 1.62855Z" fill="#EAEAEA"/>
</g>
<g opacity="0.8">
<path d="M140.569 28.3882C131.628 27.1078 123.683 36.4014 120.828 41.2082C112.767 52.2155 116.388 58.2164 119.114 63.3113C121.84 68.4062 119.973 74.7438 134.107 81.4044C144.252 85.8695 157.881 83.7946 162.844 76.9336C166.814 71.4449 168.857 68.878 169.382 68.2807C176.892 60.5835 175.752 55.9169 175 51.4561C174.247 46.9954 171.426 45.3348 169.072 38.5804C166.719 31.826 160.898 30.3791 157.165 28.9172C153.433 27.4553 151.746 29.9887 140.569 28.3882Z" stroke="#EAEAEA" stroke-width="2" stroke-linejoin="round"/>
<circle cx="146.552" cy="54.5267" r="20.6074" transform="rotate(21.3897 146.552 54.5267)" stroke="#EAEAEA"/>
<circle cx="146.552" cy="54.5268" r="19.394" transform="rotate(21.3897 146.552 54.5268)" stroke="#EAEAEA"/>
<path d="M122.371 62.51C120.593 60.1032 117.301 54.3764 118.359 50.7234C119.416 47.0704 121.08 44.8082 121.779 44.1338C120.673 46.1258 118.765 50.2108 119.987 50.6149C121.515 51.1201 124.333 39.1635 126.216 37.5692C128.1 35.9749 130.809 34.6569 131.405 34.5639C132.001 34.4709 126.904 37.8385 124.394 43.2924C121.885 48.7463 118.639 53.8184 122.371 62.51ZM125.418 44.2529C123.578 46.3308 120.317 51.8449 121.995 57.2784C122.029 54.1355 122.761 47.1302 125.418 44.2529ZM124.627 67.8248C124.741 68.0095 129.02 77.5682 138.909 79.949L139.178 79.2615C136.442 78.5472 129.7 75.2599 124.627 67.8248ZM142.152 80.0063L142.012 80.838C144.876 81.3067 151.579 81.7306 155.481 79.6766C160.358 77.1091 161.912 76.8318 163.765 74.2457C162.553 74.9991 159.892 76.656 158.948 77.2564C157.767 78.0068 157.381 78.0419 157.273 77.72C157.166 77.3982 162.332 73.4979 163.099 72.4923C163.866 71.4867 167.17 67.6966 167.561 65.9839C167.952 64.2713 162.832 72.341 159.613 74.4852C156.394 76.6295 152.664 79.3662 147.898 79.5053C144.086 79.6166 142.479 79.8857 142.152 80.0063ZM153.2 31.9138C153.405 32.0454 162.4 34.4912 166.39 41.5948C170.38 48.6984 171.929 54.4357 169.099 61.7924C170.91 58.6538 173.242 50.2711 168.086 41.8488C162.93 33.4264 156.014 31.7161 153.2 31.9138ZM156.404 31.0398C156.572 31.0753 163.043 32.2761 164.33 34.8715C163.071 34.1846 161.701 33.9226 161.173 33.8775C164.906 35.3642 168.177 40.0864 169.346 42.2616C169.095 41.224 167.955 38.2918 165.393 34.8639C162.192 30.5789 156.572 31.0753 156.404 31.0398Z" stroke="#EAEAEA" stroke-width="0.5" stroke-linejoin="round"/>
<path fill-rule="evenodd" clip-rule="evenodd" d="M143.337 39.5916C142.825 39.3913 142.248 39.6409 142.044 40.1506L141.39 41.7804L141.39 41.7804L141.388 41.7877L133.469 62.0042C133.268 62.5184 133.521 63.0986 134.035 63.3L139.568 65.4672C139.945 65.6147 140.373 65.5208 140.654 65.2293C140.934 64.9378 141.011 64.5061 140.849 64.1355L140.4 63.1083L146.199 48.3052L148.616 49.2522L148.616 49.2522L151.037 50.2003L145.239 65.0034L144.211 65.4524C143.841 65.6144 143.604 65.9837 143.612 66.3881C143.62 66.7925 143.871 67.1523 144.247 67.2998L149.78 69.467C150.294 69.6684 150.874 69.4148 151.076 68.9006L158.994 48.6842L158.997 48.6768L158.997 48.6767L159.625 47.0368C159.821 46.5239 159.567 45.9487 159.055 45.7484L151.197 42.6706L143.337 39.5916ZM150.465 44.5317L143.531 41.8157L143.248 42.5209L135.696 61.8025L138.359 62.8456C138.367 62.8183 138.377 62.7913 138.387 62.7646L144.701 46.6447C144.902 46.1304 145.483 45.8768 145.997 46.0783L149.348 47.3911L149.348 47.3911L152.697 48.7027C153.212 48.9042 153.465 49.4843 153.264 49.9986L146.95 66.1185C146.939 66.1452 146.928 66.1714 146.915 66.1969L149.578 67.24L157.131 47.9584L157.402 47.2488L150.465 44.5317L150.465 44.5317Z" fill="#EAEAEA"/>
</g>
<g opacity="0.8">
<path d="M280.392 22.0269C271.401 21.1528 263.885 30.7968 261.251 35.7281C253.697 47.0892 257.586 52.9199 260.54 57.8861C263.494 62.8523 261.916 69.2679 276.338 75.2814C286.674 79.2824 300.196 76.5922 304.843 69.5134C308.56 63.8504 310.485 61.1937 310.982 60.5732C318.136 52.5437 316.786 47.9335 315.832 43.5114C314.878 39.0893 311.985 37.5582 309.327 30.9174C306.67 24.2766 300.789 23.0949 296.995 21.8036C293.2 20.5122 291.63 23.1194 280.392 22.0269Z" stroke="#EAEAEA" stroke-width="2" stroke-linejoin="round"/>
<circle cx="287.552" cy="47.8675" r="20.6074" transform="rotate(18.7932 287.552 47.8675)" stroke="#EAEAEA"/>
<circle cx="287.552" cy="47.8676" r="19.394" transform="rotate(18.7932 287.552 47.8676)" stroke="#EAEAEA"/>
<path d="M263.758 56.938C261.873 54.6143 258.325 49.0425 259.216 45.3453C260.107 41.6481 261.666 39.3129 262.334 38.6075C261.319 40.6476 259.598 44.8148 260.838 45.1632C262.387 45.5986 264.66 33.5266 266.47 31.8486C268.279 30.1706 270.925 28.7313 271.517 28.6114C272.108 28.4915 267.168 32.0865 264.909 37.6485C262.649 43.2105 259.636 48.4244 263.758 56.938ZM265.974 38.5616C264.23 40.7207 261.223 46.3769 263.145 51.7289C263.037 48.5876 263.45 41.5564 265.974 38.5616ZM266.253 62.1452C266.375 62.3245 271.082 71.6796 281.069 73.6099L281.307 72.9109C278.541 72.3214 271.657 69.3428 266.253 62.1452ZM284.311 73.5203L284.209 74.3574C287.091 74.6959 293.807 74.8158 297.611 72.5871C302.367 69.8013 303.908 69.4539 305.641 66.7865C304.464 67.594 301.881 69.3698 300.965 70.0123C299.82 70.8155 299.435 70.868 299.313 70.5513C299.192 70.2347 304.176 66.1044 304.896 65.0651C305.617 64.0258 308.746 60.0898 309.059 58.3613C309.372 56.6327 304.623 64.926 301.504 67.2139C298.386 69.5017 294.783 72.4046 290.029 72.7594C286.226 73.0433 284.632 73.385 284.311 73.5203ZM293.169 24.9766C293.38 25.0988 302.477 27.1346 306.784 34.0502C311.092 40.9658 312.899 46.627 310.405 54.1043C312.072 50.887 314.023 42.4072 308.49 34.2271C302.958 26.047 295.971 24.6517 293.169 24.9766ZM296.331 23.9584C296.5 23.9862 303.018 24.8927 304.421 27.4271C303.133 26.7979 301.752 26.5983 301.223 26.5771C305.02 27.8932 308.501 32.4624 309.767 34.5824C309.47 33.5572 308.198 30.6797 305.484 27.3713C302.091 23.2358 296.5 23.9862 296.331 23.9584Z" stroke="#EAEAEA" stroke-width="0.5" stroke-linejoin="round"/>
<path fill-rule="evenodd" clip-rule="evenodd" d="M299.645 38.5318C300.165 38.7088 300.445 39.2719 300.272 39.7932L299.72 41.4598L299.72 41.4598L299.717 41.4673L292.723 62.0217C292.545 62.5446 291.977 62.8242 291.454 62.6463L285.829 60.7319C285.446 60.6016 285.179 60.2535 285.153 59.8499C285.127 59.4463 285.346 59.0667 285.709 58.8881L286.715 58.393L291.837 43.3424L289.379 42.5059L286.918 41.6684L281.796 56.719L282.291 57.7248C282.47 58.0877 282.412 58.5225 282.145 58.8264C281.878 59.1302 281.454 59.2434 281.072 59.1131L275.446 57.1988C274.923 57.0209 274.644 56.4528 274.822 55.93L281.816 35.3756L281.819 35.3681L281.819 35.3681L282.398 33.7104C282.579 33.1919 283.144 32.9165 283.664 33.0934L291.653 35.8121L299.645 38.5318ZM291.012 37.7065L283.959 35.3064L283.708 36.0237L277.037 55.6276L279.745 56.5491C279.752 56.5214 279.76 56.494 279.769 56.4668L285.346 40.0774C285.524 39.5546 286.092 39.275 286.615 39.4529L290.02 40.6115L293.428 41.7712C293.951 41.9491 294.23 42.5172 294.052 43.04L288.475 59.4294C288.466 59.4566 288.455 59.4832 288.444 59.5093L291.152 60.4307L297.823 40.8268L298.062 40.1056L291.012 37.7065Z" fill="#EAEAEA"/>
</g>
<g opacity="0.8">
<path d="M302.145 118.052C294.867 123.401 295.706 135.599 297.036 141.03C298.993 154.532 305.78 156.278 311.294 158.005C316.809 159.732 319.916 165.563 334.669 160.416C345.036 156.497 353.311 145.469 352.047 137.096C351.036 130.398 350.695 127.136 350.652 126.341C350.62 115.588 346.538 113.055 342.876 110.399C339.215 107.742 336.038 108.533 329.627 105.361C323.216 102.189 318.048 105.234 314.36 106.805C310.673 108.376 311.243 111.365 302.145 118.052Z" stroke="#EAEAEA" stroke-width="2" stroke-linejoin="round"/>
<circle cx="324.724" cy="132.517" r="20.6074" transform="rotate(-23.0735 324.724 132.517)" stroke="#EAEAEA"/>
<circle cx="324.724" cy="132.517" r="19.394" transform="rotate(-23.0735 324.724 132.517)" stroke="#EAEAEA"/>
<path d="M313.058 155.152C310.103 154.679 303.742 152.898 301.938 149.55C300.135 146.202 299.737 143.422 299.764 142.451C300.369 144.648 301.869 148.9 303.025 148.332C304.469 147.622 298.105 137.115 298.333 134.658C298.56 132.201 299.57 129.363 299.931 128.879C300.291 128.395 299.012 134.369 301.041 140.019C303.07 145.669 304.306 151.563 313.058 155.152ZM302.444 139.988C302.586 142.759 304.122 148.979 309.125 151.681C306.948 149.415 302.563 143.902 302.444 139.988ZM318.391 157.365C318.602 157.416 328.351 161.241 337.076 156.014L336.787 155.335C334.333 156.742 327.22 159.117 318.391 157.365ZM339.431 153.784L339.914 154.475C342.286 152.803 347.367 148.411 348.713 144.212C350.395 138.963 351.31 137.676 350.821 134.533C350.484 135.92 349.745 138.966 349.492 140.056C349.175 141.418 348.924 141.714 348.622 141.56C348.32 141.405 349.275 135.003 349.118 133.748C348.961 132.493 348.664 127.474 347.743 125.978C346.823 124.482 348.821 133.827 348.026 137.612C347.231 141.397 346.485 145.963 343.181 149.401C340.538 152.15 339.58 153.468 339.431 153.784ZM313.63 111.721C313.868 111.671 322.001 107.116 329.824 109.391C337.648 111.667 342.772 114.676 345.905 121.909C344.999 118.401 340.792 110.784 331.213 108.385C321.633 105.985 315.499 109.609 313.63 111.721ZM315.304 108.853C315.449 108.761 320.908 105.085 323.644 106.036C322.265 106.427 321.103 107.2 320.695 107.538C324.401 105.984 330.043 107.063 332.401 107.797C331.495 107.232 328.627 105.938 324.398 105.286C319.112 104.47 315.449 108.761 315.304 108.853Z" stroke="#EAEAEA" stroke-width="0.5" stroke-linejoin="round"/>
<path fill-rule="evenodd" clip-rule="evenodd" d="M311.968 124.109C311.463 124.325 311.225 124.907 311.437 125.414L312.112 127.035L312.112 127.035L312.115 127.042L320.624 147.017C320.841 147.525 321.428 147.762 321.936 147.545L327.403 145.216C327.775 145.058 328.015 144.691 328.011 144.286C328.007 143.882 327.76 143.52 327.384 143.369L326.345 142.95L320.114 128.324L322.503 127.306L322.503 127.306L324.894 126.287L331.125 140.914L330.706 141.954C330.555 142.329 330.645 142.758 330.934 143.041C331.223 143.324 331.654 143.406 332.026 143.247L337.493 140.918C338.001 140.702 338.237 140.114 338.021 139.606L329.512 119.631L329.509 119.624L329.509 119.624L328.808 118.014C328.588 117.511 328.004 117.278 327.499 117.493L319.735 120.801L319.735 120.801L311.968 124.109ZM320.516 122.642L313.664 125.561L313.957 126.262L322.072 145.313L324.704 144.192C324.69 144.167 324.678 144.141 324.667 144.115L317.882 128.188C317.665 127.679 317.902 127.092 318.41 126.876L321.722 125.465L321.722 125.465L325.03 124.055C325.539 123.839 326.126 124.075 326.342 124.583L333.127 140.511C333.139 140.537 333.149 140.564 333.158 140.591L335.789 139.47L327.673 120.419L327.37 119.722L320.516 122.642L320.516 122.642Z" fill="#EAEAEA"/>
</g>
</svg>
