<svg width="225" height="32" viewBox="0 0 225 32" fill="none" xmlns="http://www.w3.org/2000/svg">
<path d="M36.2395 9.96044L38.4581 16.7887C38.5251 16.9947 38.7171 17.1342 38.9337 17.1342H46.1133L40.3049 21.3543C40.1296 21.4816 40.0563 21.7073 40.1232 21.9133L42.3419 28.7416L36.5334 24.5215C36.3582 24.3942 36.1209 24.3942 35.9456 24.5215L30.1371 28.7416L32.3558 21.9133C32.4227 21.7073 32.3494 21.4816 32.1741 21.3543L26.3657 17.1342H33.5453C33.7619 17.1342 33.9539 16.9947 34.0209 16.7887L36.2395 9.96044Z" fill="#5EBB99" stroke="white" stroke-linejoin="round"/>
<path d="M74.2416 9.96044L76.4602 16.7887C76.5272 16.9947 76.7191 17.1342 76.9357 17.1342H84.1154L78.3069 21.3543C78.1317 21.4816 78.0584 21.7073 78.1253 21.9133L80.3439 28.7416L74.5355 24.5215C74.3602 24.3942 74.1229 24.3942 73.9477 24.5215L68.1392 28.7416L70.3579 21.9133C70.4248 21.7073 70.3515 21.4816 70.1762 21.3543L64.3677 17.1342H71.5474C71.764 17.1342 71.956 16.9947 72.0229 16.7887L74.2416 9.96044Z" fill="#5EBB99" stroke="white" stroke-linejoin="round"/>
<path d="M112.244 9.96044L114.462 16.7887C114.529 16.9947 114.721 17.1342 114.938 17.1342H122.117L116.309 21.3543C116.134 21.4816 116.06 21.7073 116.127 21.9133L118.346 28.7416L112.538 24.5215C112.362 24.3942 112.125 24.3942 111.95 24.5215L106.141 28.7416L108.36 21.9133C108.427 21.7073 108.354 21.4816 108.178 21.3543L102.37 17.1342H109.549C109.766 17.1342 109.958 16.9947 110.025 16.7887L112.244 9.96044Z" fill="#5EBB99" stroke="white" stroke-linejoin="round"/>
<path d="M150.246 9.96044L152.464 16.7887C152.531 16.9947 152.723 17.1342 152.94 17.1342H160.12L154.311 21.3543C154.136 21.4816 154.063 21.7073 154.129 21.9133L156.348 28.7416L150.54 24.5215C150.364 24.3942 150.127 24.3942 149.952 24.5215L144.143 28.7416L146.362 21.9133C146.429 21.7073 146.356 21.4816 146.18 21.3543L140.372 17.1342H147.552C147.768 17.1342 147.96 16.9947 148.027 16.7887L150.246 9.96044Z" fill="#5EBB99" stroke="white" stroke-linejoin="round"/>
<path d="M188.248 9.96044L190.466 16.7887C190.533 16.9947 190.725 17.1342 190.942 17.1342H198.122L192.313 21.3543C192.138 21.4816 192.065 21.7073 192.132 21.9133L194.35 28.7416L188.542 24.5215C188.366 24.3942 188.129 24.3942 187.954 24.5215L182.145 28.7416L184.364 21.9133C184.431 21.7073 184.358 21.4816 184.182 21.3543L178.374 17.1342H185.554C185.77 17.1342 185.962 16.9947 186.029 16.7887L188.248 9.96044Z" fill="#5EBB99" stroke="white" stroke-linejoin="round"/>
</svg>
