<svg width="91" height="168" viewBox="0 0 91 168" fill="none" xmlns="http://www.w3.org/2000/svg">
<path d="M14.1575 68.583H9.03699V166.48H14.1575V68.583Z" fill="#999999"/>
<path d="M82.205 68.583H77.0845V166.48H82.205V68.583Z" fill="#999999"/>
<path d="M82.1907 167.35V162.23H9.02059V167.35H82.1907Z" fill="#999999"/>
<path d="M77.0883 109.493V104.373L14.1593 104.373V109.493L77.0883 109.493Z" fill="#3A6AB2"/>
<path d="M82.2008 97.0878V91.9673L9.03073 91.9673V97.0878L82.2008 97.0878Z" fill="#999999"/>
<path d="M82.1831 73.7226V68.6021L9.01303 68.6021V73.7226L82.1831 73.7226Z" fill="#999999"/>
<path d="M82.2084 91.9742V73.7153L9.03829 73.7153V91.9742L82.2084 91.9742Z" fill="#1A1A1A"/>
<path d="M87.3096 68.608L87.3096 13.2251L3.93207 13.2251L3.93207 68.608L87.3096 68.608Z" fill="#1A1A1A"/>
<path d="M9.03621 22.3633H3.91565V109.783H9.03621V22.3633Z" fill="#1A1A1A"/>
<path d="M87.3252 22.3633H82.2046V109.783H87.3252V22.3633Z" fill="#1A1A1A"/>
<path d="M9.20483 73.7036C9.20483 79.8011 9.20483 85.8649 9.20483 91.9624" stroke="white" stroke-width="0.336508" stroke-miterlimit="10"/>
<path d="M16.5134 73.7036C16.5134 79.8011 16.5134 85.8649 16.5134 91.9624" stroke="white" stroke-width="0.336508" stroke-miterlimit="10"/>
<path d="M23.7892 73.7036C23.7892 79.8011 23.7892 85.8649 23.7892 91.9624" stroke="white" stroke-width="0.336508" stroke-miterlimit="10"/>
<path d="M31.0662 73.7036C31.0662 79.8011 31.0662 85.8649 31.0662 91.9624" stroke="white" stroke-width="0.336508" stroke-miterlimit="10"/>
<path d="M38.3445 73.7036C38.3445 79.8011 38.3445 85.8649 38.3445 91.9624" stroke="white" stroke-width="0.336508" stroke-miterlimit="10"/>
<path d="M45.6215 73.7036C45.6215 79.8011 45.6215 85.8649 45.6215 91.9624" stroke="white" stroke-width="0.336508" stroke-miterlimit="10"/>
<path d="M52.8984 73.7036C52.8984 79.8011 52.8984 85.8649 52.8984 91.9624" stroke="white" stroke-width="0.336508" stroke-miterlimit="10"/>
<path d="M60.2057 73.7036C60.2057 79.8011 60.2057 85.8649 60.2057 91.9624" stroke="white" stroke-width="0.336508" stroke-miterlimit="10"/>
<path d="M67.484 73.7036C67.484 79.8011 67.484 85.8649 67.484 91.9624" stroke="white" stroke-width="0.336508" stroke-miterlimit="10"/>
<path d="M74.7598 73.7036C74.7598 79.8011 74.7598 85.8649 74.7598 91.9624" stroke="white" stroke-width="0.336508" stroke-miterlimit="10"/>
<path d="M82.038 73.7036C82.038 79.8011 82.038 85.8649 82.038 91.9624" stroke="white" stroke-width="0.336508" stroke-miterlimit="10"/>
<path d="M3.91565 13.234C3.91565 13.234 15.3695 0.5 45.6212 0.5C75.8056 0.5 87.3269 13.234 87.3269 13.234H3.91565Z" fill="#999999"/>
<path d="M3.91618 89.3011C3.91618 89.3011 0.783203 86.4713 0.783203 78.9926C0.783203 71.5476 3.91618 68.6841 3.91618 68.6841V89.3011Z" fill="#B62937"/>
<path d="M87.326 68.7178C87.326 68.7178 90.459 71.5476 90.459 79.0263C90.459 86.4713 87.326 89.3348 87.326 89.3348V68.7178Z" fill="#B62937"/>
<path d="M34.7305 38.753C35.5929 38.753 36.2599 38.9349 36.7316 39.2988C37.2032 39.6559 37.439 40.1915 37.439 40.9057C37.439 41.667 37.1931 42.233 36.7013 42.6035C36.2094 42.9741 35.5559 43.1594 34.7406 43.1594H33.8614V45.7163H32.9013V38.753H34.7305ZM34.7002 42.4014C35.2594 42.4014 35.6839 42.2936 35.9736 42.078C36.2701 41.8624 36.4183 41.475 36.4183 40.9158C36.4183 40.4172 36.2701 40.0567 35.9736 39.8344C35.6839 39.6121 35.2662 39.5009 34.7204 39.5009H33.8614V42.4014H34.7002ZM40.8151 42.7652H39.7337V45.7163H38.7736V38.753H40.6029C41.472 38.753 42.1289 38.9181 42.5736 39.2482C43.025 39.5784 43.2507 40.0702 43.2507 40.7238C43.2507 41.2089 43.1261 41.603 42.8768 41.9062C42.6275 42.2094 42.2502 42.4385 41.7449 42.5934L43.6247 45.7163H42.4826L40.8151 42.7652ZM40.7039 42.0275C41.2092 42.0275 41.5899 41.9264 41.8459 41.7243C42.102 41.5154 42.23 41.1819 42.23 40.7238C42.23 40.2926 42.0986 39.9826 41.8358 39.794C41.5798 39.5986 41.1655 39.5009 40.5928 39.5009H39.7337V42.0275H40.7039ZM45.8528 38.753V45.7163H44.8927V38.753H45.8528ZM52.7547 45.7163H51.4712L48.6414 39.8041C48.6818 40.269 48.7121 40.7002 48.7323 41.0977C48.7593 41.4885 48.7728 41.9635 48.7728 42.5227V45.7163H47.8733V38.753H49.1265L51.9866 44.6754C51.9664 44.5002 51.9394 44.1936 51.9057 43.7557C51.872 43.3177 51.8552 42.9168 51.8552 42.553V38.753H52.7547V45.7163ZM58.8854 38.753L58.7843 39.5716H56.854V45.7163H55.8939V39.5716H53.913V38.753H58.8854Z" fill="white"/>
</svg>
