<svg width="750" height="345" viewBox="0 0 750 345" fill="none" xmlns="http://www.w3.org/2000/svg">
<path d="M62.998 344.5L41.498 73.5L43.463 70.6635L59.998 53H85.498L378.498 344.5L62.998 344.5Z" fill="#FEFFB8" fill-opacity="0.5"/>
<path d="M45.998 30.4998C37.998 13.4999 -0.00195312 16.4998 1.01953 54.4998V344.596H190.009H719.523L729.645 259.483L676.415 259.494L686.41 344.623" stroke="black" stroke-width="0.45578" stroke-miterlimit="10"/>
<path d="M709.496 215.244L703.936 259.363" stroke="black" stroke-width="0.459328" stroke-miterlimit="10"/>
<path d="M697.008 221.807L698.922 259.363" stroke="black" stroke-width="0.459328" stroke-miterlimit="10"/>
<path d="M683.241 233.338C684.062 234.386 691.719 259.363 691.719 259.363L683.241 233.338Z" fill="#AED8C8"/>
<path d="M683.241 233.338C684.062 234.386 691.719 259.363 691.719 259.363" stroke="black" stroke-width="0.459328" stroke-miterlimit="10"/>
<path d="M730.416 218.799L721.574 259.363" stroke="black" stroke-width="0.459328" stroke-miterlimit="10"/>
<path d="M63.887 71.0733C59.5053 70.2661 56.6076 66.0596 57.4149 61.6779C58.2222 57.2962 62.4287 54.3985 66.8104 55.2058C71.1921 56.0131 74.0897 60.2196 73.2824 64.6013C72.4752 68.983 68.2687 71.8806 63.887 71.0733Z" fill="white" stroke="black" stroke-width="0.45578" stroke-miterlimit="10"/>
<path d="M683.243 233.338C683.243 233.338 694.501 213.101 652.888 218.981C652.888 218.981 674.219 245.097 683.243 233.338Z" fill="#5EBB99"/>
<path d="M705.713 213.785C705.713 213.785 738.119 231.788 728.684 165.199C728.684 165.199 686.889 199.337 705.713 213.785Z" fill="#5EBB99"/>
<path d="M692.632 222.992C692.632 222.992 729.55 217.34 685.111 178.827C685.111 178.827 669.022 223.676 692.632 222.992Z" fill="#AED8C8" stroke="black" stroke-width="0.45578" stroke-miterlimit="10"/>
<path d="M708.309 224.678C708.309 224.678 683.104 223.949 707.944 254.942C707.944 254.942 724.079 227.139 708.309 224.678Z" fill="#AED8C8" stroke="black" stroke-width="0.459328" stroke-miterlimit="10"/>
<path d="M748.692 252.162C748.509 253.392 726.723 244.55 723.396 230.102C720.069 215.654 755.3 205.262 748.692 252.162Z" fill="#AED8C8"/>
<path d="M671.757 231.469L685.795 240.585" stroke="black" stroke-width="0.459328" stroke-miterlimit="10"/>
<path d="M648.376 264.422C647.008 264.514 648.376 234.386 665.194 230.421C682.012 226.456 681.101 261.688 648.376 264.422Z" fill="#AED8C8"/>
<path d="M87.6707 54.9245C87.3346 53.982 66.7756 14.1378 44.3326 30.3021C21.8814 46.5112 41.6538 75.7829 41.6538 75.7829L87.6707 54.9245Z" fill="#5EBB99"/>
<path d="M688.75 191.655C690.593 199.107 694.28 214.011 694.28 214.011M724.01 179.901L712.948 204.792M734.381 225.765L742.678 243.28M705.804 230.374L707.417 245.815M677.687 228.761L663.859 222.538M667.085 239.823L656.023 255.956" stroke="#3A6AB2" stroke-width="0.459328"/>
<path d="M568.125 139C571.37 139 574 136.37 574 133.125C574 129.881 571.37 127.25 568.125 127.25C564.881 127.25 562.25 129.881 562.25 133.125C562.25 136.37 564.881 139 568.125 139Z" fill="#3A6AB2"/>
<path d="M696.998 45.2273C709.274 45.2273 719.225 35.2758 719.225 23C719.225 10.7242 709.274 0.772705 696.998 0.772705C684.722 0.772705 674.771 10.7242 674.771 23C674.771 35.2758 684.722 45.2273 696.998 45.2273Z" fill="#5EBB99"/>
<path d="M199.112 47.2232C206.905 47.2232 213.223 40.9052 213.223 33.1116C213.223 25.318 206.905 19 199.112 19C191.318 19 185 25.318 185 33.1116C185 40.9052 191.318 47.2232 199.112 47.2232Z" fill="#F0848C"/>
<path opacity="0.7" d="M88.4972 275.574C114.22 275.574 135.072 254.722 135.072 229C135.072 203.278 114.22 182.426 88.4972 182.426C62.7749 182.426 41.9229 203.278 41.9229 229C41.9229 254.722 62.7749 275.574 88.4972 275.574Z" fill="#EB990F"/>
</svg>
