<svg width="612" height="216" viewBox="0 0 612 216" fill="none" xmlns="http://www.w3.org/2000/svg">
<path d="M152.639 27.659C152.639 27.659 167.685 19.6878 158.756 8.62701C149.827 -2.43379 138.396 9.02866 138.396 9.02866C138.396 9.02866 126.501 -0.209275 111.084 4.02349C95.6666 8.25626 80.7129 27.0102 85.8417 47.6179C91.0013 68.2565 152.639 27.659 152.639 27.659Z" fill="#1A1A1A"/>
<path d="M159.56 215.476C159.56 215.476 187.861 192.15 196.358 173.983C196.358 173.983 245.266 188.102 271.404 182.881C271.404 182.881 255.369 210.224 233.371 215.476" fill="white"/>
<path d="M159.56 215.476C159.56 215.476 187.861 192.15 196.358 173.983C196.358 173.983 245.266 188.102 271.404 182.881C271.404 182.881 255.369 210.224 233.371 215.476" stroke="#1A1A1A" stroke-width="0.308961" stroke-miterlimit="10"/>
<path d="M167.408 135.548C161.136 130.512 161.291 129.832 161.291 129.832L161.569 178.679C161.569 178.679 195.029 180.44 201.301 189.431C207.573 198.422 205.102 201.14 197.223 199.627C197.223 199.627 207.017 207.66 196.42 208.741C196.42 208.741 201.456 215.26 192.743 215.414C184.03 215.569 15.3377 215.414 15.3377 215.414C15.3377 215.414 2.08327 199.287 18.3964 154.178C34.7095 109.07 64.6788 90.0999 85.4719 81.5416L93.0723 76.2275L96.3473 64.0853C96.3473 64.0853 80.065 57.9679 86.4914 46.3201C92.9178 34.6722 101.785 46.5363 102.403 46.3201C103.021 46.1038 116.275 48.2665 122.702 29.1727C122.702 29.1727 142.104 34.1779 152.609 27.6279C152.609 27.6279 161.476 57.6281 152.084 79.657C152.084 79.657 163.114 77.4016 170.343 85.0638C173.402 88.3079 180.848 94.8888 188.418 101.377L167.408 135.548Z" fill="#E5AC00"/>
<path d="M171.115 138.452C176.028 142.222 183.35 147.597 194.318 155.26C227.779 178.648 237.171 170.09 237.171 170.09C250.518 163.138 244.741 135.548 241.836 124.673L238.963 115.126L211.774 111.696L209.55 118.061L209.241 118.895C209.241 118.895 201.641 112.592 193.021 105.27L171.115 138.452Z" fill="#E5AC00"/>
<path d="M235.11 134.397L237.048 134.582L233.516 171.644L231.579 171.459L235.11 134.397Z" fill="#999999"/>
<path d="M209.374 131.957L211.311 132.142L207.78 169.204L205.842 169.019L209.374 131.957Z" fill="#999999"/>
<path d="M205.794 169.334L205.978 167.396L233.66 170.034L233.475 171.972L205.794 169.334Z" fill="#999999"/>
<path d="M209.838 147.612L210.023 145.675L233.829 147.943L233.644 149.88L209.838 147.612Z" fill="#3A6AB2"/>
<path d="M208.343 142.748L208.527 140.81L236.209 143.447L236.024 145.385L208.343 142.748Z" fill="#999999"/>
<path d="M209.194 133.884L209.379 131.946L237.06 134.584L236.876 136.521L209.194 133.884Z" fill="#999999"/>
<path d="M208.536 140.776L209.192 133.887L236.873 136.524L236.217 143.414L208.536 140.776Z" fill="#1A1A1A"/>
<path d="M207.424 131.765L209.42 110.82L240.976 113.827L238.981 134.772L207.424 131.765Z" fill="#1A1A1A"/>
<path d="M238.722 117.087L240.659 117.271L237.506 150.366L235.568 150.181L238.722 117.087Z" fill="#1A1A1A"/>
<path d="M209.091 114.274L211.029 114.459L207.876 147.554L205.938 147.369L209.091 114.274Z" fill="#1A1A1A"/>
<path d="M236.801 136.537C236.585 138.823 236.369 141.14 236.152 143.427" stroke="white" stroke-width="0.12791" stroke-miterlimit="10"/>
<path d="M234.051 136.259C233.835 138.545 233.619 140.862 233.403 143.148" stroke="white" stroke-width="0.12791" stroke-miterlimit="10"/>
<path d="M231.3 136.011C231.084 138.298 230.867 140.615 230.651 142.901" stroke="white" stroke-width="0.12791" stroke-miterlimit="10"/>
<path d="M228.521 135.733C228.305 138.02 228.088 140.337 227.872 142.623" stroke="white" stroke-width="0.12791" stroke-miterlimit="10"/>
<path d="M225.771 135.486C225.555 137.773 225.339 140.09 225.122 142.376" stroke="white" stroke-width="0.12791" stroke-miterlimit="10"/>
<path d="M223.021 135.208C222.805 137.495 222.589 139.812 222.372 142.098" stroke="white" stroke-width="0.12791" stroke-miterlimit="10"/>
<path d="M220.271 134.961C220.055 137.247 219.839 139.565 219.623 141.851" stroke="white" stroke-width="0.12791" stroke-miterlimit="10"/>
<path d="M217.521 134.683C217.305 136.969 217.089 139.287 216.873 141.573" stroke="white" stroke-width="0.12791" stroke-miterlimit="10"/>
<path d="M214.741 134.436C214.525 136.722 214.308 139.039 214.092 141.326" stroke="white" stroke-width="0.12791" stroke-miterlimit="10"/>
<path d="M211.991 134.158C211.775 136.444 211.559 138.761 211.342 141.048" stroke="white" stroke-width="0.12791" stroke-miterlimit="10"/>
<path d="M209.241 133.911C209.025 136.197 208.809 138.514 208.592 140.8" stroke="white" stroke-width="0.12791" stroke-miterlimit="10"/>
<path d="M240.972 113.828C240.972 113.828 237.079 108.607 225.648 107.525C214.216 106.444 209.396 110.831 209.396 110.831L240.972 113.828Z" fill="#999999"/>
<path d="M238.253 142.623C238.253 142.623 239.551 141.665 239.798 138.854C240.076 136.042 238.994 134.837 238.994 134.837L238.253 142.623Z" fill="#B62937"/>
<path d="M207.418 131.81C207.418 131.81 206.12 132.767 205.873 135.579C205.595 138.39 206.676 139.595 206.676 139.595L207.418 131.81Z" fill="#B62937"/>
<path d="M228.35 122.95C228.023 122.919 227.764 122.964 227.573 123.085C227.381 123.203 227.273 123.397 227.247 123.667C227.22 123.955 227.292 124.178 227.465 124.336C227.638 124.494 227.879 124.588 228.187 124.617L228.52 124.649L228.428 125.617L228.791 125.651L229.042 123.016L228.35 122.95ZM228.23 124.332C228.018 124.312 227.861 124.256 227.759 124.164C227.655 124.071 227.613 123.919 227.633 123.708C227.651 123.519 227.72 123.388 227.84 123.315C227.958 123.241 228.12 123.214 228.327 123.234L228.652 123.265L228.547 124.362L228.23 124.332ZM225.903 124.249L226.312 124.288L226.205 125.405L226.569 125.439L226.82 122.804L226.128 122.738C225.799 122.707 225.544 122.746 225.364 122.855C225.181 122.963 225.078 123.141 225.055 123.389C225.037 123.572 225.07 123.726 225.153 123.85C225.237 123.973 225.371 124.074 225.557 124.151L224.733 125.265L225.165 125.306L225.903 124.249ZM225.971 123.974C225.78 123.956 225.64 123.904 225.55 123.818C225.461 123.73 225.424 123.599 225.441 123.426C225.456 123.262 225.517 123.15 225.623 123.088C225.727 123.023 225.888 123.001 226.104 123.022L226.43 123.053L226.338 124.009L225.971 123.974ZM224.141 122.549L223.89 125.184L224.253 125.219L224.504 122.584L224.141 122.549ZM221.278 124.935L221.764 124.982L223.048 122.846C223.016 123.021 222.989 123.183 222.967 123.333C222.942 123.48 222.92 123.659 222.9 123.87L222.785 125.079L223.125 125.111L223.376 122.476L222.902 122.431L221.606 124.569C221.62 124.504 221.642 124.389 221.67 124.224C221.699 124.06 221.719 123.908 221.733 123.771L221.87 122.333L221.529 122.3L221.278 124.935ZM219.209 122.079L219.218 122.393L219.948 122.462L219.727 124.788L220.09 124.822L220.312 122.497L221.061 122.568L221.091 122.259L219.209 122.079Z" fill="white"/>
<path d="M210.076 116.825C210.076 116.825 203.866 107.525 209.674 94.9814C215.482 82.4376 220.549 89.7909 220.549 89.7909C220.549 89.7909 226.667 86.6704 229.54 91.1194C229.54 91.1194 233.835 89.6364 237.295 95.5684C237.295 95.5684 246.626 97.8547 244.123 108.792C241.621 119.729 237.944 126.001 233.402 125.074C228.86 124.147 230.591 119.513 230.591 119.513C230.591 119.513 224.611 124.185 224.071 116.823C224.071 116.823 220.977 122.072 217.182 115.898C217.048 116.403 212.486 120.594 210.076 116.825Z" fill="#E5AC00"/>
<path d="M202.506 111.882C201.641 112.561 177.789 143.458 177.789 143.458C177.789 143.458 162.001 132.18 161.29 129.863L161.569 178.71C161.569 178.71 135.801 184.488 131.507 184.302C127.212 184.086 57.4177 180.008 53.2776 180.069L62.2684 158.102L25.4094 137.896C25.4094 137.896 46.635 94.6108 85.5332 81.5726C85.5332 81.5726 94.2459 102.52 105.399 105.919C116.553 109.317 121.033 109.719 123.35 96.0011L123.999 91.583C123.999 91.583 141.759 101.252 152.078 79.6251C152.078 79.6251 162.219 75.9915 171.363 86.0835C181.28 95.9702 202.506 111.882 202.506 111.882Z" fill="#87B4E1"/>
<path d="M146.709 45.2698L147.388 59.0803C147.388 59.0803 147.728 61.861 144.33 62.2008" stroke="#1A1A1A" stroke-width="0.308961" stroke-miterlimit="10" stroke-linecap="round" stroke-linejoin="round"/>
<path d="M144.328 68.3181C144.39 68.3181 136.573 68.7198 135.09 60.6868" stroke="#1A1A1A" stroke-width="0.308961" stroke-miterlimit="10" stroke-linecap="round" stroke-linejoin="round"/>
<path d="M99.715 54.6002C99.715 54.6002 96.3164 50.4601 91.4039 51.5415" stroke="#1A1A1A" stroke-width="0.308961" stroke-miterlimit="10" stroke-linecap="round" stroke-linejoin="round"/>
<path d="M123.968 91.521C123.504 91.4592 108.211 83.1482 103.267 73.7249" stroke="#1A1A1A" stroke-width="0.308961" stroke-miterlimit="10" stroke-linecap="round" stroke-linejoin="round"/>
<path d="M117.419 107.433C117.233 107.463 110.035 81.9124 110.035 81.9124C110.035 81.9124 116.771 88.1429 123.939 91.5415C123.939 91.5724 123.166 105.95 117.419 107.433Z" fill="#1A1A1A"/>
<path d="M130.771 51.4386C130.225 50.805 130.967 49.2714 132.428 48.013C133.889 46.7547 135.515 46.2482 136.061 46.8817C136.607 47.5152 135.865 49.0489 134.404 50.3072C132.943 51.5656 131.316 52.0721 130.771 51.4386Z" fill="#1A1A1A"/>
<path d="M155.124 46.2769C153.455 45.3128 152.44 43.9443 152.858 43.2202C153.276 42.4961 154.969 42.6907 156.638 43.6548C158.308 44.6189 159.323 45.9875 158.905 46.7116C158.487 47.4357 156.794 47.2411 155.124 46.2769Z" fill="#1A1A1A"/>
<path d="M153.844 52.7775C153.059 52.7775 152.423 52.1412 152.423 51.3563C152.423 50.5714 153.059 49.9351 153.844 49.9351C154.629 49.9351 155.265 50.5714 155.265 51.3563C155.265 52.1412 154.629 52.7775 153.844 52.7775Z" fill="#1A1A1A"/>
<path d="M137.654 56.2379C136.869 56.2379 136.233 55.6016 136.233 54.8167C136.233 54.0318 136.869 53.3955 137.654 53.3955C138.439 53.3955 139.075 54.0318 139.075 54.8167C139.075 55.6016 138.439 56.2379 137.654 56.2379Z" fill="#1A1A1A"/>
<path d="M124.802 61.3973C123.386 61.3973 122.238 60.2492 122.238 58.8329C122.238 57.4167 123.386 56.2686 124.802 56.2686C126.219 56.2686 127.367 57.4167 127.367 58.8329C127.367 60.2492 126.219 61.3973 124.802 61.3973Z" fill="#F0848C"/>
<path d="M177.758 143.427L202.506 111.882" stroke="#1A1A1A" stroke-width="0.308961" stroke-miterlimit="10" stroke-linecap="round" stroke-linejoin="round"/>
<path d="M25.3484 137.865L62.2074 158.072L69.8079 139.843" stroke="#1A1A1A" stroke-width="0.308961" stroke-miterlimit="10" stroke-linecap="round" stroke-linejoin="round"/>
<path d="M34.6787 179.637C36.4398 179.853 53.2473 180.038 53.2473 180.038L62.238 158.071" stroke="#1A1A1A" stroke-width="0.308961" stroke-miterlimit="10" stroke-linecap="round" stroke-linejoin="round"/>
<path d="M57.3567 169.935C57.2331 169.75 52.4133 152.695 52.4133 152.695L62.2074 158.071L57.3567 169.935Z" fill="#1A1A1A"/>
<path d="M117.788 183.468C117.788 183.468 108.21 190.945 112.072 215.445H103.174C103.174 215.445 99.7448 197.804 107.036 182.85C107.036 182.881 114.204 182.973 117.788 183.468Z" fill="#1A1A1A"/>
<path d="M108.519 204.663C103.093 204.663 98.6938 200.955 98.6938 196.382C98.6938 191.809 103.093 188.102 108.519 188.102C113.945 188.102 118.344 191.809 118.344 196.382C118.344 200.955 113.945 204.663 108.519 204.663Z" fill="white"/>
<path d="M185.42 215.476C184.771 215.198 164.998 208.185 162.928 207.659" stroke="white" stroke-width="0.308961" stroke-miterlimit="10" stroke-linecap="round" stroke-linejoin="round"/>
<path d="M108.521 191.532L107.501 196.97L111.95 201.11" stroke="#1A1A1A" stroke-width="0.308961" stroke-miterlimit="10" stroke-linecap="round" stroke-linejoin="round"/>
<path d="M189.035 151.552C188.912 151.46 186.594 132.15 186.594 132.15L177.758 143.427L189.035 151.552Z" fill="#1A1A1A"/>
<path d="M1.00123 215.476H263.155" stroke="#1A1A1A" stroke-width="0.308961" stroke-miterlimit="10" stroke-linecap="round" stroke-linejoin="round"/>
<path d="M100.179 64.5178C100.179 64.5178 96.8731 64.7959 96.2551 64.5178" stroke="white" stroke-width="0.308961" stroke-miterlimit="10" stroke-linecap="round" stroke-linejoin="round"/>
<path d="M197.191 199.626C195.43 198.916 173.896 190.975 166.295 190.11" stroke="white" stroke-width="0.308961" stroke-miterlimit="10" stroke-linecap="round" stroke-linejoin="round"/>
<path d="M196.357 208.741C196.141 208.71 172.165 201.079 165.986 199.627" stroke="white" stroke-width="0.308961" stroke-miterlimit="10" stroke-linecap="round" stroke-linejoin="round"/>
<path d="M240.477 119.976C240.477 119.976 237.419 126.712 232.444 124.765C227.47 122.819 232.846 115.806 233.68 112.685C234.514 109.564 235.318 103.663 235.132 101.81" stroke="white" stroke-width="0.308961" stroke-miterlimit="10" stroke-linecap="round" stroke-linejoin="round"/>
<path d="M227.47 99.4614C227.47 99.4614 224.102 109.194 224.102 113.674C224.102 118.154 223.979 123.9 230.838 119.328" stroke="white" stroke-width="0.308961" stroke-miterlimit="10" stroke-linecap="round" stroke-linejoin="round"/>
<path d="M218.758 97.4531L217.182 115.867C217.182 115.867 218.659 119.109 220.859 118.895C224.366 118.478 224.103 115.558 224.103 115.558" stroke="white" stroke-width="0.308961" stroke-miterlimit="10" stroke-linecap="round" stroke-linejoin="round"/>
<path d="M209.581 115.954C209.612 116.012 212.022 121.284 217.182 115.867" stroke="white" stroke-width="0.33479" stroke-miterlimit="10" stroke-linecap="round" stroke-linejoin="round"/>
<path d="M193.362 104.837C193.053 105.332 171.117 138.452 171.117 138.452C171.117 138.452 167.255 135.61 167.317 135.579C167.379 135.548 188.512 101.006 188.512 101.006L193.362 104.837Z" fill="white"/>
<path d="M159.22 3.8379C158.54 3.71432 147.418 -5.12197 138.396 9.02845" stroke="#1A1A1A" stroke-width="0.308961" stroke-miterlimit="10"/>
<path d="M51.5169 102.953C51.5169 102.953 58.7465 109.966 55.1935 114.909C51.6713 119.853 44.5652 109.904 44.5652 109.904C44.5652 109.904 50.4355 103.725 51.5169 102.953Z" fill="#AED8C8"/>
<path d="M178.809 93.0042C178.809 93.0042 175.688 105.424 169.726 102.304C163.763 99.1834 171.332 88.2771 172.97 87.6592L178.809 93.0042Z" fill="#AED8C8"/>
<path d="M161.322 139.194C161.322 138.947 153.505 133.169 151.064 135.857C148.623 138.545 151.929 148.432 161.383 148.679L161.322 139.194Z" fill="#AED8C8"/>
<path d="M140.404 183.035C140.404 183.035 144.328 170.646 136.45 170.028C128.571 169.41 132.557 184.24 132.557 184.24L140.404 183.035Z" fill="#AED8C8"/>
<path d="M92.266 147.162C88.4161 144.08 86.7562 139.756 88.5586 137.505C90.3609 135.254 94.9429 135.927 98.7928 139.009C102.643 142.091 104.303 146.415 102.5 148.666C100.698 150.918 96.1159 150.244 92.266 147.162Z" fill="#AED8C8"/>
<path d="M445.5 151C453.508 151 460 144.508 460 136.5C460 128.492 453.508 122 445.5 122C437.492 122 431 128.492 431 136.5C431 144.508 437.492 151 445.5 151Z" fill="#5EBB99"/>
<path d="M569.112 73.2232C576.905 73.2232 583.223 66.9052 583.223 59.1116C583.223 51.318 576.905 45 569.112 45C561.318 45 555 51.318 555 59.1116C555 66.9052 561.318 73.2232 569.112 73.2232Z" fill="#F0848C"/>
<path d="M401 88C408.18 88 414 82.1797 414 75C414 67.8203 408.18 62 401 62C393.82 62 388 67.8203 388 75C388 82.1797 393.82 88 401 88Z" fill="#F0848C"/>
<path d="M436.875 27.7496C440.119 27.7496 442.75 25.1194 442.75 21.8748C442.75 18.6302 440.119 16 436.875 16C433.63 16 431 18.6302 431 21.8748C431 25.1194 433.63 27.7496 436.875 27.7496Z" fill="#3A6AB2"/>
<path d="M414.875 195.75C418.119 195.75 420.75 193.119 420.75 189.875C420.75 186.63 418.119 184 414.875 184C411.63 184 409 186.63 409 189.875C409 193.119 411.63 195.75 414.875 195.75Z" fill="#3A6AB2"/>
<path d="M307.875 106.75C311.119 106.75 313.75 104.119 313.75 100.875C313.75 97.6302 311.119 95 307.875 95C304.63 95 302 97.6302 302 100.875C302 104.119 304.63 106.75 307.875 106.75Z" fill="#3A6AB2"/>
<path d="M605.875 181.75C609.119 181.75 611.75 179.119 611.75 175.875C611.75 172.63 609.119 170 605.875 170C602.63 170 600 172.63 600 175.875C600 179.119 602.63 181.75 605.875 181.75Z" fill="#3A6AB2"/>
<path d="M523.875 98.7496C527.119 98.7496 529.75 96.1194 529.75 92.8748C529.75 89.6302 527.119 87 523.875 87C520.63 87 518 89.6302 518 92.8748C518 96.1194 520.63 98.7496 523.875 98.7496Z" fill="#3A6AB2"/>
<path opacity="0.7" d="M334.096 174.192C345.194 174.192 354.192 165.194 354.192 154.096C354.192 142.997 345.194 134 334.096 134C322.997 134 314 142.997 314 154.096C314 165.194 322.997 174.192 334.096 174.192Z" fill="#EB990F"/>
<path opacity="0.7" d="M544.096 176.192C555.194 176.192 564.192 167.194 564.192 156.096C564.192 144.997 555.194 136 544.096 136C532.997 136 524 144.997 524 156.096C524 167.194 532.997 176.192 544.096 176.192Z" fill="#EB990F"/>
</svg>
