<svg width="170" height="144" viewBox="0 0 170 144" fill="none" xmlns="http://www.w3.org/2000/svg">
<ellipse cx="84.9991" cy="78.5" rx="80" ry="63" fill="#625D47"/>
<ellipse cx="84.9991" cy="73.5" rx="80" ry="63" fill="#C4C2B3"/>
<path d="M162.499 76C162.499 110.35 128.292 139 84.9991 139C41.7064 139 7.49915 110.35 7.49915 76C7.49915 41.6503 41.7064 13 84.9991 13C128.292 13 162.499 41.6503 162.499 76Z" stroke="#625D47" stroke-width="5"/>
<path d="M162.999 73.5C162.999 106.771 128.549 134.5 84.9991 134.5C41.4494 134.5 6.99915 106.771 6.99915 73.5C6.99915 40.2295 41.4494 12.5 84.9991 12.5C128.549 12.5 162.999 40.2295 162.999 73.5Z" stroke="#F4F4EA" stroke-width="4"/>
<g filter="url(#filter0_d_502_1389)">
<path d="M18.2134 75.2809C18.2046 75.9049 18.4158 76.4395 18.8468 76.8848C19.278 77.3249 19.7762 77.5501 20.3415 77.5605C20.96 77.5719 21.4805 77.3547 21.9028 76.9091C22.3198 76.4581 22.5325 75.9419 22.5407 75.3606C22.5495 74.7313 22.3384 74.1967 21.9072 73.7567C21.4708 73.3113 20.9699 73.0833 20.4047 73.0729C19.7808 73.0614 19.263 73.2839 18.8511 73.7404C18.4341 74.1915 18.2215 74.705 18.2134 75.2809ZM17.4135 75.2662C17.4252 74.4396 17.7259 73.7304 18.3156 73.1385C18.9053 72.5466 19.6054 72.2581 20.416 72.273C21.2318 72.288 21.9261 72.6022 22.4989 73.2155C23.0716 73.8288 23.3522 74.5488 23.3405 75.3753C23.3289 76.1966 23.0283 76.9032 22.4386 77.4951C21.8488 78.087 21.1461 78.3754 20.3302 78.3604C19.5197 78.3455 18.828 78.0313 18.2553 77.418C17.6825 76.8047 17.402 76.0874 17.4135 75.2662Z" fill="#F4F4EA"/>
<path d="M19.9025 66.5498C20.0318 65.983 20.3246 65.5625 20.781 65.2884C21.2334 65.0078 21.7811 64.9448 22.4241 65.0995C23.0204 65.2429 23.4672 65.5863 23.7645 66.1295C24.0629 66.6675 24.1415 67.2459 24.0004 67.8647C23.858 68.4887 23.5284 68.9743 23.0115 69.3217C22.4907 69.6626 21.9114 69.7564 21.2735 69.603C21.0195 69.5418 20.7983 69.4804 20.61 69.4187C20.4217 69.3569 20.2156 69.2772 19.9917 69.1794C19.7627 69.0804 19.5701 68.9656 19.414 68.8347C19.2538 68.6975 19.1036 68.5407 18.9634 68.3643C18.8243 68.1828 18.7174 67.9678 18.6428 67.7195C18.5694 67.466 18.5296 67.1849 18.5234 66.8762C18.5221 66.8101 18.5227 66.7115 18.5252 66.5805C18.5226 66.4482 18.5194 66.3542 18.5157 66.2985C18.5132 66.2375 18.5111 66.163 18.5093 66.0748C18.5036 65.9801 18.4982 65.9076 18.4934 65.857C18.4885 65.8065 18.4816 65.7527 18.4727 65.6957C18.4587 65.6375 18.4448 65.5903 18.4312 65.5541L18.1217 65.3644L18.2516 64.7951L19.146 65.0102C19.1829 65.1124 19.2099 65.234 19.2269 65.3753C19.2451 65.5113 19.2553 65.6344 19.2575 65.7446C19.2597 65.8549 19.2618 66.0254 19.2638 66.2563C19.267 66.4819 19.2708 66.6693 19.275 66.8185C19.2874 67.2438 19.3741 67.5828 19.5353 67.8355C19.6964 68.0882 19.9243 68.2883 20.2188 68.436C19.8656 67.8025 19.7601 67.1737 19.9025 66.5498ZM21.0004 68.7145L21.4437 68.8211C21.8378 68.9159 22.2113 68.8495 22.5641 68.6217C22.9129 68.3875 23.1324 68.0728 23.2225 67.6776C23.3163 67.2668 23.2739 66.8891 23.0954 66.5445C22.9181 66.1947 22.635 65.973 22.2461 65.8794C21.8313 65.7796 21.481 65.8407 21.1951 66.0627C20.9053 66.2782 20.7218 66.5549 20.6447 66.8929C20.4905 67.5688 20.609 68.176 21.0004 68.7145Z" fill="#F4F4EA"/>
<path d="M21.9325 58.9576L22.2656 58.2303L25.6354 59.8433L26.3616 58.2576L22.9917 56.6446L23.3248 55.9173L26.6947 57.5303L26.9278 57.0211L28.6092 57.8259L28.3094 58.4805L27.2658 58.0697L24.9141 63.2048L20.8732 61.2706L21.2063 60.5432L24.5761 62.1563L25.3023 60.5706L21.9325 58.9576Z" fill="#F4F4EA"/>
<path d="M29.6681 52.334C29.9855 51.8856 30.0848 51.4222 29.966 50.9439L30.7438 50.911C30.7621 50.9775 30.7748 51.0564 30.782 51.1478C30.7892 51.2392 30.7898 51.3722 30.7839 51.5467C30.778 51.7212 30.7324 51.9194 30.6471 52.1414C30.565 52.359 30.4468 52.5767 30.2928 52.7944C29.9323 53.3037 29.4497 53.6071 28.845 53.7047C28.2403 53.8022 27.6804 53.6611 27.1652 53.2814C26.6628 52.9112 26.3604 52.4201 26.2579 51.808C26.1512 51.1927 26.278 50.6305 26.6385 50.1211C26.9866 49.6292 27.4585 49.341 28.0539 49.2565C28.6451 49.1689 29.1961 49.3134 29.707 49.6899C29.8015 49.7595 29.8757 49.8208 29.9296 49.8738L27.873 52.7797C28.1952 52.9244 28.5241 52.9581 28.8597 52.8809C29.1984 52.7993 29.4678 52.617 29.6681 52.334ZM27.2825 50.5957C27.0915 50.8656 26.9971 51.1604 26.9995 51.4801C27.005 51.7955 27.1027 52.0728 27.2926 52.3122L28.8362 50.1311C28.5895 50.0089 28.3143 49.9916 28.0107 50.0792C27.7101 50.1623 27.4674 50.3345 27.2825 50.5957Z" fill="#F4F4EA"/>
<path d="M31.9201 44.6415C31.6393 44.9484 31.5001 45.3018 31.5027 45.7017C31.5015 46.0979 31.6574 46.4449 31.9704 46.7427C32.2872 47.0441 32.6396 47.1843 33.0275 47.1633C33.4191 47.1383 33.7571 46.9704 34.0416 46.6596C34.1676 46.5219 34.2729 46.3793 34.3575 46.2316C34.4457 46.0799 34.5046 45.9484 34.5344 45.8369C34.5642 45.7254 34.585 45.6237 34.5968 45.5319C34.6083 45.4324 34.6132 45.3599 34.6116 45.3142L34.6093 45.2457L35.4075 45.3095C35.4088 45.3476 35.4086 45.3952 35.4068 45.4524C35.4048 45.502 35.3913 45.5996 35.3665 45.7452C35.3416 45.8909 35.3036 46.035 35.2525 46.1778C35.205 46.3166 35.1266 46.4812 35.0173 46.6716C34.9081 46.8621 34.776 47.0419 34.6212 47.211C34.1927 47.6792 33.6726 47.9315 33.061 47.9679C32.4491 47.9966 31.9055 47.7849 31.4302 47.3328C30.9588 46.8843 30.7179 46.3498 30.7077 45.7292C30.7011 45.1046 30.912 44.5583 31.3405 44.0901C31.7762 43.6141 32.2628 43.3116 32.8002 43.1825L33.374 43.7284L32.9797 44.1592L32.7128 44.0598C32.4148 44.1958 32.1506 44.3898 31.9201 44.6415Z" fill="#F4F4EA"/>
<path d="M39.0134 42.7775L38.4135 43.3067L35.9937 40.4602L34.7938 41.5186L34.3119 40.9517L37.3117 38.3057L37.7936 38.8726L36.5937 39.931L39.0134 42.7775Z" fill="#F4F4EA"/>
<path d="M44.1751 36.9567C44.3884 37.2631 44.4632 37.6037 44.3993 37.9785C44.3398 38.3503 44.1565 38.6469 43.8494 38.8685L41.6889 40.4271L39.1288 36.7507L41.1595 35.2857C41.4493 35.0766 41.7674 35.0016 42.114 35.0606C42.4574 35.1153 42.7298 35.287 42.9309 35.5759C43.0132 35.6941 43.0661 35.84 43.0896 36.0138C43.1174 36.1844 43.0971 36.3371 43.0286 36.472C43.214 36.4303 43.4202 36.4558 43.6472 36.5485C43.8742 36.6412 44.0501 36.7772 44.1751 36.9567ZM42.743 37.2797L41.2314 38.3703L41.8943 39.3223L43.4059 38.2317C43.5313 38.1412 43.6038 38.0166 43.6232 37.8579C43.647 37.6961 43.6147 37.5517 43.5263 37.4248C43.4379 37.2978 43.3163 37.2212 43.1615 37.1948C43.008 37.1609 42.8685 37.1892 42.743 37.2797ZM41.6029 35.9225L40.221 36.9195L40.7879 37.7335L42.2477 36.6804C42.3238 36.6123 42.3683 36.5177 42.3814 36.3965C42.3914 36.2709 42.3583 36.1534 42.2821 36.044C42.2059 35.9346 42.1015 35.8685 41.9688 35.8459C41.833 35.8189 41.7111 35.8445 41.6029 35.9225Z" fill="#F4F4EA"/>
<path d="M46.15 31.9316C46.689 31.6172 47.2653 31.5371 47.879 31.6916C48.4972 31.8433 48.9583 32.1886 49.2623 32.7274C49.5689 33.2709 49.6318 33.8547 49.4512 34.4787C49.2725 35.0954 48.9137 35.561 48.3747 35.8754C47.8311 36.1926 47.2502 36.2753 46.6319 36.1235C46.0156 35.9645 45.5542 35.6132 45.2476 35.0697C44.9437 34.5308 44.881 33.9531 45.0597 33.3364C45.243 32.717 45.6064 32.2488 46.15 31.9316ZM47.6743 32.4685C47.2749 32.3681 46.8978 32.4215 46.5431 32.6284C46.1883 32.8353 45.9504 33.1408 45.8294 33.5449C45.7057 33.9443 45.7421 34.3182 45.9386 34.6665C46.1378 35.0196 46.4394 35.2449 46.8434 35.3426C47.2475 35.4402 47.6269 35.3856 47.9816 35.1786C48.3363 34.9717 48.5719 34.6675 48.6884 34.2662C48.8095 33.8622 48.7705 33.4836 48.5713 33.1306C48.3748 32.7822 48.0758 32.5615 47.6743 32.4685Z" fill="#F4F4EA"/>
<path d="M55.4163 28.0648C55.0333 28.2272 54.7609 28.4903 54.5992 28.8543C54.4354 29.2133 54.4356 29.5926 54.5999 29.9922C54.7661 30.3967 55.0311 30.6695 55.3948 30.8108C55.7634 30.95 56.1416 30.9374 56.5295 30.7729C56.7014 30.7001 56.8563 30.6141 56.9944 30.5151C57.1373 30.4139 57.2453 30.3189 57.3183 30.2301C57.3913 30.1412 57.4521 30.0575 57.5005 29.979C57.5519 29.8936 57.5862 29.8298 57.6035 29.7877L57.6295 29.7246L58.3338 30.1124C58.3194 30.1475 58.2996 30.1906 58.2745 30.2418C58.2523 30.286 58.2 30.369 58.1174 30.4908C58.0349 30.6127 57.941 30.7278 57.8356 30.8362C57.7351 30.9425 57.5958 31.0595 57.4177 31.1871C57.2395 31.3148 57.0448 31.4233 56.8337 31.5128C56.2493 31.7605 55.6698 31.7745 55.0951 31.5547C54.5233 31.3279 54.1127 30.9111 53.8633 30.3044C53.6159 29.7026 53.6149 29.118 53.8603 28.5506C54.1105 27.9811 54.5278 27.5726 55.1121 27.3249C55.7063 27.073 56.2758 26.9996 56.8206 27.1046L57.1217 27.8372L56.584 28.0651L56.3805 27.8646C56.052 27.8649 55.7306 27.9316 55.4163 28.0648Z" fill="#F4F4EA"/>
<path d="M63.4525 24.252C64.0516 24.0776 64.6318 24.1392 65.1929 24.4368C65.7592 24.7329 66.1268 25.1786 66.2956 25.7738C66.4659 26.3741 66.3894 26.9546 66.0662 27.5153C65.7466 28.0694 65.2873 28.4337 64.6882 28.6082C64.0839 28.7841 63.4987 28.724 62.9324 28.4279C62.3697 28.1251 62.0033 27.6736 61.833 27.0733C61.6641 26.4781 61.7395 25.9034 62.0591 25.3493C62.3838 24.7937 62.8483 24.428 63.4525 24.252ZM64.8103 25.1398C64.4449 24.9462 64.0651 24.9069 63.6708 25.0217C63.2765 25.1365 62.9727 25.3749 62.7594 25.737C62.5447 26.0939 62.4919 26.4648 62.6011 26.8496C62.7117 27.2395 62.9522 27.5306 63.3227 27.7226C63.6932 27.9147 64.0756 27.9533 64.4698 27.8385C64.8641 27.7237 65.1654 27.486 65.3735 27.1255C65.5868 26.7634 65.6381 26.3874 65.5275 25.9974C65.4184 25.6126 65.1793 25.3267 64.8103 25.1398Z" fill="#F4F4EA"/>
<path d="M70.296 27.0705L69.5119 27.2294L68.6389 22.8353L71.8379 22.1867L71.9828 22.9165L69.568 23.4061L70.296 27.0705Z" fill="#F4F4EA"/>
<path d="M76.9578 21.3229C77.5079 21.2516 78.0124 21.4121 78.4714 21.8043C78.9298 22.1913 79.1983 22.6916 79.2771 23.3052C79.3579 23.9347 79.2119 24.4941 78.8392 24.9834C78.4665 25.4727 77.9522 25.7599 77.2963 25.8449C76.9473 25.8902 76.5588 25.8383 76.1311 25.6894L76.3878 27.689L75.5944 27.7919L74.8029 21.6264L75.4376 21.5442L75.5939 22.0079C75.7872 21.8377 76.0099 21.6878 76.2621 21.5583C76.5197 21.4281 76.7515 21.3496 76.9578 21.3229ZM76.901 22.137C76.5156 22.1923 76.1323 22.3899 75.7511 22.7297L76.0211 24.8324C76.4331 25.0264 76.8507 25.096 77.2738 25.0411C77.6705 24.9897 77.9831 24.8067 78.2115 24.492C78.4453 24.1767 78.536 23.8154 78.4837 23.408C78.4321 23.006 78.2535 22.6823 77.9477 22.4369C77.6466 22.1855 77.2977 22.0855 76.901 22.137Z" fill="#F4F4EA"/>
<path d="M81.9369 24.9047C81.6496 24.6427 81.4944 24.3067 81.4713 23.8967C81.4481 23.4867 81.5645 23.1358 81.8204 22.8439C82.0817 22.5518 82.444 22.3931 82.9073 22.3676C83.6368 22.3275 84.2233 22.4021 84.6667 22.5914L84.6509 22.3119C84.6344 22.019 84.5151 21.7986 84.293 21.6505C84.0707 21.4971 83.8051 21.4289 83.4962 21.4459C83.0489 21.4705 82.6935 21.5621 82.43 21.7208L82.4001 22.0429L81.7611 22.078L81.7169 21.2953C82.0105 21.1029 82.2803 20.9625 82.5264 20.8742C82.7775 20.7803 83.0868 20.7233 83.4542 20.7031C84.0294 20.6715 84.4987 20.8006 84.8623 21.0904C85.2256 21.3749 85.4243 21.818 85.4583 22.4198L85.6095 25.0955L84.9705 25.1306L84.8052 24.4747C84.551 24.7023 84.2888 24.8849 84.0189 25.0226C83.7542 25.16 83.4381 25.2388 83.0707 25.259C82.6074 25.2844 82.2294 25.1663 81.9369 24.9047ZM82.2461 23.8541C82.2572 24.0511 82.3442 24.2199 82.5071 24.3606C82.675 24.4955 82.9027 24.5551 83.1903 24.5393C83.7175 24.5104 84.2304 24.2285 84.729 23.6937L84.7069 23.3023C84.2582 23.1133 83.6983 23.0372 83.0273 23.0741C82.7451 23.0896 82.5415 23.1729 82.4165 23.324C82.2911 23.4697 82.2344 23.6464 82.2461 23.8541Z" fill="#F4F4EA"/>
<path d="M88.3143 25.048L87.5144 25.0327L87.581 20.5532L88.3809 20.5685L88.3545 22.3443L90.818 22.3917L90.8444 20.6159L91.6443 20.6313L91.5777 25.1108L90.7778 25.0954L90.807 23.1356L88.3434 23.0883L88.3143 25.048Z" fill="#F4F4EA"/>
<path d="M97.524 25.5771L96.7278 25.4999L97.0617 21.7789L96.8308 21.7565L94.8725 25.32L93.479 25.1849L93.8794 20.7229L94.6757 20.8001L94.3418 24.5211L94.501 24.5365L96.4752 20.9745L97.9244 21.115L97.524 25.5771Z" fill="#F4F4EA"/>
<path d="M103.332 26.483L102.544 26.3462L102.796 24.8067L101.077 24.5085C100.683 24.4401 100.37 24.2423 100.137 23.915C99.9091 23.5886 99.8271 23.2307 99.8908 22.8412L100.13 21.3806L100.918 21.5174L100.679 22.978C100.65 23.1569 100.685 23.3227 100.784 23.4753C100.89 23.6235 101.029 23.7126 101.202 23.7427L102.921 24.0409L103.267 21.9249L104.055 22.0617L103.332 26.483Z" fill="#F4F4EA"/>
<path d="M107.536 26.6772C108.066 26.8203 108.529 26.752 108.926 26.4723L109.244 27.1961C109.19 27.2367 109.122 27.2763 109.04 27.3151C108.959 27.3539 108.836 27.401 108.674 27.4565C108.511 27.512 108.311 27.5383 108.075 27.5354C107.844 27.5338 107.6 27.4984 107.343 27.4289C106.74 27.2664 106.282 26.9163 105.969 26.3788C105.655 25.8412 105.578 25.2625 105.737 24.6425C105.892 24.0381 106.232 23.5803 106.757 23.2692C107.284 22.9529 107.849 22.876 108.452 23.0385C109.034 23.1955 109.474 23.5407 109.772 24.0741C110.071 24.6023 110.142 25.1738 109.985 25.7886C109.956 25.9022 109.927 25.9938 109.898 26.0634L106.461 25.1361C106.447 25.4914 106.537 25.8141 106.733 26.1043C106.933 26.396 107.201 26.5869 107.536 26.6772ZM108.253 23.8135C107.934 23.7274 107.627 23.7414 107.334 23.8555C107.046 23.971 106.826 24.1605 106.676 24.4238L109.256 25.1197C109.277 24.8437 109.191 24.5775 108.998 24.3211C108.81 24.066 108.562 23.8968 108.253 23.8135Z" fill="#F4F4EA"/>
<path d="M112.905 29.0648L112.156 28.7847L113.661 24.5651L114.41 24.8452L113.813 26.518L116.122 27.3807L116.718 25.708L117.468 25.9881L115.962 30.2077L115.213 29.9276L115.872 28.0815L113.564 27.2187L112.905 29.0648Z" fill="#F4F4EA"/>
<path d="M118.429 31.2631L117.708 30.9159L119.583 26.8472L120.304 27.1944L119.56 28.8073L121.78 29.8765L122.524 28.2636L123.244 28.6107L121.369 32.6795L120.649 32.3323L121.469 30.5522L119.249 29.483L118.429 31.2631Z" fill="#F4F4EA"/>
<path d="M127.173 30.7919C127.702 31.1223 128.048 31.5988 128.21 32.2215C128.376 32.847 128.3 33.4252 127.982 33.956C127.662 34.4914 127.19 34.8285 126.566 34.9672C125.949 35.1041 125.377 35.0074 124.847 34.677C124.313 34.3437 123.963 33.8644 123.797 33.2389C123.638 32.6116 123.719 32.0303 124.039 31.4949C124.357 30.964 124.824 30.6302 125.441 30.4932C126.062 30.3591 126.639 30.4586 127.173 30.7919ZM127.443 32.4123C127.337 32.0071 127.11 31.6957 126.762 31.4783C126.414 31.2608 126.037 31.1952 125.631 31.2813C125.228 31.3629 124.923 31.5753 124.718 31.9185C124.51 32.2663 124.461 32.6442 124.571 33.0523C124.681 33.4603 124.91 33.7731 125.258 33.9906C125.607 34.208 125.981 34.2722 126.383 34.1833C126.788 34.0971 127.095 33.8802 127.304 33.5324C127.509 33.1892 127.555 32.8158 127.443 32.4123Z" fill="#F4F4EA"/>
<path d="M134.776 34.3032L135.237 34.6743C135.054 34.9106 134.813 35.0349 134.514 35.0472C134.218 35.0553 133.93 34.9473 133.652 34.7232C133.374 34.4992 133.204 34.2393 133.143 33.9437C133.085 33.6438 133.147 33.3757 133.33 33.1395L133.785 33.5056C133.689 33.6473 133.656 33.7816 133.686 33.9084C133.719 34.031 133.819 34.1592 133.985 34.2929C134.151 34.4267 134.294 34.4941 134.415 34.4953C134.539 34.4997 134.66 34.4357 134.776 34.3032ZM132.196 39.927L131.572 39.4254L133.824 36.5145L133.624 36.354L130.126 38.2618L129.03 37.379L131.77 33.8352L132.394 34.3368L130.142 37.2477L130.286 37.3631L133.796 35.4654L134.936 36.3833L132.196 39.927Z" fill="#F4F4EA"/>
<path d="M140.02 41.3401C140.428 41.8128 140.616 42.3703 140.586 43.0129C140.559 43.6595 140.315 44.189 139.854 44.6015C139.389 45.0176 138.838 45.1992 138.201 45.1465C137.572 45.0943 137.053 44.8319 136.646 44.3592C136.235 43.8826 136.043 43.321 136.07 42.6744C136.104 42.0283 136.354 41.4972 136.819 41.0811C137.28 40.6686 137.825 40.4885 138.455 40.5407C139.087 40.597 139.609 40.8635 140.02 41.3401ZM139.797 42.9675C139.817 42.5492 139.692 42.1846 139.424 41.8735C139.156 41.5625 138.815 41.3879 138.402 41.3497C137.993 41.3079 137.639 41.4204 137.341 41.6871C137.039 41.9573 136.88 42.3036 136.864 42.7259C136.848 43.1481 136.974 43.5148 137.242 43.8258C137.51 44.1369 137.849 44.3095 138.259 44.3437C138.672 44.3819 139.029 44.2659 139.331 43.9956C139.63 43.7289 139.785 43.3862 139.797 42.9675Z" fill="#F4F4EA"/>
<path d="M141.081 50.2344L140.659 49.5548L143.801 47.5345L142.957 46.1753L143.583 45.773L145.693 49.171L145.067 49.5733L144.223 48.2141L141.081 50.2344Z" fill="#F4F4EA"/>
<path d="M145.647 56.278C145.306 56.4299 144.961 56.4376 144.612 56.3013C144.265 56.1698 144.016 55.9302 143.866 55.5826L142.81 53.1367L146.903 51.3143L147.895 53.6132C148.037 53.9413 148.043 54.2714 147.913 54.6035C147.788 54.9335 147.565 55.17 147.243 55.3132C147.112 55.3718 146.96 55.3958 146.787 55.3853C146.616 55.3797 146.472 55.3297 146.356 55.2355C146.358 55.4275 146.29 55.627 146.153 55.834C146.015 56.041 145.847 56.189 145.647 56.278ZM145.634 54.795L144.896 53.0836L143.836 53.5555L144.575 55.2669C144.636 55.4089 144.741 55.505 144.891 55.5552C145.042 55.6103 145.189 55.6064 145.33 55.5435C145.471 55.4806 145.571 55.3749 145.629 55.2265C145.694 55.0809 145.696 54.937 145.634 54.795ZM147.186 53.9289L146.511 52.3644L145.605 52.768L146.318 54.4206C146.368 54.5093 146.45 54.5719 146.565 54.6085C146.684 54.6429 146.805 54.633 146.926 54.5787C147.048 54.5245 147.134 54.4338 147.184 54.3066C147.238 54.1772 147.239 54.0513 147.186 53.9289Z" fill="#F4F4EA"/>
<path d="M146.326 60.3734C146.452 60.908 146.733 61.2847 147.168 61.5033L146.681 62.1229C146.619 62.0938 146.552 62.0525 146.479 61.9988C146.406 61.9451 146.307 61.8594 146.18 61.7418C146.054 61.6242 145.936 61.4607 145.826 61.2512C145.718 61.047 145.633 60.8151 145.571 60.5556C145.428 59.9482 145.519 59.3804 145.844 58.8521C146.168 58.3238 146.642 57.9845 147.264 57.8342C147.87 57.6878 148.436 57.7734 148.96 58.0912C149.49 58.4077 149.826 58.8697 149.969 59.477C150.108 60.0635 150.013 60.6132 149.684 61.1259C149.361 61.6374 148.891 61.9677 148.274 62.1167C148.16 62.1442 148.066 62.1616 147.991 62.1687L147.173 58.7038C146.853 58.8579 146.612 59.089 146.449 59.3972C146.287 59.7106 146.246 60.036 146.326 60.3734ZM149.192 59.6648C149.116 59.343 148.958 59.0794 148.717 58.874C148.478 58.6739 148.207 58.5693 147.904 58.5603L148.517 61.1609C148.771 61.0503 148.964 60.8499 149.099 60.5596C149.234 60.2745 149.265 59.9762 149.192 59.6648Z" fill="#F4F4EA"/>
<path d="M146.763 67.9633L146.726 67.1642L150.458 66.9996L150.385 65.4013L151.128 65.3685L151.312 69.3643L150.569 69.3971L150.495 67.7987L146.763 67.9633Z" fill="#F4F4EA"/>
<path d="M150.347 73.8202C150.394 73.4069 150.299 73.0407 150.061 72.7217C149.829 72.4033 149.499 72.218 149.07 72.1657C148.636 72.1128 148.268 72.2104 147.966 72.4584C147.663 72.7116 147.488 73.0476 147.441 73.4662C147.42 73.6517 147.418 73.8288 147.437 73.9976C147.454 74.1717 147.484 74.3123 147.526 74.4195C147.567 74.5266 147.61 74.6205 147.655 74.7011C147.704 74.7877 147.742 74.8488 147.771 74.8845L147.813 74.938L147.128 75.3624C147.105 75.3326 147.077 75.2943 147.045 75.2474C147.017 75.2064 146.971 75.1202 146.905 74.9886C146.84 74.8571 146.786 74.7189 146.743 74.574C146.7 74.4344 146.667 74.2557 146.643 74.038C146.619 73.8202 146.621 73.5974 146.646 73.3695C146.718 72.7389 146.991 72.2268 147.465 71.8333C147.944 71.4457 148.509 71.2915 149.16 71.3708C149.806 71.4495 150.316 71.7345 150.689 72.226C151.062 72.7227 151.213 73.2863 151.141 73.917C151.068 74.5582 150.852 75.0906 150.493 75.5142L149.707 75.4185L149.773 74.8382L150.047 74.7588C150.209 74.4722 150.309 74.1594 150.347 73.8202Z" fill="#F4F4EA"/>
<path d="M145.598 79.425L145.812 78.6543L149.398 79.7033L149.827 78.1619L150.541 78.3708L149.468 82.2243L148.754 82.0154L149.183 80.474L145.598 79.425Z" fill="#F4F4EA"/>
<path d="M144.216 87.1445C143.878 86.9863 143.643 86.729 143.51 86.3726C143.375 86.0211 143.385 85.6725 143.54 85.3269L144.628 82.8952L148.686 84.7934L147.663 87.079C147.517 87.4052 147.28 87.6296 146.95 87.7522C146.626 87.877 146.304 87.8649 145.985 87.7158C145.855 87.6547 145.736 87.555 145.628 87.4164C145.519 87.2827 145.46 87.1403 145.451 86.9892C145.312 87.1183 145.121 87.1995 144.878 87.2331C144.635 87.2667 144.414 87.2372 144.216 87.1445ZM145.294 86.1472L146.055 84.4457L145.004 83.9542L144.243 85.6557C144.18 85.7968 144.179 85.941 144.242 86.088C144.303 86.24 144.403 86.3487 144.543 86.4143C144.683 86.4798 144.827 86.4852 144.974 86.4304C145.124 86.3828 145.23 86.2883 145.294 86.1472ZM146.96 86.7502L147.656 85.1948L146.758 84.7745L146.023 86.4175C145.991 86.5146 146 86.6188 146.049 86.7302C146.104 86.8439 146.191 86.929 146.312 86.9855C146.433 87.042 146.556 87.0468 146.682 86.9998C146.813 86.9551 146.906 86.8719 146.96 86.7502Z" fill="#F4F4EA"/>
<path d="M141.737 90.5202C141.442 90.9833 141.365 91.4509 141.506 91.9229L140.731 91.9931C140.71 91.9276 140.693 91.8494 140.681 91.7584C140.67 91.6675 140.663 91.5348 140.66 91.3602C140.658 91.1857 140.694 90.9855 140.769 90.7597C140.84 90.5384 140.948 90.3153 141.091 90.0905C141.427 89.5645 141.894 89.2382 142.494 89.1118C143.093 88.9853 143.659 89.0993 144.192 89.4537C144.712 89.7993 145.038 90.2752 145.169 90.8816C145.305 91.4909 145.206 92.0585 144.87 92.5845C144.546 93.0926 144.088 93.4031 143.498 93.5161C142.911 93.632 142.354 93.5142 141.825 93.1628C141.728 93.0978 141.651 93.0401 141.594 92.9898L143.509 89.9888C143.18 89.8598 142.85 89.8419 142.519 89.9352C142.184 90.033 141.924 90.228 141.737 90.5202ZM144.204 92.1415C144.382 91.8628 144.462 91.5638 144.444 91.2446C144.424 90.93 144.313 90.6577 144.112 90.4278L142.674 92.6802C142.926 92.7904 143.202 92.7945 143.501 92.6924C143.798 92.5949 144.032 92.4113 144.204 92.1415Z" fill="#F4F4EA"/>
<path d="M137.89 94.8908L138.406 94.2791L141.775 97.2325L141.259 97.8441L139.923 96.6733L138.335 98.5572L139.671 99.728L139.155 100.34L135.786 97.3863L136.302 96.7747L137.776 98.0667L139.364 96.1829L137.89 94.8908Z" fill="#F4F4EA"/>
<path d="M133.992 99.382L134.571 98.8301L137.6 102.131L137.021 102.683L135.82 101.374L134.036 103.074L135.237 104.382L134.658 104.934L131.629 101.634L132.208 101.082L133.533 102.526L135.317 100.826L133.992 99.382Z" fill="#F4F4EA"/>
<path d="M131.239 107.896C130.742 108.274 130.181 108.424 129.554 108.346C128.922 108.27 128.423 107.984 128.057 107.485C127.687 106.983 127.554 106.41 127.657 105.768C127.76 105.133 128.059 104.627 128.555 104.248C129.056 103.867 129.621 103.714 130.253 103.789C130.883 103.871 131.383 104.164 131.753 104.667C132.119 105.165 132.252 105.732 132.149 106.366C132.043 107.004 131.739 107.514 131.239 107.896ZM129.662 107.548C130.071 107.599 130.438 107.5 130.764 107.251C131.091 107.002 131.29 106.67 131.361 106.253C131.435 105.841 131.354 105.474 131.117 105.152C130.876 104.825 130.55 104.638 130.138 104.591C129.725 104.543 129.356 104.644 129.029 104.893C128.703 105.142 128.506 105.473 128.439 105.886C128.368 106.302 128.453 106.674 128.693 107C128.93 107.322 129.253 107.505 129.662 107.548Z" fill="#F4F4EA"/>
<path d="M124.636 111.58C124.99 111.362 125.221 111.061 125.327 110.676C125.437 110.296 125.381 109.921 125.161 109.549C124.938 109.173 124.637 108.942 124.257 108.856C123.873 108.772 123.501 108.841 123.142 109.061C122.983 109.159 122.842 109.267 122.72 109.385C122.594 109.507 122.501 109.617 122.442 109.716C122.383 109.815 122.335 109.907 122.299 109.992C122.26 110.084 122.236 110.152 122.225 110.196L122.208 110.263L121.456 109.983C121.466 109.946 121.479 109.9 121.496 109.846C121.512 109.799 121.551 109.709 121.615 109.576C121.679 109.443 121.755 109.315 121.843 109.192C121.927 109.072 122.047 108.935 122.205 108.782C122.362 108.629 122.538 108.493 122.734 108.373C123.275 108.041 123.845 107.941 124.444 108.074C125.042 108.214 125.508 108.566 125.843 109.131C126.175 109.69 126.261 110.269 126.101 110.868C125.937 111.469 125.585 111.936 125.044 112.268C124.494 112.605 123.942 112.762 123.389 112.739L122.985 112.058L123.482 111.752L123.713 111.921C124.037 111.872 124.345 111.758 124.636 111.58Z" fill="#F4F4EA"/>
<path d="M117.459 111.404L118.174 111.045L119.808 114.405L121.237 113.686L121.563 114.356L117.988 116.151L117.663 115.482L119.093 114.764L117.459 111.404Z" fill="#F4F4EA"/>
<path d="M114.131 113.06L115.761 117.233L115.019 117.531L114.431 116.026L112.702 116.722C112.335 116.869 111.971 116.867 111.608 116.714C111.245 116.561 110.991 116.301 110.848 115.933C110.702 115.561 110.709 115.19 110.868 114.821C111.03 114.457 111.294 114.202 111.66 114.054L114.131 113.06ZM113.671 114.081L111.942 114.777C111.769 114.847 111.646 114.965 111.574 115.132C111.504 115.304 111.502 115.475 111.568 115.644C111.633 115.812 111.748 115.93 111.912 115.997C112.077 116.068 112.246 116.069 112.419 115.999L114.148 115.303L113.671 114.081Z" fill="#F4F4EA"/>
<path d="M108.204 115.469L108.973 115.245L110.195 119.555L109.427 119.778L108.942 118.07L107.829 118.394C107.861 118.918 107.716 119.405 107.394 119.854C107.074 120.308 106.653 120.611 106.131 120.763C105.532 120.938 104.952 120.876 104.39 120.579C103.824 120.282 103.456 119.837 103.288 119.242C103.117 118.641 103.194 118.061 103.517 117.5C103.837 116.946 104.296 116.582 104.895 116.407C105.448 116.246 105.991 116.285 106.525 116.524C107.06 116.768 107.437 117.15 107.656 117.67L108.739 117.354L108.204 115.469ZM104.773 119.876C105.138 120.069 105.518 120.109 105.912 119.994C106.307 119.879 106.611 119.64 106.824 119.278C107.039 118.921 107.091 118.551 106.982 118.166C106.872 117.776 106.631 117.485 106.261 117.293C105.89 117.101 105.508 117.062 105.113 117.177C104.719 117.292 104.418 117.529 104.21 117.89C103.996 118.252 103.945 118.628 104.056 119.018C104.165 119.403 104.404 119.689 104.773 119.876Z" fill="#F4F4EA"/>
</g>
<g filter="url(#filter1_d_502_1389)">
<path d="M48.8544 58.689L47.5026 58.2288L47.7318 55.6854L50.5057 54.0082L51.8575 54.4684L49.1101 56.1546L48.8544 58.689ZM51.6375 59.6364L50.2857 59.1762L50.515 56.6328L53.2888 54.9556L54.6406 55.4158L51.8933 57.102L51.6375 59.6364ZM57.9212 54.0528L62.5863 55.6409C63.3197 55.8905 63.783 56.3269 63.9762 56.95C64.1748 57.5655 64.0495 58.1889 63.6004 58.8201C63.3623 59.1547 63.0226 59.4547 62.5813 59.7202C62.1454 59.978 61.7446 60.1249 61.3787 60.161C61.67 60.4302 61.812 60.8091 61.8045 61.2978C61.8059 61.7895 61.6577 62.2445 61.3601 62.6628C60.8894 63.3244 60.2124 63.7977 59.3291 64.0827C58.46 64.3631 57.6412 64.3725 56.8725 64.1108L51.9556 62.437L57.9212 54.0528ZM54.0114 61.8615L57.603 63.0842C58.0006 63.2195 58.4382 63.1984 58.9157 63.0209C59.4075 62.8388 59.7805 62.569 60.0348 62.2116C60.2891 61.8542 60.3733 61.4813 60.2874 61.0931C60.2103 60.7079 59.9729 60.4476 59.5753 60.3122L55.9837 59.0896L54.0114 61.8615ZM56.7142 58.063L60.054 59.1999C60.4128 59.3126 60.8123 59.2833 61.2525 59.1119C61.707 58.936 62.0478 58.6883 62.2751 58.3689C62.5078 58.0419 62.5809 57.7078 62.4944 57.3667C62.4221 57.0209 62.2093 56.7878 61.8559 56.6675L58.5161 55.5306L56.7142 58.063ZM65.0002 64.0294L62.5736 66.0516L61.2483 65.6004L70.1297 58.2087L73.3104 59.2915L70.2605 68.6683L68.9351 68.2171L69.7714 65.6536L65.0002 64.0294ZM70.3666 59.5647L66.0886 63.1246L70.144 64.5051L71.6124 59.9888L70.3666 59.5647ZM71.8482 69.2088L77.8139 60.8246L82.1742 62.3089C83.1107 62.6277 83.703 63.1836 83.951 63.9765C84.2132 64.7648 84.0576 65.562 83.484 66.3681C82.9159 67.1666 82.0975 67.7383 81.029 68.083C79.9694 68.4308 78.9713 68.4453 78.0347 68.1265L74.9998 67.0933L73.1736 69.6599L71.8482 69.2088ZM81.4031 63.3925L78.3681 62.3594L75.7708 66.0097L78.8058 67.0428C79.3448 67.2263 79.9518 67.2062 80.6267 66.9825C81.3072 66.7513 81.8178 66.3961 82.1587 65.917C82.4996 65.4379 82.5923 64.9451 82.4367 64.4387C82.2954 63.9278 81.9509 63.579 81.4031 63.3925ZM87.1454 64.0012L91.8105 65.5892C92.5439 65.8389 93.0072 66.2753 93.2004 66.8984C93.399 67.5139 93.2737 68.1373 92.8246 68.7685C92.5865 69.1031 92.2468 69.4031 91.8055 69.6685C91.3697 69.9264 90.9688 70.0733 90.6029 70.1093C90.8942 70.3786 91.0362 70.7575 91.0287 71.2462C91.0301 71.7379 90.882 72.1929 90.5843 72.6111C90.1136 73.2727 89.4366 73.7461 88.5533 74.0311C87.6843 74.3115 86.8654 74.3209 86.0967 74.0592L81.1798 72.3854L87.1454 64.0012ZM83.2356 71.8099L86.8272 73.0326C87.2248 73.1679 87.6624 73.1468 88.1399 72.9693C88.6317 72.7872 89.0047 72.5174 89.259 72.16C89.5133 71.8025 89.5975 71.4297 89.5116 71.0415C89.4345 70.6563 89.1971 70.396 88.7995 70.2606L85.2079 69.038L83.2356 71.8099ZM85.9384 68.0113L89.2782 69.1483C89.637 69.261 90.0365 69.2317 90.4767 69.0603C90.9312 68.8844 91.272 68.6367 91.4993 68.3173C91.732 67.9903 91.8051 67.6562 91.7186 67.315C91.6463 66.9692 91.4335 66.7362 91.0801 66.6159L87.7403 65.479L85.9384 68.0113ZM94.2245 73.9778L91.7978 75.9999L90.4725 75.5488L99.3539 68.1571L102.535 69.2399L99.4847 78.6167L98.1594 78.1655L98.9956 75.602L94.2245 73.9778ZM99.5909 69.5131L95.3128 73.073L99.3682 74.4535L100.837 69.9372L99.5909 69.5131ZM101.072 79.1572L107.038 70.7729L111.398 72.2572C112.335 72.5761 112.927 73.1319 113.175 73.9249C113.437 74.7132 113.282 75.5104 112.708 76.3165C112.14 77.115 111.322 77.6866 110.253 78.0314C109.194 78.3792 108.196 78.3937 107.259 78.0749L104.224 77.0417L102.398 79.6083L101.072 79.1572ZM110.627 73.3409L107.592 72.3078L104.995 75.958L108.03 76.9912C108.569 77.1747 109.176 77.1546 109.851 76.9309C110.531 76.6996 111.042 76.3445 111.383 75.8654C111.724 75.3863 111.816 74.8935 111.661 74.3871C111.52 73.8761 111.175 73.5274 110.627 73.3409ZM114.156 80.7628L111.729 82.7849L110.404 82.3338L119.285 74.9421L122.466 76.0249L119.416 85.4016L118.091 84.9505L118.927 82.387L114.156 80.7628ZM119.522 76.2981L115.244 79.858L119.3 81.2385L120.768 76.7222L119.522 76.2981ZM126.946 85.2726L125.594 84.8125L128.342 83.1262L128.597 80.5918L129.949 81.052L129.72 83.5954L126.946 85.2726ZM124.163 84.3252L122.811 83.865L125.558 82.1788L125.814 79.6444L127.166 80.1046L126.937 82.648L124.163 84.3252Z" fill="#F4F4EA"/>
</g>
<path d="M32.6626 87.5044C28.3595 55.2905 52.2247 35.4561 80.6907 31.6537C109.157 27.8514 134.693 43.1855 137.728 65.9036C139.173 75.463 134.943 100.56 100.484 110.712" stroke="#625D47"/>
<path d="M32.5298 86.5132C28.2267 54.2993 52.0919 34.4649 80.5579 30.6625C109.024 26.8601 134.56 42.1943 137.595 64.9123C139.04 74.4718 134.662 99.606 100.203 109.758" stroke="#F4F4EA"/>
<g filter="url(#filter2_d_502_1389)">
<path d="M39.7228 92.2245C39.3432 91.6973 38.8201 91.3571 38.1534 91.2038C37.4899 91.0551 36.8992 91.1205 36.3813 91.4C35.8145 91.7059 35.4784 92.1531 35.373 92.7418C35.2758 93.3324 35.404 93.8732 35.7576 94.3644C36.1404 94.8961 36.6635 95.2363 37.327 95.3851C37.9986 95.5357 38.5933 95.4713 39.1113 95.1918C39.6829 94.8832 40.0133 94.4328 40.1025 93.8404C40.1997 93.2498 40.0731 92.7112 39.7228 92.2245ZM40.4557 91.829C40.9585 92.5274 41.127 93.275 40.961 94.0716C40.7949 94.8682 40.3406 95.4669 39.5979 95.8677C38.8503 96.2711 38.0269 96.362 37.1277 96.1402C36.2285 95.9184 35.5275 95.4584 35.0246 94.7599C34.525 94.066 34.3582 93.3207 34.5243 92.5241C34.6903 91.7275 35.1471 91.1275 35.8947 90.7241C36.6374 90.3233 37.4583 90.2337 38.3575 90.4555C39.2567 90.6772 39.9561 91.1351 40.4557 91.829Z" fill="#F4F4EA"/>
<path d="M43.831 94.9972L46.8431 98.109L46.2161 98.5197L43.7832 96.0063L39.2893 98.9495L38.7101 98.3511L43.831 94.9972Z" fill="#F4F4EA"/>
<path d="M43.2815 103.528L48.0321 99.6672L50.226 101.309C50.6973 101.661 50.9358 102.092 50.9416 102.601C50.9562 103.109 50.7351 103.549 50.2783 103.92C49.8259 104.288 49.2714 104.479 48.6148 104.492C47.9626 104.508 47.4009 104.34 46.9297 103.988L45.4026 102.845L43.9484 104.027L43.2815 103.528ZM49.612 101.808L48.0849 100.665L46.0166 102.346L47.5437 103.489C47.8149 103.691 48.1584 103.787 48.5742 103.775C48.9942 103.76 49.34 103.642 49.6115 103.422C49.8829 103.201 50.0176 102.928 50.0155 102.604C50.0221 102.279 49.8876 102.014 49.612 101.808Z" fill="#F4F4EA"/>
<path d="M52.3841 106.42L55.5113 107.987L57.2941 106.097L58.0387 106.47L53.8387 110.924L53.0942 110.55L54.997 108.533L51.8699 106.965L49.967 108.983L49.2224 108.61L53.4224 104.156L54.167 104.53L52.3841 106.42Z" fill="#F4F4EA"/>
<path d="M61.6027 107.628C61.9818 107.571 62.3522 107.597 62.7137 107.706C63.0753 107.814 63.3457 107.981 63.5249 108.206C63.7094 108.433 63.7983 108.692 63.7914 108.982C63.7899 109.275 63.727 109.582 63.6028 109.903C63.4838 110.227 63.3098 110.555 63.0807 110.89C62.8516 111.224 62.5924 111.527 62.3033 111.799C62.0227 112.069 61.7168 112.3 61.3856 112.493C61.0597 112.688 60.7072 112.814 60.3281 112.871C59.9543 112.93 59.5866 112.905 59.2251 112.796C58.8635 112.688 58.5904 112.52 58.4059 112.293C58.2267 112.068 58.1379 111.81 58.1394 111.517C58.1462 111.227 58.2075 110.922 58.3233 110.603C58.4476 110.281 58.6243 109.953 58.8534 109.619C59.0825 109.285 59.339 108.981 59.6228 108.707C59.9119 108.435 60.2193 108.201 60.5452 108.007C60.8764 107.813 61.2289 107.687 61.6027 107.628ZM59.651 109.859C58.8035 111.095 58.8185 111.846 59.6959 112.109C60.5732 112.373 61.4356 111.887 62.2831 110.65C62.4369 110.426 62.5611 110.212 62.6557 110.008C62.7556 109.806 62.8305 109.594 62.8804 109.371C62.9334 109.144 62.9061 108.945 62.7985 108.775C62.694 108.6 62.5088 108.473 62.2429 108.393C61.9771 108.313 61.7103 108.304 61.4426 108.367C61.178 108.426 60.9341 108.543 60.7109 108.719C60.4909 108.891 60.2963 109.067 60.1273 109.248C59.9636 109.431 59.8048 109.634 59.651 109.859Z" fill="#F4F4EA"/>
<path d="M68.3889 108.93C68.7523 108.814 69.121 108.782 69.4949 108.834C69.8689 108.886 70.1629 109.01 70.3769 109.207C70.5965 109.403 70.7273 109.647 70.7693 109.937C70.8169 110.229 70.8065 110.544 70.7383 110.883C70.6755 111.223 70.5594 111.578 70.3901 111.946C70.2208 112.314 70.0168 112.656 69.778 112.972C69.5471 113.283 69.2849 113.561 68.9915 113.804C68.7036 114.049 68.3779 114.229 68.0146 114.345C67.6567 114.461 67.2908 114.493 66.9168 114.441C66.5429 114.389 66.2461 114.265 66.0266 114.068C65.8125 113.872 65.6817 113.628 65.6341 113.337C65.5921 113.046 65.6013 112.734 65.6618 112.399C65.73 112.059 65.8488 111.705 66.0182 111.337C66.1875 110.969 66.3888 110.627 66.622 110.31C66.8608 109.994 67.1241 109.714 67.412 109.47C67.7054 109.226 68.0311 109.046 68.3889 108.93ZM66.8431 111.452C66.2168 112.814 66.3574 113.558 67.2648 113.685C68.1721 113.811 68.939 113.193 69.5652 111.831C69.6789 111.584 69.7652 111.352 69.8241 111.134C69.8885 110.918 69.9266 110.695 69.9383 110.466C69.9524 110.232 69.8922 110.038 69.7577 109.885C69.6255 109.727 69.422 109.629 69.147 109.591C68.872 109.553 68.6082 109.586 68.3554 109.69C68.1049 109.789 67.8847 109.944 67.6946 110.154C67.5069 110.358 67.3451 110.564 67.2092 110.77C67.0787 110.978 66.9567 111.205 66.8431 111.452Z" fill="#F4F4EA"/>
<path d="M75.3452 110.16C75.679 109.99 76.0346 109.903 76.4122 109.899C76.7897 109.896 77.1031 109.976 77.3523 110.141C77.607 110.306 77.7839 110.531 77.8829 110.816C77.9874 111.1 78.0399 111.418 78.0403 111.769C78.0463 112.119 78.0027 112.491 77.9097 112.886C77.8166 113.28 77.6842 113.654 77.5125 114.006C77.3476 114.352 77.1454 114.67 76.9057 114.958C76.6715 115.246 76.3876 115.475 76.0538 115.645C75.7256 115.815 75.3727 115.902 74.9951 115.906C74.6176 115.909 74.3015 115.829 74.0467 115.664C73.7975 115.499 73.6207 115.274 73.5161 114.99C73.4171 114.705 73.364 114.39 73.3568 114.045C73.3563 113.694 73.4027 113.322 73.4957 112.927C73.5888 112.533 73.7184 112.16 73.8846 111.808C74.0563 111.456 74.2592 111.135 74.4933 110.848C74.733 110.559 75.0169 110.33 75.3452 110.16ZM74.3286 112.92C73.9843 114.379 74.2703 115.104 75.1864 115.095C76.1025 115.087 76.7326 114.353 77.0768 112.894C77.1393 112.629 77.1779 112.383 77.1926 112.157C77.2128 111.93 77.2059 111.701 77.1719 111.469C77.1392 111.232 77.0416 111.047 76.8791 110.914C76.7179 110.775 76.4985 110.707 76.2209 110.71C75.9433 110.713 75.6908 110.785 75.4633 110.927C75.2371 111.064 75.0516 111.252 74.9066 111.491C74.763 111.724 74.645 111.954 74.5525 112.181C74.4657 112.409 74.391 112.655 74.3286 112.92Z" fill="#F4F4EA"/>
<path d="M82.7021 109.306C82.9921 109.088 83.3236 108.95 83.6966 108.891C84.0695 108.833 84.399 108.867 84.6849 108.994C84.9763 109.121 85.2049 109.318 85.3707 109.586C85.5419 109.854 85.6694 110.162 85.7532 110.51C85.8424 110.857 85.8879 111.233 85.8895 111.638C85.8912 112.044 85.8489 112.434 85.7626 112.808C85.6818 113.177 85.557 113.521 85.3882 113.842C85.2248 114.162 84.9982 114.431 84.7082 114.649C84.4237 114.866 84.0949 115.004 83.7219 115.063C83.349 115.121 83.0168 115.088 82.7254 114.961C82.4394 114.834 82.2109 114.637 82.0396 114.369C81.8739 114.101 81.7464 113.796 81.6572 113.454C81.5734 113.106 81.5307 112.73 81.529 112.324C81.5274 111.919 81.5669 111.529 81.6477 111.155C81.734 110.781 81.8588 110.433 82.0221 110.113C82.191 109.792 82.4176 109.523 82.7021 109.306ZM82.3518 112.195C82.3579 113.694 82.8135 114.372 83.7185 114.23C84.6235 114.088 85.073 113.267 85.0668 111.768C85.0657 111.496 85.0454 111.246 85.0061 111.019C84.9722 110.791 84.9109 110.564 84.8222 110.339C84.7334 110.109 84.5928 109.939 84.4002 109.831C84.2076 109.717 83.9742 109.681 83.7 109.724C83.4258 109.767 83.1929 109.876 83.0016 110.051C82.8102 110.22 82.6711 110.433 82.5843 110.691C82.4975 110.944 82.4354 111.19 82.398 111.429C82.3661 111.668 82.3506 111.923 82.3518 112.195Z" fill="#F4F4EA"/>
<path d="M89.9174 108.2C90.1373 107.939 90.4251 107.746 90.781 107.62C91.1369 107.493 91.4796 107.463 91.8093 107.529C92.1441 107.593 92.4392 107.736 92.6945 107.957C92.9551 108.177 93.1849 108.443 93.384 108.756C93.5883 109.066 93.7582 109.412 93.8936 109.794C94.029 110.176 94.1151 110.552 94.152 110.922C94.1922 111.285 94.1804 111.634 94.1165 111.969C94.0578 112.302 93.9185 112.599 93.6987 112.859C93.484 113.118 93.1988 113.31 92.8429 113.436C92.4871 113.562 92.1417 113.594 91.8068 113.53C91.4772 113.464 91.1821 113.321 90.9216 113.101C90.6662 112.88 90.4373 112.616 90.2349 112.311C90.0358 111.998 89.8686 111.651 89.7331 111.269C89.5977 110.887 89.509 110.512 89.4669 110.144C89.43 109.774 89.4409 109.423 89.4996 109.09C89.5635 108.755 89.7028 108.458 89.9174 108.2ZM90.5181 110.991C91.019 112.404 91.7012 112.957 92.5647 112.651C93.4282 112.345 93.6095 111.486 93.1086 110.073C93.0177 109.816 92.915 109.585 92.8004 109.378C92.6911 109.169 92.5547 108.967 92.3912 108.772C92.2258 108.571 92.0284 108.438 91.7989 108.372C91.5675 108.301 91.3209 108.312 91.0593 108.405C90.7976 108.497 90.5993 108.644 90.4644 108.845C90.3276 109.041 90.2581 109.269 90.256 109.529C90.2521 109.783 90.2707 110.027 90.312 110.26C90.3585 110.491 90.4272 110.735 90.5181 110.991Z" fill="#F4F4EA"/>
</g>
<defs>
<filter id="filter0_d_502_1389" x="17.3689" y="20.5532" width="134.031" height="101.359" filterUnits="userSpaceOnUse" color-interpolation-filters="sRGB">
<feFlood flood-opacity="0" result="BackgroundImageFix"/>
<feColorMatrix in="SourceAlpha" type="matrix" values="0 0 0 0 0 0 0 0 0 0 0 0 0 0 0 0 0 0 127 0" result="hardAlpha"/>
<feOffset dy="0.5"/>
<feComposite in2="hardAlpha" operator="out"/>
<feColorMatrix type="matrix" values="0 0 0 0 0.364706 0 0 0 0 0.345098 0 0 0 0 0.266667 0 0 0 1 0"/>
<feBlend mode="normal" in2="BackgroundImageFix" result="effect1_dropShadow_502_1389"/>
<feBlend mode="normal" in="SourceGraphic" in2="effect1_dropShadow_502_1389" result="shape"/>
</filter>
<filter id="filter1_d_502_1389" x="44.6881" y="51.5789" width="87.9539" height="37.0942" filterUnits="userSpaceOnUse" color-interpolation-filters="sRGB">
<feFlood flood-opacity="0" result="BackgroundImageFix"/>
<feColorMatrix in="SourceAlpha" type="matrix" values="0 0 0 0 0 0 0 0 0 0 0 0 0 0 0 0 0 0 127 0" result="hardAlpha"/>
<feOffset dy="0.8"/>
<feComposite in2="hardAlpha" operator="out"/>
<feColorMatrix type="matrix" values="0 0 0 0 0.384314 0 0 0 0 0.364706 0 0 0 0 0.278431 0 0 0 1 0"/>
<feBlend mode="normal" in2="BackgroundImageFix" result="effect1_dropShadow_502_1389"/>
<feBlend mode="normal" in="SourceGraphic" in2="effect1_dropShadow_502_1389" result="shape"/>
</filter>
<filter id="filter2_d_502_1389" x="33.1754" y="89.2605" width="61.7478" height="27.4663" filterUnits="userSpaceOnUse" color-interpolation-filters="sRGB">
<feFlood flood-opacity="0" result="BackgroundImageFix"/>
<feColorMatrix in="SourceAlpha" type="matrix" values="0 0 0 0 0 0 0 0 0 0 0 0 0 0 0 0 0 0 127 0" result="hardAlpha"/>
<feOffset dy="0.8"/>
<feComposite in2="hardAlpha" operator="out"/>
<feColorMatrix type="matrix" values="0 0 0 0 0.396078 0 0 0 0 0.372549 0 0 0 0 0.282353 0 0 0 1 0"/>
<feBlend mode="normal" in2="BackgroundImageFix" result="effect1_dropShadow_502_1389"/>
<feBlend mode="normal" in="SourceGraphic" in2="effect1_dropShadow_502_1389" result="shape"/>
</filter>
</defs>
</svg>
