<svg width="409" height="94" viewBox="0 0 409 94" fill="none" xmlns="http://www.w3.org/2000/svg">
<path d="M408.385 26.3499C408.662 29.0791 407.597 31.932 405.204 34.8845C402.81 37.8387 399.118 40.8526 394.231 43.8777C384.458 49.9266 370.01 55.9601 351.934 61.6342C315.791 72.98 265.249 82.8574 208.88 88.5693C152.51 94.2812 101.014 94.7432 63.33 90.8785C44.4835 88.9456 29.1182 85.9332 18.3312 81.9675C12.9365 79.9843 8.71421 77.7724 5.77645 75.3585C2.84026 72.946 1.22486 70.3646 0.948317 67.6355C0.671772 64.9063 1.73652 62.0534 4.12906 59.1009C6.52288 56.1467 10.2157 53.1328 15.1028 50.1077C24.8751 44.0588 39.3238 38.0253 57.3994 32.3512C93.5426 21.0054 144.084 11.128 200.454 5.41609C256.823 -0.295825 308.319 -0.757847 346.003 3.10694C364.85 5.03977 380.215 8.05223 391.002 12.0179C396.397 14.0011 400.619 16.213 403.557 18.6269C406.493 21.0394 408.108 23.6208 408.385 26.3499Z" stroke="#AED8C8"/>
</svg>
