<svg width="294" height="270" viewBox="0 0 294 270" fill="none" xmlns="http://www.w3.org/2000/svg">
<g clip-path="url(#clip0_214_1078)">
<path d="M63.0059 232.7V269.163H135.576C135.576 269.163 136.348 246.953 116.216 247.844L116.87 233.591C116.87 233.591 101.192 226.405 100.776 226.405C100.419 226.405 63.0059 232.7 63.0059 232.7Z" fill="#B37014" stroke="#FEE9C2" stroke-width="0.6314" stroke-miterlimit="10"/>
<path d="M34.7374 123.606C34.7374 123.606 29.5114 153.953 41.2699 156.269H55.107C55.107 156.269 62.9461 154.963 62.9461 176.639C62.9461 198.315 62.9461 232.581 62.9461 232.581C62.9461 232.581 76.0112 238.342 92.5207 232.581C92.5207 232.581 102.973 238.223 116.869 233.472L120.314 177.53C120.314 177.53 122.867 144.986 91.0954 125.923C91.0954 126.041 44.2987 127.467 34.7374 123.606Z" fill="#6692CC"/>
<path d="M60.9883 8.63378C61.1071 8.69316 65.4423 0.675954 73.6377 0.260247C81.8331 -0.15546 85.5151 7.20849 85.5151 7.20849L83.7928 13.2659L67.2833 18.3138C67.2833 18.3138 60.7508 12.0188 60.6914 11.9C60.6914 11.7219 60.9883 8.63378 60.9883 8.63378Z" fill="#1A1A1A"/>
<path d="M53.0898 40.3462L58.6722 20.9862C58.6722 20.9862 59.5036 18.195 57.9002 17.3042C56.2967 16.4728 51.7239 11.7218 56.3561 8.87126C60.9883 6.0207 66.63 12.9689 66.63 12.9689C66.63 12.9689 68.1147 15.285 70.312 12.9689C72.4499 10.6529 71.5591 6.08009 73.994 7.38659C76.4288 8.6931 83.4959 9.28697 85.5744 7.14905C85.5744 7.14905 89.5533 12.0781 88.128 22.5302C88.128 22.5302 87.6529 23.1241 89.197 23.7179C90.6816 24.2524 90.0878 27.4593 87.1778 26.5685C87.1778 26.5685 86.7621 37.852 75.7162 35.6547C75.7162 35.6547 74.2315 35.5359 73.8158 37.3769C73.4001 39.2179 73.0438 43.6125 73.0438 43.6125L66.9863 49.4918C66.9863 49.4918 54.1588 44.147 54.0994 44.0282C53.9213 43.9094 53.0898 40.3462 53.0898 40.3462Z" fill="#EB990F"/>
<path d="M53.09 40.3462L51.3677 48.0665C51.3677 48.0665 26.6629 61.0128 20.1303 75.5031C13.5978 89.9935 11.1035 101.158 16.8641 111.491H30.2261L26.069 125.21C26.069 125.21 85.04 131.089 99.2928 123.666L96.2641 95.1601L102.143 78.8288C102.143 78.8288 101.371 56.8557 72.2125 48.7791L72.9845 43.6718C72.9251 43.6125 62.4731 45.5722 53.09 40.3462Z" fill="#5EBB99"/>
<path d="M75.2988 137.74L85.8103 148.608C85.8103 148.608 92.1647 154.666 92.5804 166.543C92.9961 178.42 92.6991 250.278 92.6991 250.278" stroke="white" stroke-width="0.6314" stroke-miterlimit="10"/>
<path d="M82.4844 249.744C82.4844 249.744 102.32 243.449 102.616 269.163" stroke="white" stroke-width="0.6314" stroke-miterlimit="10"/>
<path d="M110.041 248.675C110.041 248.675 114.317 247.962 116.039 248.081" stroke="white" stroke-width="0.6314" stroke-miterlimit="10"/>
<path d="M33.6094 91.6564L56.4139 99.1985" stroke="#3A6AB2" stroke-width="0.593867" stroke-miterlimit="10" stroke-linecap="round" stroke-linejoin="round"/>
<path d="M43.0535 67.3079L41.0938 94.0913" stroke="#3A6AB2" stroke-width="0.593867" stroke-miterlimit="10" stroke-linecap="round" stroke-linejoin="round"/>
<path d="M83.375 63.8041L84.0282 81.5013" stroke="#3A6AB2" stroke-width="0.593867" stroke-miterlimit="10" stroke-linecap="round" stroke-linejoin="round"/>
<path d="M51.3652 48.0665C51.3652 48.0665 59.3231 51.3328 66.8652 50.9171" stroke="#3A6AB2" stroke-width="0.593867" stroke-miterlimit="10" stroke-linecap="round" stroke-linejoin="round"/>
<path d="M68.6484 29.0629C68.6484 29.0629 70.2519 34.2295 75.1216 35.7142" stroke="#1A1A1A" stroke-width="0.593867" stroke-miterlimit="10" stroke-linecap="round" stroke-linejoin="round"/>
<path d="M57.8984 12.0782C57.8984 12.0782 61.2241 12.494 61.7586 14.7507" stroke="#1A1A1A" stroke-width="0.593867" stroke-miterlimit="10" stroke-linecap="round" stroke-linejoin="round"/>
<path d="M81.89 21.4019C81.89 21.4019 81.1773 24.3712 84.4436 26.034" stroke="#1A1A1A" stroke-width="0.593867" stroke-miterlimit="10" stroke-linecap="round" stroke-linejoin="round"/>
<path d="M83.7322 12.6127C82.782 12.7908 80.941 14.038 80.8223 15.1663" stroke="#1A1A1A" stroke-width="0.593867" stroke-miterlimit="10" stroke-linecap="round" stroke-linejoin="round"/>
<path d="M84.5635 18.3138C85.0882 18.3138 85.5137 17.8884 85.5137 17.3636C85.5137 16.8389 85.0882 16.4135 84.5635 16.4135C84.0387 16.4135 83.6133 16.8389 83.6133 17.3636C83.6133 17.8884 84.0387 18.3138 84.5635 18.3138Z" fill="#1A1A1A"/>
<path d="M86.5866 18.0046C87.049 16.227 86.2917 14.4914 84.8951 14.128C83.4984 13.7647 81.9913 14.9111 81.5288 16.6887C81.0663 18.4662 81.8236 20.2018 83.2203 20.5652C84.6169 20.9286 86.1241 19.7821 86.5866 18.0046Z" stroke="white" stroke-width="0.593867" stroke-miterlimit="10"/>
<path d="M74.7044 23.1241C76.0491 23.1241 77.1392 22.034 77.1392 20.6893C77.1392 19.3445 76.0491 18.2544 74.7044 18.2544C73.3597 18.2544 72.2695 19.3445 72.2695 20.6893C72.2695 22.034 73.3597 23.1241 74.7044 23.1241Z" fill="#FEE7C8"/>
<path d="M0.767578 111.492H170.257" stroke="black" stroke-width="0.593867" stroke-miterlimit="10"/>
<path d="M108.733 111.492L114.791 73.0684H60.9271L54.0977 111.492H108.733Z" fill="#FDFDFD" stroke="black" stroke-width="0.593867" stroke-miterlimit="10"/>
<path d="M20.9004 156.091H56.4137" stroke="black" stroke-width="0.593867" stroke-miterlimit="10" stroke-linecap="round" stroke-linejoin="round"/>
<path d="M10.2109 111.492V269.163H293.129" stroke="black" stroke-width="0.593867" stroke-miterlimit="10" stroke-linecap="round" stroke-linejoin="round"/>
<path d="M161.943 111.492V269.163" stroke="black" stroke-width="0.593867" stroke-miterlimit="10" stroke-linecap="round" stroke-linejoin="round"/>
<path d="M221.033 154.725H253.993L283.271 52.1643" stroke="black" stroke-width="0.593867" stroke-miterlimit="10" stroke-linecap="round" stroke-linejoin="round"/>
<path d="M272.521 269.163C271.749 264.056 253.992 154.725 253.992 154.725" stroke="black" stroke-width="0.593867" stroke-miterlimit="10" stroke-linecap="round" stroke-linejoin="round"/>
<path d="M190.744 232.343V249.09C190.744 249.09 172.571 253.901 173.878 269.163H217.824L218.834 234.125C218.834 234.125 204.224 223.554 203.215 223.554C202.205 223.554 190.744 232.343 190.744 232.343Z" fill="#3C74B9"/>
<path d="M167.345 208.886C166.276 208.886 130.703 191.129 130.703 191.129C130.703 191.129 140.146 166.483 159.743 179.608L161.881 173.788L178.034 169.987L182.845 187.091L167.345 208.886Z" fill="#3C74B9"/>
<path d="M190.744 232.344C190.744 232.344 202.503 238.401 218.775 234.125L220.912 154.488H248.408C248.408 154.488 264.324 139.76 259.989 117.193L228.039 97.3575L219.19 119.509C219.19 119.509 203.275 111.492 189.2 131.446C175.066 151.459 161.941 173.61 161.941 173.61L182.905 186.972L189.378 179.489L190.744 232.344Z" fill="#5EBB99"/>
<path d="M258.978 103.415L259.988 117.252L244.132 107.394L237.777 105.672L258.978 103.415Z" fill="#1A1A1A"/>
<path d="M167.999 97.4168C167.999 97.4168 156.596 101.099 154.934 103.415C153.271 105.731 145.254 111.729 142.7 109.057C140.146 106.384 146.026 100.802 146.026 100.802C146.026 100.802 124.528 107.275 122.984 104.009C121.439 100.802 124.468 99.4953 124.468 99.4953C124.468 99.4953 123.993 94.5068 131.416 93.4379C131.416 93.4379 132.485 90.8842 136.405 91.1812C140.324 91.4781 145.313 93.4379 148.639 92.9628C151.964 92.4877 162.594 86.7272 162.594 86.7272L170.196 90.3498L167.999 97.4168Z" fill="#EB990F"/>
<path d="M212.005 38.0894C212.005 38.0894 197.812 37.1986 197.099 45.9285C196.387 54.7177 200.959 55.846 200.959 55.846C200.959 55.846 191.695 56.2024 195.852 67.5452C200.009 78.9475 249.122 68.7924 249.122 68.7924C249.122 68.7924 260.702 63.6257 260.346 54.1832C259.93 44.7407 251.557 43.4936 248.469 43.553C248.469 43.553 252.566 23.0052 234.394 22.9458C216.281 23.0052 212.005 38.0894 212.005 38.0894Z" fill="#1A1A1A"/>
<path d="M210.935 9.34629C210.935 9.34629 212.776 4.12026 222.04 4.59535C231.72 5.07045 235.046 15.0474 234.036 19.1451C233.027 23.2428 226.494 26.5684 226.019 26.5684C225.544 26.5684 212.657 21.9363 212.657 21.9363C212.657 21.9363 209.807 15.1068 209.807 14.8099C209.866 14.5129 210.935 9.34629 210.935 9.34629Z" fill="#1A1A1A"/>
<path d="M217.707 48.8385C217.707 48.8385 217.054 41.7715 216.638 41.7715C216.223 41.7715 210.996 43.4343 208.265 39.2178C205.592 35.0014 204.702 34.7638 204.702 27.4593C204.702 27.4593 200.901 26.5685 201.554 24.6087C202.207 22.6489 204.108 23.9555 204.108 23.9555C204.108 23.9555 202.979 12.7314 210.878 9.34631C210.878 9.34631 213.431 19.9172 217.885 21.1643C222.339 22.4114 226.081 21.58 226.793 21.0455C227.506 20.4516 230.654 17.7198 233.623 18.967C236.592 20.2141 235.404 23.6585 235.226 24.193C235.048 24.7275 232.138 28.2313 229.169 27.9937L231.188 43.5531L230.119 49.2542L221.864 49.9668L217.707 48.8385Z" fill="#EB990F"/>
<path d="M211.351 99.0202L209.332 112.085C209.332 112.085 254.288 114.817 267.412 99.0202C267.412 99.0202 256.664 49.848 231.305 43.553C231.305 43.553 226.733 49.551 217.706 48.779L215.212 57.687L172.334 75.7406C172.334 75.7406 167.524 79.3632 166.99 83.8172L162.654 86.7271L167.999 97.3574L176.61 93.3784C176.61 93.3784 185.399 99.3765 198.168 91.9532C198.227 92.0125 204.7 99.8516 211.351 99.0202Z" fill="#3A6AB2"/>
<path d="M197.337 70.6334C197.337 70.6334 181.421 64.0415 174.057 64.6354C174.057 64.6354 166.693 55.0147 164.437 57.6871C162.18 60.3595 166.99 65.0511 166.99 65.0511C166.99 65.0511 164.615 64.4572 162.714 64.9323C162.714 64.9323 158.973 63.5664 155.113 64.6354C155.113 64.6354 149.471 63.507 148.996 65.348C148.521 67.189 150.659 68.3767 150.659 68.3767C150.659 68.3767 146.205 69.5645 148.818 72.2963C151.371 75.0281 158.914 78.5319 171.207 76.8096C175.72 76.1564 178.452 76.9284 180.887 77.4035C185.697 78.3537 192.17 83.2234 192.17 83.2234L197.337 70.6334Z" fill="#EB990F"/>
<path d="M190.744 249.091C190.744 249.091 197.514 248.437 200.484 251.585" stroke="white" stroke-width="0.593867" stroke-miterlimit="10" stroke-linecap="round" stroke-linejoin="round"/>
<path d="M220.973 154.488C220.973 154.488 219.191 130.97 206.067 133.88C192.942 136.79 189.379 179.549 189.379 179.549" stroke="white" stroke-width="0.593867" stroke-miterlimit="10" stroke-linecap="round" stroke-linejoin="round"/>
<path d="M219.189 119.568L232.908 127.407" stroke="white" stroke-width="0.593867" stroke-miterlimit="10" stroke-linecap="round" stroke-linejoin="round"/>
<path d="M236.768 58.4592C236.768 58.4592 246.388 73.1278 242.706 86.7273C239.024 100.327 224.475 101.871 211.35 99.0204C211.35 99.0204 205.174 99.733 198.226 91.9533C198.226 91.9533 197.691 88.6871 197.751 85.6584L200.601 79.9572" stroke="white" stroke-width="0.593867" stroke-miterlimit="10" stroke-linecap="round" stroke-linejoin="round"/>
<path d="M222.575 79.0663C216.221 69.2081 202.681 72.3556 202.681 72.3556C201.671 71.7618 197.336 70.6334 197.336 70.6334L192.645 83.2234L197.752 85.7176" stroke="white" stroke-width="0.593867" stroke-miterlimit="10" stroke-linecap="round" stroke-linejoin="round"/>
<path d="M207.195 79.957L208.68 83.2233" stroke="white" stroke-width="0.593867" stroke-miterlimit="10" stroke-linecap="round" stroke-linejoin="round"/>
<path d="M222.575 87.7368C222.397 87.915 220.615 90.528 220.615 90.528" stroke="white" stroke-width="0.593867" stroke-miterlimit="10" stroke-linecap="round" stroke-linejoin="round"/>
<path d="M232.078 104.662H235.938" stroke="white" stroke-width="0.593867" stroke-miterlimit="10" stroke-linecap="round" stroke-linejoin="round"/>
<path d="M252.566 94.0317L255.417 96.1697" stroke="white" stroke-width="0.593867" stroke-miterlimit="10" stroke-linecap="round" stroke-linejoin="round"/>
<path d="M253.398 75.8594L251.676 78.7099" stroke="white" stroke-width="0.593867" stroke-miterlimit="10" stroke-linecap="round" stroke-linejoin="round"/>
<path d="M230.533 68.8518L232.077 71.643" stroke="white" stroke-width="0.593867" stroke-miterlimit="10" stroke-linecap="round" stroke-linejoin="round"/>
<path d="M231.602 51.3328L229.643 54.4209" stroke="white" stroke-width="0.593867" stroke-miterlimit="10" stroke-linecap="round" stroke-linejoin="round"/>
<path d="M215.211 57.7465C214.973 58.8748 211.707 72.1774 211.707 72.1774" stroke="white" stroke-width="0.593867" stroke-miterlimit="10" stroke-linecap="round" stroke-linejoin="round"/>
<path d="M222.574 58.4592C222.574 58.4592 219.605 70.4554 220.971 76.9285" stroke="white" stroke-width="0.593867" stroke-miterlimit="10" stroke-linecap="round" stroke-linejoin="round"/>
<path d="M166.217 84.4111L169.602 90.528" stroke="white" stroke-width="0.593867" stroke-miterlimit="10" stroke-linecap="round" stroke-linejoin="round"/>
<path d="M177.799 86.7273L181.897 87.0836" stroke="white" stroke-width="0.593867" stroke-miterlimit="10" stroke-linecap="round" stroke-linejoin="round"/>
<path d="M205.414 63.9821L207.196 67.4859" stroke="white" stroke-width="0.593867" stroke-miterlimit="10" stroke-linecap="round" stroke-linejoin="round"/>
<path d="M156.717 102.049C156.717 102.049 158.023 99.0203 158.736 97.4169" stroke="white" stroke-width="0.593867" stroke-miterlimit="10" stroke-linecap="round" stroke-linejoin="round"/>
<path d="M146.026 92.9629C141.75 95.6353 125.003 99.2579 124.469 99.5548" stroke="white" stroke-width="0.593867" stroke-miterlimit="10" stroke-linecap="round" stroke-linejoin="round"/>
<path d="M131.418 93.4973C131.418 93.4973 137.772 93.4973 141.989 94.5663" stroke="white" stroke-width="0.593867" stroke-miterlimit="10" stroke-linecap="round" stroke-linejoin="round"/>
<path d="M150.658 68.3767C150.658 68.3767 161.704 73.959 170.256 68.3767L167.049 65.051" stroke="white" stroke-width="0.593867" stroke-miterlimit="10" stroke-linecap="round" stroke-linejoin="round"/>
<path d="M162.773 64.9323L168.534 69.3269" stroke="white" stroke-width="0.593867" stroke-miterlimit="10" stroke-linecap="round" stroke-linejoin="round"/>
<path d="M155.172 64.6353L163.664 70.6927" stroke="white" stroke-width="0.593867" stroke-miterlimit="10" stroke-linecap="round" stroke-linejoin="round"/>
<path d="M183.023 78.0567C183.023 78.0567 186.705 68.4954 187.418 66.5357C187.834 65.4667 194.069 67.4859 193.713 68.8518C193.357 70.0989 189.497 81.3824 189.497 81.3824L183.974 78.413L183.023 78.0567Z" fill="#5EBB99"/>
<path d="M183.975 78.4131C183.856 78.2944 182.193 77.7599 182.193 77.7599C182.193 77.7599 180.59 79.2446 182.193 80.4917C183.797 81.7388 188.072 83.7579 188.904 83.5798C189.735 83.461 190.567 82.0951 190.567 82.0357" fill="#B37014"/>
<path d="M216.637 41.7714C217.409 41.712 221.269 41.2369 222.575 38.2676" stroke="#1A1A1A" stroke-width="0.593867" stroke-miterlimit="10"/>
<path d="M209.807 24.4305C209.807 24.4305 209.866 27.2811 206.719 28.1719" stroke="#1A1A1A" stroke-width="0.593867" stroke-miterlimit="10"/>
<path d="M207.491 17.2447C207.491 17.2447 208.975 20.8673 210.223 20.1547C211.47 19.442 207.372 15.7007 207.491 17.2447Z" fill="#1A1A1A"/>
<path d="M228.395 23.5991C228.751 23.3616 230.295 22.0551 233.086 22.0551" stroke="#1A1A1A" stroke-width="0.593867" stroke-miterlimit="10"/>
<path d="M207.195 22.827C207.654 22.827 208.026 22.4548 208.026 21.9956C208.026 21.5364 207.654 21.1642 207.195 21.1642C206.736 21.1642 206.363 21.5364 206.363 21.9956C206.363 22.4548 206.736 22.827 207.195 22.827Z" fill="#1A1A1A"/>
<path d="M216.638 30.488C218.048 30.488 219.191 29.3447 219.191 27.9344C219.191 26.524 218.048 25.3807 216.638 25.3807C215.227 25.3807 214.084 26.524 214.084 27.9344C214.084 29.3447 215.227 30.488 216.638 30.488Z" fill="#FEE7C8"/>
<path d="M172.811 269.163H220.676" stroke="black" stroke-width="0.593867" stroke-miterlimit="10" stroke-linecap="round" stroke-linejoin="round"/>
</g>
<defs>
<clipPath id="clip0_214_1078">
<rect width="292.658" height="269.2" fill="white" transform="translate(0.767578 0.260254)"/>
</clipPath>
</defs>
</svg>
