<svg width="349" height="484" viewBox="0 0 349 484" fill="none" xmlns="http://www.w3.org/2000/svg">
<path d="M137.574 50.3899L168.22 58.2028L160.407 78.6131L175.427 80.1878L179.061 67.8326H202.682L206.861 80.2484C206.861 80.2484 227.877 78.8554 236.84 81.278C245.864 83.7005 254.222 92.6641 259.068 106.11C263.852 119.494 278.448 167.583 279.538 182.603L254.646 183.754L243.987 138.754L173.55 138.633C173.55 138.633 145.569 131.789 144.661 131.244C143.752 130.699 120.798 110.531 120.798 110.531C120.798 110.531 109.351 89.6359 137.574 50.3899Z" fill="#F0848C"/>
<path d="M171.43 32.3415C171.43 32.3415 169.916 18.1694 185.299 15.2623C200.682 12.4157 203.892 28.526 203.347 29.919C202.802 31.3119 200.38 43.6066 205.104 46.6348C209.828 49.6631 214.673 51.1166 210.676 52.3279C206.678 53.5392 200.622 57.052 188.146 58.3239C175.669 59.5957 173.792 57.4154 173.368 56.8097C172.944 56.2041 171.975 55.2351 174.458 54.3871C176.941 53.5998 179.242 49.2997 179.242 49.2997L193.415 34.8247L171.43 32.3415Z" fill="#1A1A1A"/>
<path d="M195.777 13.5665C199.524 13.5665 202.561 10.5296 202.561 6.78326C202.561 3.03697 199.524 0 195.777 0C192.031 0 188.994 3.03697 188.994 6.78326C188.994 10.5296 192.031 13.5665 195.777 13.5665Z" fill="#1A1A1A"/>
<path d="M168.28 45.7264L171.187 39.791L151.928 40.8206L168.28 45.7264Z" fill="#1A1A1A"/>
<path d="M254.222 211.19C252.829 219.79 249.619 228.814 243.139 236.627C243.139 236.627 223.395 252.616 245.016 297.01C266.638 341.404 281.84 388.342 281.84 388.342L289.047 407.783C289.047 407.783 294.135 415.778 287.17 424.317C280.265 432.857 246.349 476.585 246.349 476.585C246.349 476.585 234.054 491.786 222.365 476.585C210.616 461.383 230.905 422.197 230.905 422.197C230.905 422.197 187.904 290.772 177.547 268.908C167.191 247.044 175.973 223.545 184.452 210.221H176.154C176.154 210.221 145.024 181.573 141.511 177.576C141.511 177.576 142.359 210.099 137.514 210.099C136.06 210.099 67.3798 209.554 67.3798 209.554C67.3798 209.554 62.9586 185.934 102.871 180.241C102.871 180.241 95.1185 136.513 112.501 116.345C129.883 96.177 164.405 121.432 173.853 138.875L244.047 138.572C244.047 138.572 254.101 179.878 254.767 183.875L279.66 182.482C279.66 182.482 278.569 195.503 294.619 194.413C310.608 193.323 324.235 204.285 325.144 210.887L254.222 211.19Z" fill="#E5AC00"/>
<path d="M180.272 67.8327V54.3873C180.272 54.3873 169.552 53.4788 171.43 32.3417C171.43 32.3417 173.428 32.2811 176.457 27.3148C179.485 22.4091 185.481 23.8626 185.481 23.8626C185.481 23.8626 186.934 32.8868 192.748 32.3417C198.563 31.7966 197.291 26.9514 202.681 29.4952C208.071 32.0389 203.287 39.8517 200.925 40.4574C198.563 41.063 201.591 67.8327 201.591 67.8327H180.272V67.8327Z" fill="#E5AC00"/>
<path d="M163.314 56.8098L168.281 45.7264L142.662 38.0347L137.574 50.3899L163.314 56.8098Z" fill="#E5AC00"/>
<path d="M122.918 13.8694L173.368 34.3403C173.368 34.3403 175.246 38.6404 172.641 41.8503L117.648 43.3039" fill="#FAFAFA"/>
<path d="M122.918 13.8694L173.368 34.3403C173.368 34.3403 175.246 38.6404 172.641 41.8503L117.648 43.3039" stroke="#1A1A1A" stroke-width="0.622728" stroke-miterlimit="10"/>
<path d="M128.549 30.2194C130.107 22.1054 127.749 14.8321 123.281 13.9742C118.813 13.1162 113.928 18.9984 112.37 27.1125C110.812 35.2265 113.171 42.4997 117.638 43.3577C122.106 44.2156 126.991 38.3334 128.549 30.2194Z" fill="#E5E4E4" stroke="#1A1A1A" stroke-width="0.622728" stroke-miterlimit="10"/>
<path d="M148.838 24.4077L154.41 26.6486V36.8235C154.41 36.8235 154.652 40.2151 157.62 39.7911C160.648 39.3672 160.103 37.4897 160.103 37.4897C160.103 37.4897 160.224 40.2151 162.586 39.7911C165.009 39.3672 165.19 36.8235 165.19 36.8235C165.19 36.8235 165.675 38.8221 167.25 38.8221C168.885 38.8221 169.914 36.8235 169.914 36.8235C169.914 36.8235 171.489 31.4938 170.883 26.6486C170.278 21.9245 165.917 23.6203 165.917 23.6203C165.917 23.6203 163.737 19.8047 158.952 22.833C159.073 22.8935 153.259 19.2597 148.838 24.4077Z" fill="#E5AC00"/>
<path d="M196.139 35.612C196.139 35.612 197.713 33.8557 200.923 33.1895" stroke="#1A1A1A" stroke-width="0.605648" stroke-miterlimit="10" stroke-linecap="round" stroke-linejoin="round"/>
<path d="M182.876 39.8518C182.876 39.8518 181.967 41.1842 180.938 41.7899" stroke="#1A1A1A" stroke-width="0.605648" stroke-miterlimit="10" stroke-linecap="round" stroke-linejoin="round"/>
<path d="M179.546 35.915C179.546 35.915 177.729 37.7926 178.637 39.8518" stroke="#1A1A1A" stroke-width="0.605648" stroke-miterlimit="10" stroke-linecap="round" stroke-linejoin="round"/>
<path d="M183.543 35.37C183.543 35.37 185.239 35.0066 186.208 36.4601" stroke="#1A1A1A" stroke-width="0.605648" stroke-miterlimit="10" stroke-linecap="round" stroke-linejoin="round"/>
<path d="M184.027 30.7063C184.027 30.7063 184.512 33.6134 187.177 33.6134C189.842 33.6134 187.48 30.888 184.027 30.7063Z" fill="#1A1A1A"/>
<path d="M178.757 28.405C178.757 28.405 178.152 31.9178 174.942 31.9178C171.732 31.9178 174.578 28.5867 178.757 28.405Z" fill="#1A1A1A"/>
<path d="M173.793 35.6122C173.914 35.6122 174.52 34.4009 176.518 34.4009" stroke="#1A1A1A" stroke-width="0.605648" stroke-miterlimit="10"/>
<path d="M137.574 50.3899L168.281 57.7182L153.442 94.6628" stroke="#1A1A1A" stroke-width="0.605648" stroke-miterlimit="10" stroke-linecap="round" stroke-linejoin="round"/>
<path d="M179.061 67.8325H202.378" stroke="#1A1A1A" stroke-width="0.605648" stroke-miterlimit="10" stroke-linecap="round" stroke-linejoin="round"/>
<path d="M182.877 75.4031C182.877 74.9186 183.543 67.772 183.543 67.772" stroke="#1A1A1A" stroke-width="0.605648" stroke-miterlimit="10" stroke-linecap="round" stroke-linejoin="round"/>
<path d="M188.328 75.4031C188.57 74.6764 188.328 67.772 188.328 67.772" stroke="#1A1A1A" stroke-width="0.605648" stroke-miterlimit="10" stroke-linecap="round" stroke-linejoin="round"/>
<path d="M193.232 75.0397V67.8325" stroke="#1A1A1A" stroke-width="0.605648" stroke-miterlimit="10" stroke-linecap="round" stroke-linejoin="round"/>
<path d="M198.502 74.5552V67.8325" stroke="#1A1A1A" stroke-width="0.605648" stroke-miterlimit="10" stroke-linecap="round" stroke-linejoin="round"/>
<path d="M102.869 180.241C102.869 180.241 108.562 180.12 110.864 182.118" stroke="#1A1A1A" stroke-width="0.605648" stroke-miterlimit="10" stroke-linecap="round" stroke-linejoin="round"/>
<path d="M56.4766 209.736L184.45 210.22L203.952 171.822L173.791 138.875L243.985 138.572L254.645 183.572C254.645 183.572 258.581 200.348 254.645 211.129H347.915" stroke="#1A1A1A" stroke-width="0.605648" stroke-miterlimit="10" stroke-linecap="round" stroke-linejoin="round"/>
<path d="M299.887 197.805C299.887 197.805 317.087 198.108 317.874 211.19" stroke="#1A1A1A" stroke-width="0.605648" stroke-miterlimit="10" stroke-linecap="round" stroke-linejoin="round"/>
<path d="M285.896 202.408C285.896 202.408 302.491 200.712 304.308 211.189" stroke="#1A1A1A" stroke-width="0.605648" stroke-miterlimit="10" stroke-linecap="round" stroke-linejoin="round"/>
<path d="M230.844 422.258C231.268 421.773 233.024 417.897 238.959 412.568" stroke="#1A1A1A" stroke-width="0.605648" stroke-miterlimit="10" stroke-linecap="round" stroke-linejoin="round"/>
<path d="M141.208 156.621C141.208 156.621 143.327 195.624 139.027 209.736" stroke="#1A1A1A" stroke-width="0.605648" stroke-miterlimit="10" stroke-linecap="round" stroke-linejoin="round"/>
<path d="M256.282 195.806C256.282 195.806 262.52 209.07 262.702 211.19H254.646C254.646 211.19 257.251 204.225 256.282 195.806Z" fill="#1A1A1A"/>
<path d="M141.086 177.273C141.51 177.576 146.84 182.906 146.84 182.906C146.84 182.906 144.478 161.89 140.541 157.045" fill="#1A1A1A"/>
<path d="M180.09 54.3872V58.6873C180.09 58.6873 182.755 56.7492 184.511 54.69C184.511 54.69 181.846 55.1745 180.09 54.3872Z" fill="#1A1A1A"/>
<path d="M218.094 105.425C218.646 104.469 217.45 102.745 215.422 101.574C213.394 100.404 211.303 100.23 210.751 101.185C210.199 102.141 211.396 103.865 213.423 105.036C215.451 106.207 217.542 106.381 218.094 105.425Z" fill="#1A1A1A"/>
<path d="M256.099 99.1447C256.462 99.8715 257.855 102.9 257.855 102.9C256.886 103.081 253.737 102.415 253.737 102.415C251.496 101.749 249.982 100.295 250.285 99.2659C250.587 98.2363 252.707 97.9334 254.948 98.5997L256.099 99.1447Z" fill="#1A1A1A"/>
<path d="M190.259 95.9422C191.767 94.1508 192.304 92.1224 191.46 91.4116C190.615 90.7009 188.708 91.577 187.201 93.3684C185.693 95.1598 185.155 97.1882 186 97.899C186.844 98.6097 188.751 97.7337 190.259 95.9422Z" fill="#1A1A1A"/>
<path d="M260.835 151.24C261.159 150.184 259.607 148.772 257.369 148.084C255.131 147.397 253.053 147.695 252.729 148.75C252.405 149.805 253.957 151.218 256.195 151.905C258.433 152.593 260.51 152.295 260.835 151.24Z" fill="#1A1A1A"/>
<path d="M252.912 122.785C254.644 121.21 255.446 119.271 254.703 118.454C253.96 117.638 251.954 118.253 250.222 119.829C248.49 121.404 247.688 123.343 248.431 124.16C249.174 124.976 251.18 124.361 252.912 122.785Z" fill="#1A1A1A"/>
<path d="M184.554 117.626C185.264 116.782 184.388 114.875 182.597 113.367C180.805 111.859 178.777 111.322 178.066 112.166C177.355 113.011 178.232 114.918 180.023 116.425C181.814 117.933 183.843 118.471 184.554 117.626Z" fill="#1A1A1A"/>
<path d="M208.427 126.418C209.934 124.627 210.472 122.598 209.628 121.888C208.783 121.177 206.876 122.053 205.369 123.844C203.861 125.636 203.323 127.664 204.168 128.375C205.012 129.086 206.919 128.21 208.427 126.418Z" fill="#1A1A1A"/>
<path d="M155.741 106.506C157.249 104.715 157.786 102.687 156.942 101.976C156.097 101.265 154.191 102.141 152.683 103.933C151.175 105.724 150.638 107.752 151.482 108.463C152.327 109.174 154.234 108.298 155.741 106.506Z" fill="#1A1A1A"/>
<path d="M136.005 92.725C136.715 91.8804 135.839 89.9736 134.048 88.466C132.257 86.9583 130.228 86.4207 129.517 87.2653C128.807 88.1098 129.683 90.0166 131.474 91.5243C133.266 93.0319 135.294 93.5695 136.005 92.725Z" fill="#1A1A1A"/>
<path d="M152.511 69.6348C153.481 67.9547 153.492 66.1453 152.537 65.5934C151.581 65.0415 150.019 65.9561 149.049 67.6362C148.079 69.3162 148.068 71.1256 149.024 71.6775C149.98 72.2295 151.541 71.3149 152.511 69.6348Z" fill="#1A1A1A"/>
<path d="M170.582 79.7032C170.4 83.0949 169.371 85.8203 168.281 85.7597C166.221 85.5175 166.464 82.6709 166.645 79.3398" fill="#1A1A1A"/>
<path d="M132.487 57.9604C135.394 59.6563 137.332 62.2 136.727 63.1085C135.576 64.8648 133.214 63.2902 130.246 61.5338" fill="#1A1A1A"/>
<path d="M243.986 138.633L237.264 112.59" stroke="#1A1A1A" stroke-width="0.605648" stroke-miterlimit="10"/>
<path d="M254.646 183.633L279.539 182.482" stroke="#1A1A1A" stroke-width="0.605648" stroke-miterlimit="10"/>
<path d="M237.021 81.2781C237.021 81.2781 234.598 87.3951 236.597 88.1825C238.656 88.9698 241.139 82.8528 241.139 82.8528C241.139 82.8528 237.99 81.3386 237.021 81.2781Z" fill="#1A1A1A"/>
<path d="M214.794 79.885C214.612 79.885 211.22 84.8513 214.067 85.2147C216.913 85.5781 220.608 79.8245 220.608 79.8245C220.608 79.8245 216.005 79.8245 214.794 79.885Z" fill="#1A1A1A"/>
<path d="M184.33 138.875C184.33 138.875 184.451 136.089 186.329 136.21C188.206 136.332 188.448 138.815 188.448 138.815" fill="#1A1A1A"/>
<path d="M229.27 138.693C229.27 138.693 229.512 136.755 231.329 137.058C233.085 137.301 233.509 138.693 233.509 138.693" fill="#1A1A1A"/>
<path d="M161.982 124.582L165.011 110.167L167.191 129.851C167.191 129.851 163.375 125.793 161.982 124.582Z" fill="#1A1A1A"/>
<path d="M118.92 103.627C118.92 103.445 122.433 101.265 123.886 102.597C125.4 103.929 121.706 107.927 120.071 108.653C120.071 108.593 118.92 105.08 118.92 103.627Z" fill="#1A1A1A"/>
<path d="M268.091 134.515C268.091 134.515 264.033 135.665 264.457 137.846C264.881 140.026 269.423 138.996 269.302 138.633C269.181 138.27 268.091 134.515 268.091 134.515Z" fill="#1A1A1A"/>
<path d="M275.178 160.376C275.178 160.376 268.455 167.704 270.999 169.763C273.482 171.822 276.631 166.311 276.571 166.069C276.51 165.827 275.178 160.376 275.178 160.376Z" fill="#1A1A1A"/>
<path d="M259.006 183.451C259.006 183.451 258.037 177.031 260.642 176.789C263.246 176.546 263.428 183.209 263.428 183.209" fill="#1A1A1A"/>
<path d="M154.412 24.8315V36.46C154.412 36.46 154.533 39.9122 157.138 39.8516C159.742 39.7911 160.953 39.5488 160.105 29.5556" stroke="#1A1A1A" stroke-width="0.605648" stroke-miterlimit="10" stroke-linecap="round" stroke-linejoin="round"/>
<path d="M160.226 37.4898C160.226 37.4898 159.863 40.0335 162.709 39.7912C165.556 39.549 165.313 35.6123 165.313 35.6123C165.313 35.6123 165.374 29.4346 165.132 27.5571" stroke="#1A1A1A" stroke-width="0.605648" stroke-miterlimit="10" stroke-linecap="round" stroke-linejoin="round"/>
<path d="M170.824 33.25C170.824 33.25 169.613 42.153 165.07 37.3078" stroke="#1A1A1A" stroke-width="0.605648" stroke-miterlimit="10" stroke-linecap="round" stroke-linejoin="round"/>
<path d="M189.84 41.8503C190.944 41.8503 191.839 40.9555 191.839 39.8517C191.839 38.7479 190.944 37.853 189.84 37.853C188.737 37.853 187.842 38.7479 187.842 39.8517C187.842 40.9555 188.737 41.8503 189.84 41.8503Z" fill="#F0848C"/>
<path d="M22.6218 80.188C34.8976 80.188 44.8491 70.2365 44.8491 57.9607C44.8491 45.6849 34.8976 35.7334 22.6218 35.7334C10.346 35.7334 0.394531 45.6849 0.394531 57.9607C0.394531 70.2365 10.346 80.188 22.6218 80.188Z" fill="#3A6AB2"/>
<path d="M324.961 284.897C332.755 284.897 339.073 278.579 339.073 270.785C339.073 262.992 332.755 256.674 324.961 256.674C317.168 256.674 310.85 262.992 310.85 270.785C310.85 278.579 317.168 284.897 324.961 284.897Z" fill="#3A6AB2"/>
<path d="M6.26932 254.251C9.51388 254.251 12.1441 251.621 12.1441 248.376C12.1441 245.132 9.51388 242.501 6.26932 242.501C3.02476 242.501 0.394531 245.132 0.394531 248.376C0.394531 251.621 3.02476 254.251 6.26932 254.251Z" fill="#3A6AB2"/>
<path opacity="0.7" d="M264.397 129.064C290.119 129.064 310.971 108.212 310.971 82.4894C310.971 56.7671 290.119 35.915 264.397 35.915C238.674 35.915 217.822 56.7671 217.822 82.4894C217.822 108.212 238.674 129.064 264.397 129.064Z" fill="#3A6AB2"/>
<path opacity="0.7" d="M175.123 380.408C200.845 380.408 221.698 359.556 221.698 333.833C221.698 308.111 200.845 287.259 175.123 287.259C149.401 287.259 128.549 308.111 128.549 333.833C128.549 359.556 149.401 380.408 175.123 380.408Z" fill="#3A6AB2"/>
</svg>
