<svg width="468" height="453" viewBox="0 0 468 453" fill="none" xmlns="http://www.w3.org/2000/svg">
<path d="M391.203 96.5283C355.147 -43.6949 47.6477 -3.38354 -37.5991 52.5552C-54.3898 165.118 -231.687 315.681 -5.85963 371.639C87.103 394.674 99.5013 474.336 249.047 447.568C388.559 422.596 445.845 373.204 396.284 303.588C334.341 216.582 420.204 209.315 391.203 96.5283Z" fill="#87B4E1"/>
<path d="M65.2006 183.913C56.7767 58.5042 216.902 11.6967 298.017 3.9691C339.323 0.737988 409.628 20.9535 458.297 177.207C519.133 372.524 247.709 415.742 179.854 397.152C111.998 378.562 75.7305 340.674 65.2006 183.913Z" fill="#FFFFDC"/>
<g clip-path="url(#clip0_571_203)">
<path d="M175.005 289.7V326.163H247.576C247.576 326.163 248.348 303.953 228.216 304.843L228.869 290.591C228.869 290.591 213.191 283.405 212.775 283.405C212.419 283.405 175.005 289.7 175.005 289.7Z" fill="#B37014" stroke="#FEE9C2" stroke-width="0.6314" stroke-miterlimit="10"/>
<path d="M146.738 180.606C146.738 180.606 141.512 210.953 153.27 213.269H167.107C167.107 213.269 174.946 211.962 174.946 233.639C174.946 255.315 174.946 289.581 174.946 289.581C174.946 289.581 188.011 295.341 204.521 289.581C204.521 289.581 214.973 295.223 228.869 290.472L232.314 234.529C232.314 234.529 234.868 201.985 203.096 182.922C203.096 183.041 156.299 184.466 146.738 180.606Z" fill="#6692CC"/>
<path d="M172.988 65.6337C173.107 65.693 177.442 57.6758 185.637 57.2601C193.833 56.8444 197.515 64.2084 197.515 64.2084L195.792 70.2658L179.283 75.3137C179.283 75.3137 172.75 69.0187 172.691 68.8999C172.691 68.7218 172.988 65.6337 172.988 65.6337Z" fill="#1A1A1A"/>
<path d="M165.089 97.3461L170.671 77.986C170.671 77.986 171.503 75.1949 169.899 74.3041C168.296 73.4726 163.723 68.7217 168.355 65.8711C172.987 63.0206 178.629 69.9688 178.629 69.9688C178.629 69.9688 180.114 72.2849 182.311 69.9688C184.449 67.6527 183.558 63.08 185.993 64.3865C188.428 65.693 195.495 66.2868 197.574 64.1489C197.574 64.1489 201.552 69.078 200.127 79.5301C200.127 79.5301 199.652 80.124 201.196 80.7178C202.681 81.2523 202.087 84.4592 199.177 83.5684C199.177 83.5684 198.761 94.8519 187.715 92.6546C187.715 92.6546 186.231 92.5358 185.815 94.3768C185.399 96.2178 185.043 100.612 185.043 100.612L178.985 106.492C178.985 106.492 166.158 101.147 166.099 101.028C165.92 100.909 165.089 97.3461 165.089 97.3461Z" fill="#EB990F"/>
<path d="M165.089 97.3462L163.367 105.066C163.367 105.066 138.662 118.013 132.13 132.503C125.597 146.993 123.103 158.158 128.864 168.491H142.226L138.069 182.21C138.069 182.21 197.04 188.089 211.292 180.666L208.264 152.16L214.143 135.829C214.143 135.829 213.371 113.856 184.212 105.779L184.984 100.672C184.925 100.612 174.473 102.572 165.089 97.3462Z" fill="#5EBB99"/>
<path d="M187.298 194.74L197.81 205.608C197.81 205.608 204.164 211.666 204.58 223.543C204.995 235.42 204.699 307.278 204.699 307.278" stroke="white" stroke-width="0.6314" stroke-miterlimit="10"/>
<path d="M194.484 306.744C194.484 306.744 214.319 300.449 214.616 326.163" stroke="white" stroke-width="0.6314" stroke-miterlimit="10"/>
<path d="M222.04 305.675C222.04 305.675 226.316 304.962 228.038 305.081" stroke="white" stroke-width="0.6314" stroke-miterlimit="10"/>
<path d="M145.609 148.656L168.413 156.198" stroke="#3A6AB2" stroke-width="0.593867" stroke-miterlimit="10" stroke-linecap="round" stroke-linejoin="round"/>
<path d="M155.053 124.308L153.093 151.091" stroke="#3A6AB2" stroke-width="0.593867" stroke-miterlimit="10" stroke-linecap="round" stroke-linejoin="round"/>
<path d="M195.375 120.804L196.028 138.501" stroke="#3A6AB2" stroke-width="0.593867" stroke-miterlimit="10" stroke-linecap="round" stroke-linejoin="round"/>
<path d="M163.365 105.066C163.365 105.066 171.323 108.333 178.865 107.917" stroke="#3A6AB2" stroke-width="0.593867" stroke-miterlimit="10" stroke-linecap="round" stroke-linejoin="round"/>
<path d="M180.647 86.0627C180.647 86.0627 182.25 91.2294 187.12 92.7141" stroke="#1A1A1A" stroke-width="0.593867" stroke-miterlimit="10" stroke-linecap="round" stroke-linejoin="round"/>
<path d="M169.898 69.0781C169.898 69.0781 173.223 69.4938 173.758 71.7505" stroke="#1A1A1A" stroke-width="0.593867" stroke-miterlimit="10" stroke-linecap="round" stroke-linejoin="round"/>
<path d="M193.89 78.4019C193.89 78.4019 193.178 81.3712 196.444 83.034" stroke="#1A1A1A" stroke-width="0.593867" stroke-miterlimit="10" stroke-linecap="round" stroke-linejoin="round"/>
<path d="M195.732 69.6125C194.782 69.7907 192.941 71.0378 192.822 72.1662" stroke="#1A1A1A" stroke-width="0.593867" stroke-miterlimit="10" stroke-linecap="round" stroke-linejoin="round"/>
<path d="M196.563 75.3137C197.088 75.3137 197.514 74.8883 197.514 74.3635C197.514 73.8387 197.088 73.4133 196.563 73.4133C196.039 73.4133 195.613 73.8387 195.613 74.3635C195.613 74.8883 196.039 75.3137 196.563 75.3137Z" fill="#1A1A1A"/>
<path d="M198.586 75.0046C199.048 73.227 198.291 71.4914 196.894 71.128C195.498 70.7647 193.99 71.9111 193.528 73.6887C193.065 75.4662 193.823 77.2018 195.219 77.5652C196.616 77.9286 198.123 76.7821 198.586 75.0046Z" stroke="white" stroke-width="0.593867" stroke-miterlimit="10"/>
<path d="M186.705 80.1241C188.049 80.1241 189.139 79.034 189.139 77.6893C189.139 76.3445 188.049 75.2544 186.705 75.2544C185.36 75.2544 184.27 76.3445 184.27 77.6893C184.27 79.034 185.36 80.1241 186.705 80.1241Z" fill="#FEE7C8"/>
<path d="M112.768 168.491H282.257" stroke="black" stroke-width="0.593867" stroke-miterlimit="10"/>
<path d="M220.733 168.491L226.79 130.068H172.926L166.097 168.491H220.733Z" fill="#FDFDFD" stroke="black" stroke-width="0.593867" stroke-miterlimit="10"/>
<path d="M132.9 213.091H168.414" stroke="black" stroke-width="0.593867" stroke-miterlimit="10" stroke-linecap="round" stroke-linejoin="round"/>
<path d="M122.21 168.491V326.163H405.129" stroke="black" stroke-width="0.593867" stroke-miterlimit="10" stroke-linecap="round" stroke-linejoin="round"/>
<path d="M273.944 168.491V326.163" stroke="black" stroke-width="0.593867" stroke-miterlimit="10" stroke-linecap="round" stroke-linejoin="round"/>
<path d="M333.034 211.725H365.993L395.271 109.164" stroke="black" stroke-width="0.593867" stroke-miterlimit="10" stroke-linecap="round" stroke-linejoin="round"/>
<path d="M384.522 326.163C383.75 321.056 365.993 211.725 365.993 211.725" stroke="black" stroke-width="0.593867" stroke-miterlimit="10" stroke-linecap="round" stroke-linejoin="round"/>
<path d="M302.744 289.343V306.09C302.744 306.09 284.572 310.901 285.878 326.163H329.824L330.834 291.125C330.834 291.125 316.225 280.554 315.215 280.554C314.206 280.554 302.744 289.343 302.744 289.343Z" fill="#3C74B9"/>
<path d="M279.344 265.886C278.275 265.886 242.703 248.129 242.703 248.129C242.703 248.129 252.145 223.483 271.743 236.608L273.881 230.788L290.034 226.987L294.844 244.091L279.344 265.886Z" fill="#3C74B9"/>
<path d="M302.743 289.343C302.743 289.343 314.502 295.401 330.774 291.125L332.912 211.487H360.408C360.408 211.487 376.323 196.76 371.988 174.193L340.038 154.357L331.189 176.509C331.189 176.509 315.274 168.491 301.199 188.445C287.065 208.459 273.941 230.61 273.941 230.61L294.904 243.972L301.377 236.489L302.743 289.343Z" fill="#5EBB99"/>
<path d="M370.979 160.415L371.988 174.252L356.132 164.394L349.778 162.671L370.979 160.415Z" fill="#1A1A1A"/>
<path d="M279.998 154.417C279.998 154.417 268.596 158.099 266.933 160.415C265.27 162.731 257.253 168.729 254.7 166.056C252.146 163.384 258.025 157.802 258.025 157.802C258.025 157.802 236.527 164.275 234.983 161.009C233.439 157.802 236.468 156.495 236.468 156.495C236.468 156.495 235.993 151.507 243.416 150.438C243.416 150.438 244.485 147.884 248.405 148.181C252.324 148.478 257.313 150.438 260.638 149.963C263.964 149.488 274.594 143.727 274.594 143.727L282.196 147.35L279.998 154.417Z" fill="#EB990F"/>
<path d="M324.004 95.0894C324.004 95.0894 309.811 94.1986 309.098 102.928C308.386 111.718 312.958 112.846 312.958 112.846C312.958 112.846 303.694 113.202 307.851 124.545C312.008 135.947 361.121 125.792 361.121 125.792C361.121 125.792 372.701 120.626 372.345 111.183C371.929 101.741 363.556 100.494 360.468 100.553C360.468 100.553 364.565 80.0052 346.393 79.9458C328.28 80.0052 324.004 95.0894 324.004 95.0894Z" fill="#1A1A1A"/>
<path d="M322.935 66.3462C322.935 66.3462 324.776 61.1201 334.041 61.5952C343.721 62.0703 347.046 72.0473 346.037 76.145C345.027 80.2427 338.495 83.5683 338.02 83.5683C337.544 83.5683 324.658 78.9362 324.658 78.9362C324.658 78.9362 321.807 72.1067 321.807 71.8098C321.866 71.5128 322.935 66.3462 322.935 66.3462Z" fill="#1A1A1A"/>
<path d="M329.706 105.838C329.706 105.838 329.053 98.7713 328.637 98.7713C328.221 98.7713 322.995 100.434 320.264 96.2177C317.591 92.0013 316.7 91.7637 316.7 84.4591C316.7 84.4591 312.9 83.5683 313.553 81.6086C314.206 79.6488 316.107 80.9553 316.107 80.9553C316.107 80.9553 314.978 69.7312 322.877 66.3462C322.877 66.3462 325.43 76.917 329.884 78.1642C334.338 79.4113 338.08 78.5799 338.792 78.0454C339.505 77.4515 342.652 74.7197 345.622 75.9668C348.591 77.214 347.403 80.6584 347.225 81.1929C347.047 81.7274 344.137 85.2312 341.168 84.9936L343.187 100.553L342.118 106.254L333.863 106.967L329.706 105.838Z" fill="#EB990F"/>
<path d="M323.35 156.02L321.331 169.085C321.331 169.085 366.287 171.817 379.411 156.02C379.411 156.02 368.662 106.848 343.304 100.553C343.304 100.553 338.731 106.551 329.705 105.779L327.21 114.687L284.333 132.741C284.333 132.741 279.523 136.363 278.988 140.817L274.653 143.727L279.998 154.357L288.609 150.378C288.609 150.378 297.398 156.377 310.166 148.953C310.226 149.013 316.699 156.852 323.35 156.02Z" fill="#3A6AB2"/>
<path d="M309.336 127.633C309.336 127.633 293.42 121.041 286.056 121.635C286.056 121.635 278.692 112.015 276.436 114.687C274.179 117.359 278.989 122.051 278.989 122.051C278.989 122.051 276.614 121.457 274.713 121.932C274.713 121.932 270.972 120.566 267.112 121.635C267.112 121.635 261.47 120.507 260.995 122.348C260.52 124.189 262.658 125.377 262.658 125.377C262.658 125.377 258.204 126.564 260.817 129.296C263.371 132.028 270.913 135.532 283.206 133.81C287.719 133.156 290.451 133.928 292.886 134.403C297.696 135.354 304.169 140.223 304.169 140.223L309.336 127.633Z" fill="#EB990F"/>
<path d="M302.743 306.09C302.743 306.09 309.513 305.437 312.483 308.585" stroke="white" stroke-width="0.593867" stroke-miterlimit="10" stroke-linecap="round" stroke-linejoin="round"/>
<path d="M332.972 211.487C332.972 211.487 331.191 187.97 318.066 190.88C304.942 193.79 301.379 236.549 301.379 236.549" stroke="white" stroke-width="0.593867" stroke-miterlimit="10" stroke-linecap="round" stroke-linejoin="round"/>
<path d="M331.189 176.568L344.908 184.407" stroke="white" stroke-width="0.593867" stroke-miterlimit="10" stroke-linecap="round" stroke-linejoin="round"/>
<path d="M348.768 115.459C348.768 115.459 358.389 130.128 354.707 143.727C351.025 157.327 336.475 158.871 323.351 156.02C323.351 156.02 317.175 156.733 310.226 148.953C310.226 148.953 309.692 145.687 309.751 142.658L312.602 136.957" stroke="white" stroke-width="0.593867" stroke-miterlimit="10" stroke-linecap="round" stroke-linejoin="round"/>
<path d="M334.575 136.066C328.221 126.208 314.681 129.356 314.681 129.356C313.671 128.762 309.336 127.633 309.336 127.633L304.644 140.223L309.751 142.718" stroke="white" stroke-width="0.593867" stroke-miterlimit="10" stroke-linecap="round" stroke-linejoin="round"/>
<path d="M319.194 136.957L320.679 140.223" stroke="white" stroke-width="0.593867" stroke-miterlimit="10" stroke-linecap="round" stroke-linejoin="round"/>
<path d="M334.575 144.737C334.396 144.915 332.615 147.528 332.615 147.528" stroke="white" stroke-width="0.593867" stroke-miterlimit="10" stroke-linecap="round" stroke-linejoin="round"/>
<path d="M344.077 161.662H347.937" stroke="white" stroke-width="0.593867" stroke-miterlimit="10" stroke-linecap="round" stroke-linejoin="round"/>
<path d="M364.565 151.031L367.416 153.169" stroke="white" stroke-width="0.593867" stroke-miterlimit="10" stroke-linecap="round" stroke-linejoin="round"/>
<path d="M365.397 132.859L363.675 135.71" stroke="white" stroke-width="0.593867" stroke-miterlimit="10" stroke-linecap="round" stroke-linejoin="round"/>
<path d="M342.533 125.852L344.077 128.643" stroke="white" stroke-width="0.593867" stroke-miterlimit="10" stroke-linecap="round" stroke-linejoin="round"/>
<path d="M343.602 108.333L341.643 111.421" stroke="white" stroke-width="0.593867" stroke-miterlimit="10" stroke-linecap="round" stroke-linejoin="round"/>
<path d="M327.211 114.746C326.973 115.875 323.707 129.177 323.707 129.177" stroke="white" stroke-width="0.593867" stroke-miterlimit="10" stroke-linecap="round" stroke-linejoin="round"/>
<path d="M334.574 115.459C334.574 115.459 331.605 127.455 332.971 133.928" stroke="white" stroke-width="0.593867" stroke-miterlimit="10" stroke-linecap="round" stroke-linejoin="round"/>
<path d="M278.217 141.411L281.602 147.528" stroke="white" stroke-width="0.593867" stroke-miterlimit="10" stroke-linecap="round" stroke-linejoin="round"/>
<path d="M289.798 143.727L293.896 144.083" stroke="white" stroke-width="0.593867" stroke-miterlimit="10" stroke-linecap="round" stroke-linejoin="round"/>
<path d="M317.413 120.982L319.195 124.486" stroke="white" stroke-width="0.593867" stroke-miterlimit="10" stroke-linecap="round" stroke-linejoin="round"/>
<path d="M268.716 159.049C268.716 159.049 270.022 156.02 270.735 154.417" stroke="white" stroke-width="0.593867" stroke-miterlimit="10" stroke-linecap="round" stroke-linejoin="round"/>
<path d="M258.026 149.963C253.75 152.635 237.003 156.258 236.469 156.555" stroke="white" stroke-width="0.593867" stroke-miterlimit="10" stroke-linecap="round" stroke-linejoin="round"/>
<path d="M243.418 150.497C243.418 150.497 249.772 150.497 253.989 151.566" stroke="white" stroke-width="0.593867" stroke-miterlimit="10" stroke-linecap="round" stroke-linejoin="round"/>
<path d="M262.657 125.377C262.657 125.377 273.703 130.959 282.255 125.377L279.048 122.051" stroke="white" stroke-width="0.593867" stroke-miterlimit="10" stroke-linecap="round" stroke-linejoin="round"/>
<path d="M274.772 121.932L280.533 126.327" stroke="white" stroke-width="0.593867" stroke-miterlimit="10" stroke-linecap="round" stroke-linejoin="round"/>
<path d="M267.172 121.635L275.664 127.693" stroke="white" stroke-width="0.593867" stroke-miterlimit="10" stroke-linecap="round" stroke-linejoin="round"/>
<path d="M295.024 135.057C295.024 135.057 298.706 125.495 299.418 123.536C299.834 122.467 306.07 124.486 305.713 125.852C305.357 127.099 301.497 138.382 301.497 138.382L295.974 135.413L295.024 135.057Z" fill="#5EBB99"/>
<path d="M295.974 135.413C295.855 135.294 294.193 134.76 294.193 134.76C294.193 134.76 292.589 136.244 294.193 137.492C295.796 138.739 300.072 140.758 300.903 140.58C301.735 140.461 302.566 139.095 302.566 139.036" fill="#B37014"/>
<path d="M328.637 98.7714C329.409 98.712 333.269 98.2369 334.575 95.2676" stroke="#1A1A1A" stroke-width="0.593867" stroke-miterlimit="10"/>
<path d="M321.807 81.4304C321.807 81.4304 321.866 84.281 318.718 85.1718" stroke="#1A1A1A" stroke-width="0.593867" stroke-miterlimit="10"/>
<path d="M319.491 74.2446C319.491 74.2446 320.976 77.8672 322.223 77.1546C323.47 76.4419 319.373 72.7006 319.491 74.2446Z" fill="#1A1A1A"/>
<path d="M340.395 80.599C340.751 80.3614 342.295 79.0549 345.087 79.0549" stroke="#1A1A1A" stroke-width="0.593867" stroke-miterlimit="10"/>
<path d="M319.194 79.8269C319.653 79.8269 320.026 79.4547 320.026 78.9955C320.026 78.5363 319.653 78.1641 319.194 78.1641C318.735 78.1641 318.363 78.5363 318.363 78.9955C318.363 79.4547 318.735 79.8269 319.194 79.8269Z" fill="#1A1A1A"/>
<path d="M328.637 87.4879C330.048 87.4879 331.191 86.3446 331.191 84.9342C331.191 83.5239 330.048 82.3806 328.637 82.3806C327.227 82.3806 326.084 83.5239 326.084 84.9342C326.084 86.3446 327.227 87.4879 328.637 87.4879Z" fill="#FEE7C8"/>
<path d="M284.81 326.163H332.676" stroke="black" stroke-width="0.593867" stroke-miterlimit="10" stroke-linecap="round" stroke-linejoin="round"/>
</g>
<defs>
<clipPath id="clip0_571_203">
<rect width="292.658" height="269.2" fill="white" transform="translate(112.768 57.2603)"/>
</clipPath>
</defs>
</svg>
