<svg width="463" height="367" viewBox="0 0 463 367" fill="none" xmlns="http://www.w3.org/2000/svg">
<path d="M203.501 45.7239C203.501 45.7239 177.862 32.1409 193.077 13.2931C208.292 -5.55476 227.772 13.9775 227.772 13.9775C227.772 13.9775 248.041 -1.76414 274.312 5.44857C300.583 12.6613 326.065 44.6183 317.325 79.7342C308.533 114.903 203.501 45.7239 203.501 45.7239Z" fill="#1A1A1A"/>
<path d="M191.707 365.768C191.707 365.768 143.482 326.019 129.004 295.062C129.004 295.062 45.6629 319.122 1.12305 310.225C1.12305 310.225 28.4471 356.818 65.9322 365.768" fill="white"/>
<path d="M191.707 365.768C191.707 365.768 143.482 326.019 129.004 295.062C129.004 295.062 45.6629 319.122 1.12305 310.225C1.12305 310.225 28.4471 356.818 65.9321 365.768" stroke="#1A1A1A" stroke-width="0.526475" stroke-miterlimit="10"/>
<path d="M178.335 229.569C189.023 220.987 188.76 219.829 188.76 219.829L188.286 303.065C188.286 303.065 131.269 306.066 120.581 321.386C109.894 336.707 114.105 341.34 127.531 338.76C127.531 338.76 110.841 352.448 128.899 354.291C128.899 354.291 120.318 365.4 135.164 365.663C150.011 365.926 437.467 365.663 437.467 365.663C437.467 365.663 460.052 338.181 432.254 261.315C404.457 184.45 353.388 152.124 317.957 137.541L305.005 128.486L299.425 107.795C299.425 107.795 327.17 97.371 316.219 77.5229C305.269 57.6748 290.159 77.8914 289.106 77.5229C288.053 77.1544 265.467 80.8397 254.516 48.3035C254.516 48.3035 221.454 56.8324 203.554 45.6711C203.554 45.6711 188.444 96.7919 204.449 134.33C204.449 134.33 185.653 130.486 173.334 143.543C168.122 149.071 155.434 160.285 142.535 171.341L178.335 229.569Z" fill="#E5AC00"/>
<path d="M172.017 234.518C163.646 240.941 151.168 250.101 132.478 263.158C75.461 303.012 59.4562 288.429 59.4562 288.429C36.7125 276.583 46.5575 229.569 51.5064 211.037L56.4026 194.769L102.732 188.925L106.523 199.77L107.05 201.192C107.05 201.192 120.001 190.452 134.69 177.974L172.017 234.518Z" fill="#E5AC00"/>
<path d="M62.967 227.608L59.6652 227.922L65.6825 291.077L68.9843 290.763L62.967 227.608Z" fill="#999999"/>
<path d="M106.826 223.45L103.524 223.765L109.541 286.92L112.843 286.605L106.826 223.45Z" fill="#999999"/>
<path d="M112.926 287.141L112.611 283.839L65.4415 288.333L65.7561 291.635L112.926 287.141Z" fill="#999999"/>
<path d="M106.033 250.126L105.718 246.825L65.1524 250.69L65.467 253.992L106.033 250.126Z" fill="#3A6AB2"/>
<path d="M108.579 241.837L108.265 238.535L61.0953 243.03L61.4099 246.331L108.579 241.837Z" fill="#999999"/>
<path d="M107.13 226.734L106.816 223.432L59.646 227.926L59.9606 231.228L107.13 226.734Z" fill="#999999"/>
<path d="M108.253 238.478L107.135 226.738L59.9653 231.232L61.0839 242.972L108.253 238.478Z" fill="#1A1A1A"/>
<path d="M110.147 223.123L106.747 187.432L52.9735 192.555L56.3742 228.247L110.147 223.123Z" fill="#1A1A1A"/>
<path d="M56.816 198.111L53.5142 198.425L58.8873 254.819L62.1892 254.505L56.816 198.111Z" fill="#1A1A1A"/>
<path d="M107.306 193.318L104.005 193.633L109.378 250.027L112.68 249.712L107.306 193.318Z" fill="#1A1A1A"/>
<path d="M60.0876 231.254C60.4562 235.15 60.8247 239.098 61.1932 242.994" stroke="white" stroke-width="0.217961" stroke-miterlimit="10"/>
<path d="M64.7738 230.78C65.1423 234.676 65.5109 238.624 65.8794 242.52" stroke="white" stroke-width="0.217961" stroke-miterlimit="10"/>
<path d="M69.46 230.359C69.8285 234.255 70.197 238.203 70.5656 242.099" stroke="white" stroke-width="0.217961" stroke-miterlimit="10"/>
<path d="M74.1976 229.885C74.5662 233.781 74.9347 237.729 75.3032 241.625" stroke="white" stroke-width="0.217961" stroke-miterlimit="10"/>
<path d="M78.8821 229.464C79.2506 233.36 79.6191 237.308 79.9877 241.204" stroke="white" stroke-width="0.217961" stroke-miterlimit="10"/>
<path d="M83.5684 228.99C83.9369 232.886 84.3054 236.834 84.674 240.73" stroke="white" stroke-width="0.217961" stroke-miterlimit="10"/>
<path d="M88.2545 228.569C88.623 232.465 88.9916 236.413 89.3601 240.309" stroke="white" stroke-width="0.217961" stroke-miterlimit="10"/>
<path d="M92.9407 228.095C93.3092 231.991 93.6777 235.939 94.0463 239.835" stroke="white" stroke-width="0.217961" stroke-miterlimit="10"/>
<path d="M97.6785 227.674C98.047 231.57 98.4155 235.518 98.7841 239.414" stroke="white" stroke-width="0.217961" stroke-miterlimit="10"/>
<path d="M102.365 227.2C102.733 231.096 103.102 235.044 103.47 238.94" stroke="white" stroke-width="0.217961" stroke-miterlimit="10"/>
<path d="M107.049 226.779C107.418 230.675 107.786 234.623 108.155 238.519" stroke="white" stroke-width="0.217961" stroke-miterlimit="10"/>
<path d="M52.9802 192.558C52.9802 192.558 59.6138 183.66 79.0934 181.817C98.573 179.975 106.786 187.451 106.786 187.451L52.9802 192.558Z" fill="#999999"/>
<path d="M57.6137 241.625C57.6137 241.625 55.4025 239.993 54.9813 235.202C54.5075 230.411 56.3502 228.358 56.3502 228.358L57.6137 241.625Z" fill="#B62937"/>
<path d="M110.156 223.198C110.156 223.198 112.367 224.831 112.788 229.621C113.262 234.412 111.419 236.466 111.419 236.466L110.156 223.198Z" fill="#B62937"/>
<path d="M74.41 207.289C74.9661 207.236 75.4074 207.313 75.7339 207.518C76.0599 207.72 76.2449 208.051 76.2888 208.511C76.3355 209.002 76.2117 209.382 75.9173 209.651C75.623 209.92 75.2129 210.08 74.6872 210.13L74.1203 210.184L74.2774 211.833L73.6583 211.892L73.2305 207.402L74.41 207.289ZM74.6146 209.644C74.9752 209.609 75.2423 209.514 75.4159 209.357C75.5938 209.2 75.6655 208.941 75.6312 208.58C75.6006 208.259 75.4828 208.035 75.278 207.91C75.0775 207.785 74.8013 207.739 74.4494 207.772L73.8955 207.825L74.0737 209.695L74.6146 209.644ZM78.58 209.503L77.8827 209.569L78.064 211.472L77.4449 211.531L77.0171 207.041L78.1966 206.929C78.7571 206.875 79.1908 206.941 79.4978 207.127C79.8092 207.312 79.9849 207.615 80.0251 208.037C80.0549 208.35 79.9987 208.611 79.8566 208.822C79.7145 209.033 79.4853 209.204 79.169 209.335L80.5729 211.233L79.8365 211.303L78.58 209.503ZM78.463 209.034C78.7888 209.003 79.0281 208.914 79.1807 208.768C79.333 208.618 79.395 208.395 79.3669 208.099C79.3404 207.821 79.2366 207.63 79.0556 207.524C78.8785 207.414 78.6053 207.376 78.2361 207.411L77.6821 207.464L77.8374 209.093L78.463 209.034ZM81.5819 206.606L82.0097 211.096L81.3906 211.155L80.9628 206.665L81.5819 206.606ZM86.4602 210.672L85.6325 210.751L83.4446 207.113C83.4992 207.41 83.5453 207.686 83.5827 207.941C83.6241 208.191 83.662 208.497 83.6963 208.857L83.8925 210.917L83.3125 210.972L82.8847 206.482L83.6928 206.405L85.9009 210.048C85.8771 209.936 85.8409 209.74 85.7923 209.46C85.7437 209.18 85.7082 208.922 85.6858 208.688L85.4524 206.237L86.0323 206.182L86.4602 210.672ZM89.9855 205.805L89.9707 206.339L88.726 206.458L89.1035 210.42L88.4844 210.479L88.1069 206.517L86.8296 206.639L86.7793 206.111L89.9855 205.805Z" fill="white"/>
<path d="M105.628 197.664C105.628 197.664 116.21 181.818 106.313 160.443C96.415 139.068 87.7808 151.598 87.7808 151.598C87.7808 151.598 77.3566 146.28 72.4604 153.862C72.4604 153.862 65.1424 151.335 59.2458 161.443C59.2458 161.443 43.3463 165.339 47.6107 183.976C51.8752 202.613 58.1402 213.301 65.8794 211.721C73.6186 210.142 70.6704 202.245 70.6704 202.245C70.6704 202.245 80.8603 210.207 81.7807 197.66C81.7807 197.66 87.0517 206.606 93.5194 196.085C93.7482 196.946 101.522 204.087 105.628 197.664Z" fill="#E5AC00"/>
<path d="M118.527 189.241C120.001 190.399 160.645 243.047 160.645 243.047C160.645 243.047 187.548 223.83 188.759 219.882L188.285 303.117C188.285 303.117 232.193 312.963 239.511 312.647C246.829 312.278 365.76 305.329 372.814 305.434L357.494 268.002L420.302 233.57C420.302 233.57 384.133 159.811 317.85 137.594C317.85 137.594 303.004 173.289 283.998 179.08C264.992 184.871 257.358 185.555 253.41 162.18L252.304 154.651C252.304 154.651 222.041 171.128 204.457 134.275C204.457 134.275 187.176 128.083 171.595 145.28C154.696 162.127 118.527 189.241 118.527 189.241Z" fill="#87B4E1"/>
<path d="M213.609 75.7329L212.45 99.2664C212.45 99.2664 211.871 104.005 217.662 104.584" stroke="#1A1A1A" stroke-width="0.526475" stroke-miterlimit="10" stroke-linecap="round" stroke-linejoin="round"/>
<path d="M217.662 115.008C217.557 115.008 230.877 115.692 233.404 102.004" stroke="#1A1A1A" stroke-width="0.526475" stroke-miterlimit="10" stroke-linecap="round" stroke-linejoin="round"/>
<path d="M293.684 91.6324C293.684 91.6324 299.476 84.5776 307.847 86.4203" stroke="#1A1A1A" stroke-width="0.526475" stroke-miterlimit="10" stroke-linecap="round" stroke-linejoin="round"/>
<path d="M252.357 154.546C253.147 154.441 279.207 140.279 287.631 124.221" stroke="#1A1A1A" stroke-width="0.526475" stroke-miterlimit="10" stroke-linecap="round" stroke-linejoin="round"/>
<path d="M263.519 181.66C263.834 181.712 276.101 138.173 276.101 138.173C276.101 138.173 264.623 148.79 252.409 154.581C252.409 154.634 253.726 179.133 263.519 181.66Z" fill="#1A1A1A"/>
<path d="M240.765 86.245C241.695 85.1655 240.431 82.5521 237.941 80.4079C235.451 78.2637 232.68 77.4006 231.75 78.4802C230.82 79.5597 232.084 82.173 234.574 84.3172C237.063 86.4614 239.835 87.3245 240.765 86.245Z" fill="#1A1A1A"/>
<path d="M199.266 77.4497C202.111 75.8069 203.841 73.4749 203.128 72.2411C202.416 71.0072 199.532 71.3388 196.686 72.9816C193.841 74.6244 192.112 76.9564 192.824 78.1902C193.537 79.4241 196.421 79.0925 199.266 77.4497Z" fill="#1A1A1A"/>
<path d="M201.447 88.5262C202.784 88.5262 203.868 87.4419 203.868 86.1044C203.868 84.7669 202.784 83.6826 201.447 83.6826C200.109 83.6826 199.025 84.7669 199.025 86.1044C199.025 87.4419 200.109 88.5262 201.447 88.5262Z" fill="#1A1A1A"/>
<path d="M229.035 94.4228C230.372 94.4228 231.457 93.3385 231.457 92.001C231.457 90.6635 230.372 89.5792 229.035 89.5792C227.697 89.5792 226.613 90.6635 226.613 92.001C226.613 93.3385 227.697 94.4228 229.035 94.4228Z" fill="#1A1A1A"/>
<path d="M250.935 103.215C253.348 103.215 255.304 101.258 255.304 98.8451C255.304 96.4317 253.348 94.4753 250.935 94.4753C248.521 94.4753 246.565 96.4317 246.565 98.8451C246.565 101.258 248.521 103.215 250.935 103.215Z" fill="#F0848C"/>
<path d="M160.697 242.994L118.527 189.241" stroke="#1A1A1A" stroke-width="0.526475" stroke-miterlimit="10" stroke-linecap="round" stroke-linejoin="round"/>
<path d="M420.408 233.518L357.6 267.949L344.649 236.887" stroke="#1A1A1A" stroke-width="0.526475" stroke-miterlimit="10" stroke-linecap="round" stroke-linejoin="round"/>
<path d="M404.508 304.697C401.507 305.065 372.867 305.381 372.867 305.381L357.546 267.949" stroke="#1A1A1A" stroke-width="0.526475" stroke-miterlimit="10" stroke-linecap="round" stroke-linejoin="round"/>
<path d="M365.865 288.166C366.076 287.85 374.289 258.788 374.289 258.788L357.6 267.949L365.865 288.166Z" fill="#1A1A1A"/>
<path d="M262.887 311.225C262.887 311.225 279.207 323.966 272.627 365.715H287.789C287.789 365.715 293.633 335.654 281.208 310.172C281.208 310.225 268.994 310.383 262.887 311.225Z" fill="#1A1A1A"/>
<path d="M278.681 347.341C287.927 347.341 295.423 341.024 295.423 333.232C295.423 325.439 287.927 319.122 278.681 319.122C269.435 319.122 261.939 325.439 261.939 333.232C261.939 341.024 269.435 347.341 278.681 347.341Z" fill="white"/>
<path d="M147.642 365.768C148.747 365.294 182.442 353.343 185.969 352.448" stroke="white" stroke-width="0.526475" stroke-miterlimit="10" stroke-linecap="round" stroke-linejoin="round"/>
<path d="M278.68 324.966L280.417 334.232L272.836 341.287" stroke="#1A1A1A" stroke-width="0.526475" stroke-miterlimit="10" stroke-linecap="round" stroke-linejoin="round"/>
<path d="M141.48 256.84C141.691 256.683 145.639 223.778 145.639 223.778L160.697 242.994L141.48 256.84Z" fill="#1A1A1A"/>
<path d="M461.894 365.768H15.1798" stroke="#1A1A1A" stroke-width="0.526475" stroke-miterlimit="10" stroke-linecap="round" stroke-linejoin="round"/>
<path d="M292.895 108.532C292.895 108.532 298.528 109.006 299.581 108.532" stroke="white" stroke-width="0.526475" stroke-miterlimit="10" stroke-linecap="round" stroke-linejoin="round"/>
<path d="M127.581 338.76C130.582 337.549 167.278 324.019 180.229 322.544" stroke="white" stroke-width="0.526475" stroke-miterlimit="10" stroke-linecap="round" stroke-linejoin="round"/>
<path d="M129.003 354.291C129.372 354.238 170.226 341.234 180.756 338.76" stroke="white" stroke-width="0.526475" stroke-miterlimit="10" stroke-linecap="round" stroke-linejoin="round"/>
<path d="M53.8232 203.034C53.8232 203.034 59.0355 214.512 67.5117 211.195C75.988 207.878 66.8273 195.927 65.4058 190.61C63.9844 185.292 62.6155 175.237 62.9314 172.078" stroke="white" stroke-width="0.526475" stroke-miterlimit="10" stroke-linecap="round" stroke-linejoin="round"/>
<path d="M75.9885 168.077C75.9885 168.077 81.727 184.661 81.727 192.294C81.727 199.928 81.9376 209.721 70.2499 201.929" stroke="white" stroke-width="0.526475" stroke-miterlimit="10" stroke-linecap="round" stroke-linejoin="round"/>
<path d="M90.8346 164.655L93.5196 196.033C93.5196 196.033 91.0037 201.557 87.2545 201.192C81.2774 200.481 81.7265 195.506 81.7265 195.506" stroke="white" stroke-width="0.526475" stroke-miterlimit="10" stroke-linecap="round" stroke-linejoin="round"/>
<path d="M106.471 196.181C106.418 196.279 102.312 205.262 93.5194 196.032" stroke="white" stroke-width="0.570489" stroke-miterlimit="10" stroke-linecap="round" stroke-linejoin="round"/>
<path d="M134.11 177.237C134.637 178.08 172.016 234.518 172.016 234.518C172.016 234.518 178.597 229.674 178.492 229.622C178.387 229.569 142.376 170.709 142.376 170.709L134.11 177.237Z" fill="white"/>
<path d="M192.287 5.13259C193.445 4.922 212.398 -10.1352 227.771 13.9774" stroke="#1A1A1A" stroke-width="0.526475" stroke-miterlimit="10"/>
<path d="M375.816 174.026C375.816 174.026 363.496 185.977 369.551 194.401C375.552 202.824 387.661 185.872 387.661 185.872C387.661 185.872 377.658 175.342 375.816 174.026Z" fill="#AED8C8"/>
<path d="M158.908 157.073C158.908 157.073 164.225 178.238 174.386 172.92C184.547 167.603 171.649 149.018 168.858 147.965L158.908 157.073Z" fill="#AED8C8"/>
<path d="M188.705 235.781C188.705 235.36 202.025 225.515 206.184 230.095C210.343 234.676 204.71 251.523 188.6 251.944L188.705 235.781Z" fill="#AED8C8"/>
<path d="M224.349 310.488C224.349 310.488 217.663 289.376 231.088 288.324C244.513 287.271 237.722 312.541 237.722 312.541L224.349 310.488Z" fill="#AED8C8"/>
<path d="M306.378 249.359C312.938 244.107 315.767 236.74 312.696 232.904C309.625 229.067 301.817 230.215 295.256 235.467C288.696 240.719 285.868 248.086 288.939 251.922C292.01 255.759 299.818 254.611 306.378 249.359Z" fill="#AED8C8"/>
</svg>
