<svg width="142" height="139" viewBox="0 0 142 139" fill="none" xmlns="http://www.w3.org/2000/svg">
<g opacity="0.8">
<path d="M36.8068 14.4276C15.845 19.3598 6.2889 46.8978 4.13107 60.0503C-4.19196 91.493 9.06322 101.666 19.5441 110.605C30.025 119.545 31.3915 135.236 68.5577 137.732C94.9593 138.823 123.41 122.367 128.461 102.822C132.502 87.1858 134.804 79.7119 135.45 77.9295C145.429 54.3134 138.841 44.9455 133.293 35.6976C127.744 26.4498 120.037 25.2168 108.94 12.2698C97.8425 -0.677198 83.6625 1.17239 74.1064 1.17239C64.5503 1.1724 63.009 8.26241 36.8068 14.4276Z" stroke="#DFDFDF" stroke-width="2" stroke-linejoin="round"/>
<circle cx="72.8145" cy="67.2484" r="49.8204" stroke="#DFDFDF"/>
<circle cx="72.8142" cy="67.2485" r="46.9275" stroke="#DFDFDF"/>
<path d="M26.0784 105.994C20.0386 102.198 7.75183 92.3476 6.92354 83.3189C6.09524 74.2902 7.82091 67.8224 8.78728 65.7171C8.06252 71.1012 7.37918 81.8279 10.444 81.6623C14.2749 81.4552 10.1333 52.464 12.9289 47.287C15.7245 42.11 20.5909 36.8295 21.8333 36.1048C23.0758 35.38 14.6891 47.2871 13.8608 61.5756C13.0325 75.8641 10.2368 89.9454 26.0784 105.994ZM16.967 62.8181C14.6891 69.0305 12.2456 84.1058 20.6944 94.7083C18.0369 87.7021 13.5709 71.5154 16.967 62.8181ZM35.7077 115.83C36.1218 116.141 53.9307 133.639 77.9519 130.326V128.566C71.2563 129.36 53.4337 127.924 35.7077 115.83ZM85.1997 127.634L85.6139 129.601C92.3785 128.152 107.626 123.265 114.501 115.313C123.095 105.373 126.305 103.406 128.169 96.0543C126.132 98.7809 121.666 104.772 120.093 106.926C118.125 109.618 117.297 110.032 116.779 109.411C116.262 108.79 124.338 95.6402 125.166 92.7411C125.994 89.842 130.032 78.5561 129.411 74.4145C128.79 70.2729 124.441 92.6375 119.161 100.196C113.88 107.754 107.978 117.073 97.5209 121.525C89.1549 125.087 85.8209 127.082 85.1997 127.634ZM67.9106 11.2715C68.48 11.3853 90.5739 8.99375 105.607 21.2934C120.64 33.593 129.067 44.9816 129.181 63.7727C130.472 55.2313 128.361 34.5952 109.593 20.3823C90.8244 6.16939 73.9845 8.38636 67.9106 11.2715ZM74.2628 6.54569C74.6665 6.47841 90.0739 3.51805 95.1872 8.16043C91.7963 7.72988 88.5264 8.33983 87.3154 8.69863C96.8962 8.75245 108.262 16.3911 112.748 20.2037C111.29 18.118 106.208 12.601 97.5421 7.21847C86.7098 0.490375 74.6665 6.47838 74.2628 6.54569Z" stroke="#DFDFDF" stroke-width="0.5" stroke-linejoin="round"/>
<path fill-rule="evenodd" clip-rule="evenodd" d="M52.6914 38.2749C52.1422 38.2749 51.6958 38.7178 51.6915 39.267L51.6582 43.4527H51.6582V43.4606V95.2221C51.6582 95.7744 52.1059 96.2221 52.6582 96.2221H66.8245C67.2289 96.2221 67.5936 95.9784 67.7483 95.6048C67.9031 95.2311 67.8176 94.801 67.5316 94.515L65.2364 92.2198V52.3611H72.8106H72.8179H80.3921V92.2198L78.0969 94.515C77.8109 94.801 77.7254 95.2311 77.8801 95.6048C78.0349 95.9784 78.3996 96.2221 78.804 96.2221H92.9703C93.5226 96.2221 93.9703 95.7744 93.9703 95.2221V43.4606V43.4527H93.9703L93.937 39.267C93.9327 38.7178 93.4863 38.2749 92.9371 38.2749H72.8179H72.8106H52.6914ZM72.8106 40.2749H53.6835L53.6582 43.4646V94.2221H64.4103L63.5293 93.3411C63.3418 93.1536 63.2364 92.8992 63.2364 92.634V51.3611C63.2364 50.8088 63.6841 50.3611 64.2364 50.3611H72.8106H72.8179H81.3921C81.9444 50.3611 82.3921 50.8088 82.3921 51.3611V92.634C82.3921 92.8992 82.2867 93.1536 82.0992 93.3411L81.2182 94.2221H91.9703V43.4646L91.945 40.2749H72.8179H72.8106Z" fill="#DFDFDF"/>
</g>
</svg>
