<svg width="25" height="25" viewBox="0 0 25 25" fill="none" xmlns="http://www.w3.org/2000/svg">
<path d="M15.7129 15.2141C14.9107 15.8608 13.9113 16.2135 12.8809 16.2135C11.8504 16.2135 10.851 15.8608 10.0489 15.2141C9.8038 15.0104 9.48787 14.9124 9.17056 14.9417C8.85324 14.9709 8.56055 15.125 8.35686 15.3701C8.15318 15.6151 8.05518 15.9311 8.08444 16.2484C8.11369 16.5657 8.2678 16.8584 8.51286 17.0621C9.73847 18.0852 11.2843 18.6456 12.8809 18.6456C14.4774 18.6456 16.0233 18.0852 17.2489 17.0621C17.4939 16.8584 17.648 16.5657 17.6773 16.2484C17.7065 15.9311 17.6085 15.6151 17.4049 15.3701C17.304 15.2487 17.1802 15.1485 17.0406 15.0749C16.901 15.0014 16.7483 14.9561 16.5912 14.9417C16.2739 14.9124 15.9579 15.0104 15.7129 15.2141ZM9.28086 11.3381C9.5182 11.3381 9.75021 11.2677 9.94755 11.1358C10.1449 11.004 10.2987 10.8166 10.3895 10.5973C10.4803 10.378 10.5041 10.1368 10.4578 9.90398C10.4115 9.6712 10.2972 9.45738 10.1294 9.28956C9.96157 9.12173 9.74775 9.00744 9.51497 8.96114C9.28219 8.91484 9.04091 8.9386 8.82164 9.02943C8.60237 9.12025 8.41496 9.27406 8.2831 9.4714C8.15124 9.66874 8.08086 9.90075 8.08086 10.1381C8.08086 10.4563 8.20729 10.7616 8.43234 10.9866C8.65738 11.2117 8.9626 11.3381 9.28086 11.3381ZM16.4809 8.93808C16.2435 8.93808 16.0115 9.00846 15.8142 9.14032C15.6168 9.27218 15.463 9.45959 15.3722 9.67886C15.2814 9.89813 15.2576 10.1394 15.3039 10.3722C15.3502 10.605 15.4645 10.8188 15.6323 10.9866C15.8002 11.1544 16.014 11.2687 16.2468 11.315C16.4795 11.3613 16.7208 11.3376 16.9401 11.2467C17.1594 11.1559 17.3468 11.0021 17.4786 10.8048C17.6105 10.6074 17.6809 10.3754 17.6809 10.1381C17.6809 9.81982 17.5544 9.5146 17.3294 9.28956C17.1043 9.06451 16.7991 8.93808 16.4809 8.93808ZM12.8809 0.538086C10.5075 0.538086 8.18741 1.24187 6.21402 2.56045C4.24063 3.87903 2.70256 5.75317 1.79431 7.94588C0.886059 10.1386 0.648419 12.5514 1.11144 14.8792C1.57446 17.2069 2.71735 19.3451 4.39558 21.0234C6.07381 22.7016 8.21201 23.8445 10.5398 24.3075C12.8676 24.7705 15.2804 24.5329 17.4731 23.6246C19.6658 22.7164 21.5399 21.1783 22.8585 19.2049C24.1771 17.2315 24.8809 14.9115 24.8809 12.5381C24.8809 10.9622 24.5705 9.40179 23.9674 7.94588C23.3644 6.48998 22.4804 5.16711 21.3661 4.0528C20.2518 2.9385 18.929 2.05459 17.4731 1.45153C16.0172 0.848475 14.4567 0.538086 12.8809 0.538086ZM12.8809 22.1381C10.9822 22.1381 9.1261 21.5751 7.54739 20.5202C5.96868 19.4653 4.73822 17.966 4.01162 16.2118C3.28502 14.4577 3.09491 12.5274 3.46533 10.6652C3.83574 8.803 4.75005 7.09244 6.09264 5.74986C7.43522 4.40728 9.14578 3.49296 11.008 3.12255C12.8702 2.75213 14.8005 2.94224 16.5546 3.66884C18.3088 4.39544 19.8081 5.6259 20.863 7.20461C21.9178 8.78332 22.4809 10.6394 22.4809 12.5381C22.4809 15.0842 21.4694 17.526 19.6691 19.3263C17.8687 21.1267 15.4269 22.1381 12.8809 22.1381Z" fill="white"/>
</svg>
