<svg width="28" height="29" viewBox="0 0 28 29" fill="none" xmlns="http://www.w3.org/2000/svg">
<path d="M12.8008 11.0382H17.3008C17.5992 11.0382 17.8853 10.9153 18.0963 10.6965C18.3073 10.4777 18.4258 10.1809 18.4258 9.8715C18.4258 9.56208 18.3073 9.26534 18.0963 9.04654C17.8853 8.82775 17.5992 8.70483 17.3008 8.70483H15.0508V7.53817C15.0508 7.22875 14.9323 6.932 14.7213 6.71321C14.5103 6.49442 14.2242 6.3715 13.9258 6.3715C13.6274 6.3715 13.3413 6.49442 13.1303 6.71321C12.9193 6.932 12.8008 7.22875 12.8008 7.53817V8.70483C11.9057 8.70483 11.0472 9.07358 10.4143 9.72996C9.78137 10.3863 9.42579 11.2766 9.42579 12.2048C9.42579 13.1331 9.78137 14.0233 10.4143 14.6797C11.0472 15.3361 11.9057 15.7048 12.8008 15.7048H15.0508C15.3492 15.7048 15.6353 15.8278 15.8463 16.0465C16.0573 16.2653 16.1758 16.5621 16.1758 16.8715C16.1758 17.1809 16.0573 17.4777 15.8463 17.6965C15.6353 17.9153 15.3492 18.0382 15.0508 18.0382H10.5508C10.2524 18.0382 9.96627 18.1611 9.75529 18.3799C9.54431 18.5987 9.42579 18.8954 9.42579 19.2048C9.42579 19.5143 9.54431 19.811 9.75529 20.0298C9.96627 20.2486 10.2524 20.3715 10.5508 20.3715H12.8008V21.5382C12.8008 21.8476 12.9193 22.1443 13.1303 22.3631C13.3413 22.5819 13.6274 22.7048 13.9258 22.7048C14.2242 22.7048 14.5103 22.5819 14.7213 22.3631C14.9323 22.1443 15.0508 21.8476 15.0508 21.5382V20.3715C15.9459 20.3715 16.8043 20.0028 17.4373 19.3464C18.0702 18.69 18.4258 17.7998 18.4258 16.8715C18.4258 15.9432 18.0702 15.053 17.4373 14.3966C16.8043 13.7402 15.9459 13.3715 15.0508 13.3715H12.8008C12.5024 13.3715 12.2163 13.2486 12.0053 13.0298C11.7943 12.811 11.6758 12.5143 11.6758 12.2048C11.6758 11.8954 11.7943 11.5987 12.0053 11.3799C12.2163 11.1611 12.5024 11.0382 12.8008 11.0382ZM13.9258 1.70483C11.4782 1.70483 9.08566 2.4575 7.05061 3.86764C5.01555 5.27779 3.42941 7.28208 2.49278 9.62706C1.55614 11.972 1.31108 14.5524 1.78857 17.0418C2.26606 19.5312 3.44467 21.8179 5.17534 23.6127C6.90602 25.4075 9.11103 26.6297 11.5115 27.1249C13.9121 27.6201 16.4003 27.3659 18.6615 26.3946C20.9227 25.4233 22.8554 23.7784 24.2152 21.668C25.575 19.5576 26.3008 17.0764 26.3008 14.5382C26.3008 11.1346 24.997 7.87035 22.6762 5.46363C20.3555 3.05691 17.2078 1.70483 13.9258 1.70483ZM13.9258 25.0382C11.9233 25.0382 9.96569 24.4224 8.30064 23.2686C6.63559 22.1148 5.33784 20.475 4.57151 18.5563C3.80517 16.6377 3.60466 14.5265 3.99534 12.4897C4.38601 10.4529 5.35032 8.582 6.76633 7.11355C8.18234 5.64509 9.98644 4.64507 11.9505 4.23992C13.9146 3.83478 15.9504 4.04271 17.8005 4.83743C19.6506 5.63215 21.2319 6.97796 22.3444 8.70468C23.457 10.4314 24.0508 12.4615 24.0508 14.5382C24.0508 17.3229 22.984 19.9937 21.0852 21.9628C19.1864 23.9319 16.6111 25.0382 13.9258 25.0382Z" fill="white"/>
</svg>
