<svg width="30" height="30" viewBox="0 0 30 30" fill="none" xmlns="http://www.w3.org/2000/svg">
<path d="M13.696 2.45483C11.3062 2.45483 8.96996 3.16351 6.98287 4.49124C4.99578 5.81898 3.44702 7.70614 2.53247 9.91408C1.61791 12.122 1.37862 14.5516 1.84485 16.8955C2.31109 19.2394 3.46192 21.3925 5.1518 23.0824C6.84169 24.7723 8.99473 25.9231 11.3387 26.3893C13.6826 26.8556 16.1122 26.6163 18.3201 25.7017C20.528 24.7872 22.4152 23.2384 23.7429 21.2513C25.0707 19.2642 25.7793 16.928 25.7793 14.5382C25.7793 12.9514 25.4668 11.3801 24.8596 9.91408C24.2523 8.44806 23.3623 7.116 22.2402 5.99396C21.1182 4.87192 19.7861 3.98187 18.3201 3.37462C16.8541 2.76738 15.2828 2.45483 13.696 2.45483ZM13.696 24.2048C11.7841 24.2048 9.91517 23.6379 8.3255 22.5757C6.73582 21.5135 5.49682 20.0038 4.76517 18.2374C4.03353 16.4711 3.84209 14.5274 4.21509 12.6523C4.58808 10.7771 5.50874 9.05471 6.86064 7.7028C8.21255 6.35089 9.93499 5.43023 11.8101 5.05724C13.6853 4.68425 15.6289 4.87568 17.3953 5.60733C19.1616 6.33898 20.6714 7.57798 21.7335 9.16765C22.7957 10.7573 23.3627 12.6263 23.3627 14.5382C23.3627 17.1019 22.3442 19.5607 20.5314 21.3735C18.7185 23.1864 16.2598 24.2048 13.696 24.2048ZM13.696 7.28817C13.3755 7.28817 13.0682 7.41547 12.8416 7.64208C12.615 7.86869 12.4877 8.17603 12.4877 8.4965V12.4478L11.1585 11.6744C10.8797 11.5142 10.5487 11.4713 10.2382 11.5551C9.92776 11.639 9.66333 11.8427 9.50309 12.1215C9.34286 12.4003 9.29994 12.7314 9.38379 13.0418C9.46763 13.3523 9.67137 13.6167 9.95018 13.7769L13.0918 15.5894H13.1764H13.2852C13.4114 15.6665 13.5506 15.7197 13.696 15.7465C13.8368 15.7425 13.9759 15.7138 14.1068 15.6619H14.2035C14.3295 15.607 14.4442 15.5291 14.5418 15.4323C14.6081 15.3606 14.6687 15.2838 14.7231 15.2028C14.7231 15.2028 14.7231 15.2028 14.7231 15.1303C14.7527 15.0597 14.7769 14.987 14.7956 14.9128C14.8013 14.8323 14.8013 14.7515 14.7956 14.6711C14.7956 14.6711 14.7956 14.6711 14.7956 14.5986V8.4965C14.7968 8.19401 14.6845 7.90206 14.481 7.67834C14.2774 7.45462 13.9973 7.31539 13.696 7.28817Z" fill="white"/>
</svg>
