<svg width="72" height="73" viewBox="0 0 72 73" fill="none" xmlns="http://www.w3.org/2000/svg">
<path d="M35.8821 0.65625L41.2723 9.44001L49.6135 3.38761L51.232 13.5655L61.2545 11.1659L58.8549 21.1884L69.0328 22.8068L62.9804 31.1481L71.7641 36.5383L62.9804 41.9285L69.0328 50.2698L58.8549 51.8883L61.2545 61.9108L51.232 59.5112L49.6135 69.689L41.2723 63.6366L35.8821 72.4204L30.4919 63.6366L22.1506 69.689L20.5321 59.5112L10.5096 61.9108L12.9092 51.8883L2.73136 50.2698L8.78376 41.9285L0 36.5383L8.78376 31.1481L2.73136 22.8068L12.9092 21.1884L10.5096 11.1659L20.5321 13.5655L22.1506 3.38761L30.4919 9.44001L35.8821 0.65625Z" fill="#EB990F"/>
</svg>
